<svg xmlns="http://www.w3.org/2000/svg" viewBox="0 0 542.52 352.19"><defs><style>.cls-1{fill:none;stroke:#4caf50;stroke-miterlimit:10;stroke-width:3px;}.cls-2{fill:#1b5e20;}.cls-3{fill:#4caf50;}.cls-4{fill:#388e3c;}</style></defs><title>100Asset 1</title><g id="Layer_2" data-name="Layer 2"><g id="logo"><line class="cls-1" x1="384.05" y1="336.5" x2="504.05" y2="266.5"/><line class="cls-1" x1="136.05" y1="341.5" x2="507.05" y2="120.5"/><line class="cls-1" x1="26.05" y1="258.5" x2="400.05" y2="45.5"/><line class="cls-1" x1="31.05" y1="121.5" x2="161.99" y2="45.5"/><line class="cls-1" x1="507.05" y1="120.5" x2="389.99" y2="51.5"/><line class="cls-1" x1="514.05" y1="264.5" x2="147.05" y2="49.5"/><line class="cls-1" x1="404.05" y1="339.5" x2="16.05" y2="112.5"/><line class="cls-1" x1="152.05" y1="332.5" x2="26.05" y2="258.5"/><polygon class="cls-2" points="391.26 352.19 360 334.14 360 298.05 391.26 316.09 391.26 352.19"/><polygon class="cls-3" points="422.52 298.05 391.26 316.09 360 298.05 391.26 280 422.52 298.05"/><polygon class="cls-4" points="422.52 334.14 391.26 352.19 391.26 316.09 422.52 298.05 422.52 334.14"/><polygon class="cls-2" points="511.26 282.19 480 264.14 480 228.05 511.26 246.09 511.26 282.19"/><polygon class="cls-3" points="542.52 228.05 511.26 246.09 480 228.05 511.26 210 542.52 228.05"/><polygon class="cls-4" points="542.52 264.14 511.26 282.19 511.26 246.09 542.52 228.05 542.52 264.14"/><polygon class="cls-2" points="151.26 352.19 120 334.14 120 298.05 151.26 316.09 151.26 352.19"/><polygon class="cls-3" points="182.52 298.05 151.26 316.09 120 298.05 151.26 280 182.52 298.05"/><polygon class="cls-4" points="182.52 334.14 151.26 352.19 151.26 316.09 182.52 298.05 182.52 334.14"/><polygon class="cls-2" points="271.26 282.19 240 264.14 240 228.05 271.26 246.09 271.26 282.19"/><polygon class="cls-3" points="302.52 228.05 271.26 246.09 240 228.05 271.26 210 302.52 228.05"/><polygon class="cls-4" points="302.52 264.14 271.26 282.19 271.26 246.09 302.52 228.05 302.52 264.14"/><polygon class="cls-2" points="391.26 212.19 360 194.14 360 158.05 391.26 176.09 391.26 212.19"/><polygon class="cls-3" points="422.52 158.05 391.26 176.09 360 158.05 391.26 140 422.52 158.05"/><polygon class="cls-4" points="422.52 194.14 391.26 212.19 391.26 176.09 422.52 158.05 422.52 194.14"/><polygon class="cls-2" points="391.26 72.19 360 54.14 360 18.05 391.26 36.09 391.26 72.19"/><polygon class="cls-3" points="422.52 18.05 391.26 36.09 360 18.05 391.26 0 422.52 18.05"/><polygon class="cls-4" points="422.52 54.14 391.26 72.19 391.26 36.09 422.52 18.05 422.52 54.14"/><polygon class="cls-2" points="271.26 142.19 240 124.14 240 88.05 271.26 106.09 271.26 142.19"/><polygon class="cls-3" points="302.52 88.05 271.26 106.09 240 88.05 271.26 70 302.52 88.05"/><polygon class="cls-4" points="302.52 124.14 271.26 142.19 271.26 106.09 302.52 88.05 302.52 124.14"/><polygon class="cls-2" points="151.26 212.19 120 194.14 120 158.05 151.26 176.09 151.26 212.19"/><polygon class="cls-3" points="182.52 158.05 151.26 176.09 120 158.05 151.26 140 182.52 158.05"/><polygon class="cls-4" points="182.52 194.14 151.26 212.19 151.26 176.09 182.52 158.05 182.52 194.14"/><polygon class="cls-2" points="31.26 282.19 0 264.14 0 228.05 31.26 246.09 31.26 282.19"/><polygon class="cls-3" points="62.52 228.05 31.26 246.09 0 228.05 31.26 210 62.52 228.05"/><polygon class="cls-4" points="62.52 264.14 31.26 282.19 31.26 246.09 62.52 228.05 62.52 264.14"/><polygon class="cls-2" points="511.26 142.19 480 124.14 480 88.05 511.26 106.09 511.26 142.19"/><polygon class="cls-3" points="542.52 88.05 511.26 106.09 480 88.05 511.26 70 542.52 88.05"/><polygon class="cls-4" points="542.52 124.14 511.26 142.19 511.26 106.09 542.52 88.05 542.52 124.14"/><polygon class="cls-2" points="151.26 72.19 120 54.14 120 18.05 151.26 36.09 151.26 72.19"/><polygon class="cls-3" points="182.52 18.05 151.26 36.09 120 18.05 151.26 0 182.52 18.05"/><polygon class="cls-4" points="182.52 54.14 151.26 72.19 151.26 36.09 182.52 18.05 182.52 54.14"/><polygon class="cls-2" points="31.26 142.19 0 124.14 0 88.05 31.26 106.09 31.26 142.19"/><polygon class="cls-3" points="62.52 88.05 31.26 106.09 0 88.05 31.26 70 62.52 88.05"/><polygon class="cls-4" points="62.52 124.14 31.26 142.19 31.26 106.09 62.52 88.05 62.52 124.14"/></g></g></svg>