<svg id="Layer_2" data-name="Layer 2" xmlns="http://www.w3.org/2000/svg" viewBox="0 0 1373 891"><defs><style>.cls-1{fill:#81c784;}.cls-2{fill:#378e43;}.cls-3{fill:#4cae4e;}.cls-4,.cls-5{fill:none;stroke-miterlimit:10;stroke-width:3px;}.cls-4{stroke:#81c784;}.cls-5{stroke:#378e43;}</style></defs><title>contracts</title><rect class="cls-1" x="68.75" y="217" width="309" height="68" rx="13.1" ry="13.1"/><path class="cls-2" d="M457.83,316.83v-21.3h9.42a6.05,6.05,0,0,1,2.71.61,7,7,0,0,1,2.15,1.62,7.66,7.66,0,0,1,1.41,2.28,6.86,6.86,0,0,1,.51,2.56,7.08,7.08,0,0,1-1,3.77,5.94,5.94,0,0,1-2.8,2.45l4.86,8H470.4l-4.35-7.14H462v7.14ZM462,306.06h5.19a2.19,2.19,0,0,0,1.07-.27,2.73,2.73,0,0,0,.85-.73,3.68,3.68,0,0,0,.57-1.1,4.25,4.25,0,0,0,.21-1.35,3.84,3.84,0,0,0-.24-1.38,3.61,3.61,0,0,0-.64-1.09,2.93,2.93,0,0,0-.93-.72,2.42,2.42,0,0,0-1.06-.25h-5Z" transform="translate(-262 -56)"/><path class="cls-2" d="M492.57,313.2v3.63H477.78v-21.3H492.3v3.63H481.92v5.13h9v3.36h-9v5.55Z" transform="translate(-262 -56)"/><path class="cls-2" d="M510.15,314.43a8.14,8.14,0,0,1-5.94,2.55,9.41,9.41,0,0,1-3.94-.84,10,10,0,0,1-3.21-2.31,11,11,0,0,1-2.16-3.46,11.52,11.52,0,0,1-.79-4.31,10.81,10.81,0,0,1,3-7.52,10.51,10.51,0,0,1,3.29-2.31,9.86,9.86,0,0,1,4.11-.85,10,10,0,0,1,5.15,1.26,8.15,8.15,0,0,1,3.23,3.39l-3.09,2.28a5.74,5.74,0,0,0-2.27-2.43,6.23,6.23,0,0,0-3.17-.84,5.4,5.4,0,0,0-2.48.57,5.8,5.8,0,0,0-1.92,1.56,7.35,7.35,0,0,0-1.23,2.28,8.48,8.48,0,0,0-.44,2.73,8.06,8.06,0,0,0,.48,2.8,7.13,7.13,0,0,0,1.32,2.27,6.17,6.17,0,0,0,2,1.52,5.71,5.71,0,0,0,2.51.56,7.26,7.26,0,0,0,5.58-2.91v-1.5h-4.29v-3h7.71v11h-3.42Z" transform="translate(-262 -56)"/><rect class="cls-1" x="543.5" y="217" width="309" height="68" rx="13.1" ry="13.1"/><path class="cls-2" d="M925.73,314.43a8.14,8.14,0,0,1-5.94,2.55,9.4,9.4,0,0,1-3.94-.84,10,10,0,0,1-3.21-2.31,11,11,0,0,1-2.16-3.46,11.52,11.52,0,0,1-.79-4.31,10.82,10.82,0,0,1,3-7.52,10.51,10.51,0,0,1,3.29-2.31,9.86,9.86,0,0,1,4.11-.85,10,10,0,0,1,5.14,1.26,8.15,8.15,0,0,1,3.23,3.39l-3.09,2.28a5.74,5.74,0,0,0-2.27-2.43,6.22,6.22,0,0,0-3.17-.84,5.4,5.4,0,0,0-2.47.57,5.8,5.8,0,0,0-1.92,1.56,7.36,7.36,0,0,0-1.23,2.28,8.48,8.48,0,0,0-.43,2.73,8.07,8.07,0,0,0,.48,2.8,7.14,7.14,0,0,0,1.32,2.27,6.16,6.16,0,0,0,2,1.52,5.7,5.7,0,0,0,2.5.56,7.26,7.26,0,0,0,5.58-2.91v-1.5h-4.29v-3h7.71v11h-3.42Z" transform="translate(-262 -56)"/><path class="cls-2" d="M932.69,316.83v-21.3h9.42a6.05,6.05,0,0,1,2.71.61,7,7,0,0,1,2.14,1.62,7.64,7.64,0,0,1,1.41,2.28,6.86,6.86,0,0,1,.51,2.56,7.08,7.08,0,0,1-1,3.77,5.94,5.94,0,0,1-2.8,2.45l4.86,8h-4.65l-4.35-7.14h-4.08v7.14Zm4.14-10.77H942a2.19,2.19,0,0,0,1.07-.27,2.73,2.73,0,0,0,.86-.73,3.67,3.67,0,0,0,.57-1.1,4.25,4.25,0,0,0,.21-1.35,3.84,3.84,0,0,0-.24-1.38,3.61,3.61,0,0,0-.64-1.09,2.92,2.92,0,0,0-.93-.72,2.42,2.42,0,0,0-1.07-.25h-5Z" transform="translate(-262 -56)"/><path class="cls-2" d="M958.37,295.53H962l8.1,21.3h-4.26l-2-5.31h-7.44l-1.95,5.31h-4.26Zm4.77,13.08-2.94-8.37-3.06,8.37Z" transform="translate(-262 -56)"/><path class="cls-2" d="M972.47,316.83v-21.3h9a6.05,6.05,0,0,1,2.71.61,7,7,0,0,1,2.15,1.62,7.68,7.68,0,0,1,1.41,2.28,6.86,6.86,0,0,1,.51,2.56,7.38,7.38,0,0,1-.48,2.63,7.27,7.27,0,0,1-1.35,2.27,6.63,6.63,0,0,1-2.1,1.59,6.07,6.07,0,0,1-2.7.6h-5v7.14Zm4.14-10.77h4.8a2.37,2.37,0,0,0,1.91-.93,3.85,3.85,0,0,0,.76-2.52,4.15,4.15,0,0,0-.24-1.45,3.54,3.54,0,0,0-.63-1.1,2.51,2.51,0,0,0-.92-.67,2.67,2.67,0,0,0-1.06-.23h-4.62Z" transform="translate(-262 -56)"/><path class="cls-2" d="M1009.06,295.53v21.3H1005v-9.09h-9.66v9.09h-4.14v-21.3h4.14v8.61H1005v-8.61Z" transform="translate(-262 -56)"/><rect class="cls-1" x="543.5" y="507" width="309" height="68" rx="13.1" ry="13.1"/><path class="cls-2" d="M866.61,603.2v3.63H851.82v-21.3h14.52v3.63H856v5.13h9v3.36h-9v5.55Z" transform="translate(-262 -56)"/><path class="cls-2" d="M874,593.18v13.65h-4.14v-21.3h3.21l11.1,14v-14h4.14v21.27h-3.36Z" transform="translate(-262 -56)"/><path class="cls-2" d="M907.53,603.2v3.63H892.74v-21.3h14.52v3.63H896.88v5.13h9v3.36h-9v5.55Z" transform="translate(-262 -56)"/><path class="cls-2" d="M910.77,606.83v-21.3h9.42a6,6,0,0,1,2.71.62,7,7,0,0,1,2.15,1.62,7.67,7.67,0,0,1,1.41,2.28,6.87,6.87,0,0,1,.51,2.57,7.08,7.08,0,0,1-1,3.76,5.94,5.94,0,0,1-2.8,2.45l4.86,8h-4.65L919,599.69h-4.08v7.14Zm4.14-10.77h5.19a2.19,2.19,0,0,0,1.07-.27,2.73,2.73,0,0,0,.85-.73,3.68,3.68,0,0,0,.57-1.1,4.25,4.25,0,0,0,.21-1.35,3.85,3.85,0,0,0-.24-1.38,3.6,3.6,0,0,0-.64-1.09,2.92,2.92,0,0,0-.93-.72,2.42,2.42,0,0,0-1.06-.25h-5Z" transform="translate(-262 -56)"/><path class="cls-2" d="M945.51,604.43a8.14,8.14,0,0,1-5.94,2.55,9.4,9.4,0,0,1-3.94-.84,10,10,0,0,1-3.21-2.31,11,11,0,0,1-2.16-3.46,11.52,11.52,0,0,1-.79-4.31,10.81,10.81,0,0,1,3-7.51,10.51,10.51,0,0,1,3.29-2.31,9.85,9.85,0,0,1,4.11-.86,10,10,0,0,1,5.15,1.26,8.15,8.15,0,0,1,3.23,3.39l-3.09,2.28a5.74,5.74,0,0,0-2.27-2.43,6.23,6.23,0,0,0-3.17-.84,5.4,5.4,0,0,0-2.48.57,5.8,5.8,0,0,0-1.92,1.56,7.36,7.36,0,0,0-1.23,2.28,8.48,8.48,0,0,0-.44,2.73,8.07,8.07,0,0,0,.48,2.8,7.14,7.14,0,0,0,1.32,2.26,6.15,6.15,0,0,0,2,1.51,5.69,5.69,0,0,0,2.51.56,7.26,7.26,0,0,0,5.58-2.91v-1.5h-4.29v-3h7.71v11h-3.42Z" transform="translate(-262 -56)"/><path class="cls-2" d="M954,585.53l5.25,10.26,5.34-10.26H969l-7.74,13.86v7.44h-4.11v-7.5l-7.71-13.8Z" transform="translate(-262 -56)"/><path class="cls-2" d="M987.3,589.16h-6.81v17.67h-4.11V589.16h-6.81v-3.63H987.3Z" transform="translate(-262 -56)"/><path class="cls-2" d="M998,607a9.69,9.69,0,0,1-4.25-.91,10.44,10.44,0,0,1-3.27-2.43,11.27,11.27,0,0,1-2.87-7.46,10.7,10.7,0,0,1,.79-4.08,11.26,11.26,0,0,1,2.19-3.45,10.47,10.47,0,0,1,3.31-2.38,9.84,9.84,0,0,1,4.17-.88,9.36,9.36,0,0,1,4.22.95,10.54,10.54,0,0,1,3.25,2.47,11.42,11.42,0,0,1,2.1,3.48,11,11,0,0,1,.75,4,10.77,10.77,0,0,1-.78,4.07,11,11,0,0,1-2.16,3.42,10.39,10.39,0,0,1-3.3,2.37A9.84,9.84,0,0,1,998,607Zm-6.18-10.8a8.56,8.56,0,0,0,.42,2.67,7.13,7.13,0,0,0,1.21,2.28,6,6,0,0,0,2,1.59,6,6,0,0,0,5.28,0,6,6,0,0,0,1.95-1.63,7.26,7.26,0,0,0,1.2-2.3,8.5,8.5,0,0,0,.41-2.59,8.32,8.32,0,0,0-.43-2.67,7.4,7.4,0,0,0-1.23-2.28,5.88,5.88,0,0,0-2-1.57,6.08,6.08,0,0,0-5.26,0,5.92,5.92,0,0,0-2,1.62,7.25,7.25,0,0,0-1.18,2.28A8.51,8.51,0,0,0,991.86,596.18Z" transform="translate(-262 -56)"/><path class="cls-2" d="M1011.63,606.83V585.55h4.14v10.11l8.94-10.14h4.56l-8.16,9.45,8.67,11.85h-4.65l-6.63-9.21-2.73,2.85v6.36Z" transform="translate(-262 -56)"/><path class="cls-2" d="M1046.49,603.2v3.63H1031.7v-21.3h14.52v3.63h-10.38v5.13h9v3.36h-9v5.55Z" transform="translate(-262 -56)"/><path class="cls-2" d="M1053.87,593.18v13.65h-4.14v-21.3h3.21l11.1,14v-14h4.14v21.27h-3.36Z" transform="translate(-262 -56)"/><path class="cls-3" d="M1306,153.2a1.35,1.35,0,0,1-1.37,1.23h-25c.69,6.17,5.21,11.79,11.79,11.79a11.55,11.55,0,0,0,10.28-5.21,1.4,1.4,0,0,1,1.1-.69,1.23,1.23,0,0,1,1.23,1.23c0,.27-.14.41-.14.69-2.47,4.39-7.54,6.58-12.48,6.58-8.36,0-14.4-7.54-14.4-15.63s6-15.63,14.4-15.63S1306,145.25,1306,153.2m-2.61-1.23c-.55-6.17-5.21-11.79-11.79-11.79s-11.24,5.62-11.79,11.79Zm26.32-13.57v-9.6a1.23,1.23,0,1,0-2.47,0v9.6h-6.44a1.33,1.33,0,0,0-1.23,1.23,1.23,1.23,0,0,0,1.23,1.23h6.44v26.32a1.23,1.23,0,0,0,1.23,1.23,1.33,1.33,0,0,0,1.23-1.23V140.86h6.72a1.23,1.23,0,0,0,0-2.47ZM1377.26,151c0-6.86-4.25-13.3-11.52-13.3a11.82,11.82,0,0,0-10.42,6.44V114.54a1.23,1.23,0,0,0-1.23-1.23,1.33,1.33,0,0,0-1.23,1.23v52.37a1.23,1.23,0,0,0,2.47,0V155c0-.14-.14-1-.14-1.1-.41-6.86,2.88-13.57,10.56-13.57,6,0,9,5.35,9,10.69v15.9a1.23,1.23,0,0,0,2.47,0V151m44.7,2.19a1.35,1.35,0,0,1-1.37,1.23h-25c.69,6.17,5.21,11.79,11.79,11.79a11.55,11.55,0,0,0,10.28-5.21,1.4,1.4,0,0,1,1.1-.69,1.23,1.23,0,0,1,1.23,1.23c0,.27-.14.41-.14.69-2.47,4.39-7.54,6.58-12.48,6.58-8.36,0-14.4-7.54-14.4-15.63s6-15.63,14.4-15.63S1422,145.25,1422,153.2m-2.61-1.23c-.55-6.17-5.21-11.79-11.79-11.79s-11.24,5.62-11.79,11.79Zm33.32-12.48a1.25,1.25,0,0,0-1.37-1.1c-4.25,0-8.36,3.29-10.42,6.86v-5.48a1.23,1.23,0,1,0-2.47,0V167a1.23,1.23,0,0,0,2.47,0V155.12c0-7,3.29-13,10.69-14a1.78,1.78,0,0,0,1.1-1.65m41.13,13.71a1.35,1.35,0,0,1-1.37,1.23h-25c.69,6.17,5.21,11.79,11.79,11.79a11.55,11.55,0,0,0,10.28-5.21,1.4,1.4,0,0,1,1.1-.69,1.23,1.23,0,0,1,1.23,1.23c0,.27-.14.41-.14.69-2.47,4.39-7.54,6.58-12.48,6.58-8.36,0-14.4-7.54-14.4-15.63s6-15.63,14.4-15.63,14.53,7.68,14.53,15.63m-2.74-1.23c-.55-6.17-5.21-11.79-11.79-11.79S1468,145.8,1467.48,152Zm43.05-12.2a1.23,1.23,0,1,0-2.47,0v10.15c0,8.64-1.92,16.59-10.42,16.59-6,0-9-5.35-9-10.69v-16a1.23,1.23,0,0,0-1.23-1.23,1.33,1.33,0,0,0-1.23,1.23v16c0,6.86,4.11,13.3,11.52,13.3,4.66,0,8.36-3,10.42-7.13v5.21a1.23,1.23,0,0,0,2.47,0V139.76M1597.32,151c0-6.86-4.25-13.16-11.52-13.16-5.21,0-9.19,3.29-11.24,8-1.65-4.8-5.48-8-10.69-8a11.69,11.69,0,0,0-10.42,6.31v-4.52a1.23,1.23,0,1,0-2.47,0V167a1.23,1.23,0,0,0,2.47,0V155c.14-.14,0-.41,0-.69-.27-8,2.88-14,10.42-14,6,0,9,5.21,9,10.69v16a1.23,1.23,0,0,0,2.47,0V154.71c0-6.31,2.88-14.26,10.42-14.26,6,0,9,5.21,9,10.69v16a1.23,1.23,0,0,0,2.47,0V151m-380.2-56.35L1186,146.35l31.12,18.37,31.12-18.37Zm.82,76-31.12-18.37,31.12,43.87,31.12-43.87Z" transform="translate(-262 -56)"/><rect class="cls-4" x="1.5" y="1.5" width="1370" height="782" rx="40.1" ry="40.1"/><path class="cls-2" d="M918.44,947V932.9l-5.49,10.5H910.7l-5.49-10.5V947h-4.14V925.7h4.44l6.3,12.12,6.36-12.12h4.41V947Z" transform="translate(-262 -56)"/><path class="cls-2" d="M933.08,925.7h3.66l8.1,21.3h-4.26l-2-5.31h-7.44L929.21,947h-4.26Zm4.77,13.08-2.94-8.37-3.06,8.37Z" transform="translate(-262 -56)"/><path class="cls-2" d="M947.18,947V925.7h9.42a6,6,0,0,1,2.71.62,7,7,0,0,1,2.15,1.62,7.67,7.67,0,0,1,1.41,2.28,6.86,6.86,0,0,1,.51,2.57,7.08,7.08,0,0,1-1,3.76,5.94,5.94,0,0,1-2.8,2.45l4.86,8h-4.65l-4.35-7.14h-4.08V947Zm4.14-10.77h5.19a2.2,2.2,0,0,0,1.07-.27,2.72,2.72,0,0,0,.85-.74,3.67,3.67,0,0,0,.57-1.09,4.25,4.25,0,0,0,.21-1.35,3.84,3.84,0,0,0-.24-1.38,3.62,3.62,0,0,0-.64-1.1,2.93,2.93,0,0,0-.93-.72,2.42,2.42,0,0,0-1.06-.25h-5Z" transform="translate(-262 -56)"/><path class="cls-2" d="M967.13,947V925.73h4.14v10.11l8.94-10.14h4.56l-8.16,9.45L985.28,947h-4.65L974,937.79l-2.73,2.85V947Z" transform="translate(-262 -56)"/><path class="cls-2" d="M1002,943.37V947H987.19V925.7h14.52v3.63H991.33v5.13h9v3.36h-9v5.55Z" transform="translate(-262 -56)"/><path class="cls-2" d="M1021.16,929.33h-6.81V947h-4.11V929.33h-6.81V925.7h17.73Z" transform="translate(-262 -56)"/><path class="cls-2" d="M654.51,787.82v-21.3h9a6,6,0,0,1,2.71.62,7,7,0,0,1,2.14,1.62,7.65,7.65,0,0,1,1.41,2.28,6.87,6.87,0,0,1,.51,2.57,7.4,7.4,0,0,1-.48,2.63,7.32,7.32,0,0,1-1.35,2.26,6.63,6.63,0,0,1-2.1,1.59,6.07,6.07,0,0,1-2.7.6h-5v7.14ZM658.65,777h4.8a2.37,2.37,0,0,0,1.9-.93,3.84,3.84,0,0,0,.77-2.52,4.15,4.15,0,0,0-.24-1.46,3.56,3.56,0,0,0-.63-1.1,2.52,2.52,0,0,0-.92-.67,2.68,2.68,0,0,0-1.07-.23h-4.62Z" transform="translate(-262 -56)"/><path class="cls-2" d="M682.17,775.58a7.93,7.93,0,0,0-3.27.71,4.13,4.13,0,0,0-2.07,2v9.51h-4V772.1h3.69v3.36a7.23,7.23,0,0,1,1-1.46,7.64,7.64,0,0,1,1.23-1.12,5.71,5.71,0,0,1,1.33-.73,3.68,3.68,0,0,1,1.3-.26h.5a1.56,1.56,0,0,1,.31,0Z" transform="translate(-262 -56)"/><path class="cls-2" d="M690.9,788.12a8.64,8.64,0,0,1-3.45-.66,7.74,7.74,0,0,1-2.6-1.79,7.87,7.87,0,0,1-1.63-2.59,8.47,8.47,0,0,1-.57-3.09,8.56,8.56,0,0,1,.57-3.12,7.88,7.88,0,0,1,1.63-2.59,7.75,7.75,0,0,1,2.6-1.79,8.64,8.64,0,0,1,3.45-.66,8.53,8.53,0,0,1,3.44.66,7.8,7.8,0,0,1,2.58,1.79,7.9,7.9,0,0,1,1.63,2.59,8.56,8.56,0,0,1,.57,3.12,8.47,8.47,0,0,1-.57,3.09,8,8,0,0,1-1.62,2.59,7.58,7.58,0,0,1-2.58,1.79A8.64,8.64,0,0,1,690.9,788.12ZM686.79,780a5.48,5.48,0,0,0,.31,1.91,4.64,4.64,0,0,0,.87,1.48,3.88,3.88,0,0,0,1.31,1,4,4,0,0,0,3.24,0,3.9,3.9,0,0,0,1.31-1,4.63,4.63,0,0,0,.87-1.5A5.58,5.58,0,0,0,695,780a5.49,5.49,0,0,0-.32-1.89,4.63,4.63,0,0,0-.87-1.5,3.91,3.91,0,0,0-1.31-1,3.85,3.85,0,0,0-1.62-.34,3.68,3.68,0,0,0-1.62.36,4.07,4.07,0,0,0-1.31,1,4.62,4.62,0,0,0-.87,1.5A5.51,5.51,0,0,0,686.79,780Z" transform="translate(-262 -56)"/><path class="cls-2" d="M708.33,788.12a7.1,7.1,0,0,1-5.37-2.37,8.13,8.13,0,0,1-1.54-2.6,9.05,9.05,0,0,1-.55-3.2,9.4,9.4,0,0,1,.52-3.18,8.34,8.34,0,0,1,1.46-2.58,6.71,6.71,0,0,1,2.22-1.74,6.34,6.34,0,0,1,2.82-.63,6,6,0,0,1,3.13.84,6.08,6.08,0,0,1,2.18,2.19v-8.94h4V783.2a1.49,1.49,0,0,0,.21.9.93.93,0,0,0,.72.3v3.42a9.14,9.14,0,0,1-1.71.21,2.78,2.78,0,0,1-1.77-.54,2,2,0,0,1-.78-1.41l-.09-1a5.71,5.71,0,0,1-2.36,2.26A6.69,6.69,0,0,1,708.33,788.12Zm1-3.42a3.75,3.75,0,0,0,1.17-.2,4.09,4.09,0,0,0,1.11-.55,4.88,4.88,0,0,0,.92-.84,3.52,3.52,0,0,0,.62-1v-3.75a4.43,4.43,0,0,0-.68-1.22,5,5,0,0,0-1-1,5.2,5.2,0,0,0-1.17-.65,3.34,3.34,0,0,0-1.22-.24,3.63,3.63,0,0,0-1.67.39,4,4,0,0,0-1.3,1.07,5.1,5.1,0,0,0-.84,1.55,5.48,5.48,0,0,0-.3,1.8,4.94,4.94,0,0,0,.33,1.83,4.76,4.76,0,0,0,.9,1.47,4.1,4.1,0,0,0,1.37,1A4.21,4.21,0,0,0,709.38,784.7Z" transform="translate(-262 -56)"/><path class="cls-2" d="M726,788.12a4.46,4.46,0,0,1-3.69-1.56,7.23,7.23,0,0,1-1.26-4.62V772.1h4v9q0,3.63,2.61,3.63a4.13,4.13,0,0,0,2.26-.71,5.07,5.07,0,0,0,1.79-2.14V772.1h4v11.1a1.41,1.41,0,0,0,.23.9,1,1,0,0,0,.73.3v3.42a8.56,8.56,0,0,1-1,.15l-.73,0a2.89,2.89,0,0,1-1.75-.5,2,2,0,0,1-.8-1.37l-.09-1.26a6.7,6.7,0,0,1-2.7,2.43A8.12,8.12,0,0,1,726,788.12Z" transform="translate(-262 -56)"/><path class="cls-2" d="M738.72,780a8.53,8.53,0,0,1,.57-3.12,7.58,7.58,0,0,1,1.65-2.58,8,8,0,0,1,2.61-1.77,8.64,8.64,0,0,1,3.45-.66,8.26,8.26,0,0,1,4.39,1.11,7.09,7.09,0,0,1,2.71,2.91l-3.93,1.2a3.54,3.54,0,0,0-1.35-1.33,3.77,3.77,0,0,0-1.86-.46,3.85,3.85,0,0,0-1.62.34,4,4,0,0,0-1.3,1,4.44,4.44,0,0,0-.87,1.48,5.61,5.61,0,0,0-.32,1.92,5.38,5.38,0,0,0,.33,1.92,4.83,4.83,0,0,0,.88,1.5,3.89,3.89,0,0,0,1.31,1,3.76,3.76,0,0,0,1.59.34,3.85,3.85,0,0,0,2-.54,3,3,0,0,0,1.27-1.32l3.93,1.2A6.61,6.61,0,0,1,751.5,787a8.39,8.39,0,0,1-4.47,1.14,8.63,8.63,0,0,1-3.45-.66,7.82,7.82,0,0,1-4.28-4.39A8.41,8.41,0,0,1,738.72,780Z" transform="translate(-262 -56)"/><path class="cls-2" d="M763.77,788.12a8.72,8.72,0,0,1-3.42-.64,7.72,7.72,0,0,1-4.28-4.34,8.28,8.28,0,0,1-.58-3.09,8.74,8.74,0,0,1,.57-3.16,7.71,7.71,0,0,1,1.65-2.61,7.88,7.88,0,0,1,2.63-1.79,8.75,8.75,0,0,1,3.46-.66,8.53,8.53,0,0,1,3.44.66,7.91,7.91,0,0,1,2.58,1.77,7.55,7.55,0,0,1,1.62,2.58,8.61,8.61,0,0,1,.55,3.06c0,.26,0,.51,0,.75a3.12,3.12,0,0,1-.08.6H759.75a4.67,4.67,0,0,0,.45,1.65,4.08,4.08,0,0,0,.93,1.23,4,4,0,0,0,1.29.78,4.22,4.22,0,0,0,1.5.27,4.63,4.63,0,0,0,2.27-.59,3.1,3.1,0,0,0,1.46-1.54l3.45,1a7,7,0,0,1-2.77,3A8.61,8.61,0,0,1,763.77,788.12Zm4.08-9.48a4.18,4.18,0,0,0-1.31-2.83,4.1,4.1,0,0,0-5.56,0,4.14,4.14,0,0,0-.89,1.23,4.35,4.35,0,0,0-.4,1.59Z" transform="translate(-262 -56)"/><path class="cls-2" d="M783.81,775.58a7.93,7.93,0,0,0-3.27.71,4.13,4.13,0,0,0-2.07,2v9.51h-4V772.1h3.69v3.36a7.23,7.23,0,0,1,1-1.46,7.64,7.64,0,0,1,1.23-1.12,5.71,5.71,0,0,1,1.33-.73,3.68,3.68,0,0,1,1.3-.26h.5a1.56,1.56,0,0,1,.31,0Z" transform="translate(-262 -56)"/><path class="cls-2" d="M830.19,752a4,4,0,0,1-1.42-.25,3.42,3.42,0,0,1-1.14-.7,3.27,3.27,0,0,1-.75-1,3.19,3.19,0,0,1-.27-1.32,2.9,2.9,0,0,1,.33-1.37,3.13,3.13,0,0,1,.92-1.07,4.57,4.57,0,0,1,1.41-.69,6.13,6.13,0,0,1,1.8-.25,7.75,7.75,0,0,1,1.37.12,5.6,5.6,0,0,1,1.19.34v-.6a2.1,2.1,0,0,0-.59-1.6,2.45,2.45,0,0,0-1.75-.56,4.63,4.63,0,0,0-1.64.3,7.62,7.62,0,0,0-1.64.88l-.82-1.7a7.74,7.74,0,0,1,4.36-1.34,5.11,5.11,0,0,1,3.51,1.11,4.07,4.07,0,0,1,1.25,3.21v3.26a1,1,0,0,0,.15.6.66.66,0,0,0,.49.2v2.28a6,6,0,0,1-1.18.14,1.79,1.79,0,0,1-1.17-.34,1.46,1.46,0,0,1-.51-.9l-.06-.58a4.63,4.63,0,0,1-1.7,1.4A4.88,4.88,0,0,1,830.19,752Zm.76-2a3.49,3.49,0,0,0,1.29-.24,2.35,2.35,0,0,0,1-.64,1,1,0,0,0,.44-.76v-1.2a6.63,6.63,0,0,0-1-.29,5.61,5.61,0,0,0-1.08-.11,2.87,2.87,0,0,0-1.7.47,1.41,1.41,0,0,0-.66,1.19,1.43,1.43,0,0,0,.52,1.13A1.89,1.89,0,0,0,831,750.06Z" transform="translate(-262 -56)"/><path class="cls-2" d="M838.79,737.21h2.68v11.24a1.32,1.32,0,0,0,.28.9,1,1,0,0,0,.8.32,2,2,0,0,0,.53-.08,3.49,3.49,0,0,0,.55-.2l.36,2a5.19,5.19,0,0,1-1.26.4,6.93,6.93,0,0,1-1.3.14,2.68,2.68,0,0,1-1.95-.67,2.54,2.54,0,0,1-.69-1.91Z" transform="translate(-262 -56)"/><path class="cls-2" d="M845.13,737.21h2.68v11.24a1.32,1.32,0,0,0,.28.9,1,1,0,0,0,.8.32,2,2,0,0,0,.53-.08,3.57,3.57,0,0,0,.55-.2l.36,2a5.16,5.16,0,0,1-1.26.4,6.91,6.91,0,0,1-1.3.14,2.69,2.69,0,0,1-2-.67,2.54,2.54,0,0,1-.69-1.91Z" transform="translate(-262 -56)"/><path class="cls-2" d="M856.33,752a5.74,5.74,0,0,1-2.3-.44,5.17,5.17,0,0,1-1.73-1.19,5.27,5.27,0,0,1-1.09-1.73,5.83,5.83,0,0,1,0-4.14,5.28,5.28,0,0,1,1.09-1.73A5.17,5.17,0,0,1,854,741.6a5.76,5.76,0,0,1,2.3-.44,5.68,5.68,0,0,1,2.29.44,5.18,5.18,0,0,1,1.72,1.19,5.26,5.26,0,0,1,1.09,1.73,5.83,5.83,0,0,1,0,4.14,5.36,5.36,0,0,1-1.08,1.73,5.05,5.05,0,0,1-1.72,1.19A5.74,5.74,0,0,1,856.33,752Zm-2.74-5.42a3.66,3.66,0,0,0,.21,1.27,3.12,3.12,0,0,0,.58,1,2.61,2.61,0,0,0,.87.65,2.66,2.66,0,0,0,2.16,0,2.61,2.61,0,0,0,.87-.65,3.09,3.09,0,0,0,.58-1,3.74,3.74,0,0,0,.21-1.28,3.68,3.68,0,0,0-.21-1.26,3.09,3.09,0,0,0-.58-1,2.58,2.58,0,0,0-.87-.65,2.54,2.54,0,0,0-1.08-.23,2.46,2.46,0,0,0-1.08.24,2.72,2.72,0,0,0-.87.66,3.09,3.09,0,0,0-.58,1A3.68,3.68,0,0,0,853.59,746.6Z" transform="translate(-262 -56)"/><path class="cls-2" d="M876.23,741.34h2.54l-4.38,10.48h-2.2l-1.8-4.6-1.78,4.6h-2.2L862,741.34h2.52l3.12,8,1.28-3.4-1.84-4.54h2.16l1.1,3.22,1.12-3.22h2.16l-1.82,4.54,1.26,3.4Z" transform="translate(-262 -56)"/><path class="cls-2" d="M883.71,752a8.13,8.13,0,0,1-2.58-.42,6.3,6.3,0,0,1-2.16-1.2l1-1.68a8.66,8.66,0,0,0,1.87,1,5,5,0,0,0,1.81.35,2.28,2.28,0,0,0,1.26-.3,1,1,0,0,0,.46-.86.86.86,0,0,0-.54-.82,11.76,11.76,0,0,0-1.76-.6q-1-.28-1.74-.54a4.42,4.42,0,0,1-1.16-.59,2,2,0,0,1-.64-.76,2.41,2.41,0,0,1-.2-1,3.27,3.27,0,0,1,.31-1.44,3.14,3.14,0,0,1,.87-1.09,4,4,0,0,1,1.31-.69,5.32,5.32,0,0,1,1.63-.24,7,7,0,0,1,2.21.34,5.38,5.38,0,0,1,1.89,1.1l-1.08,1.62a6.25,6.25,0,0,0-1.55-.88,4.24,4.24,0,0,0-1.49-.28,2.16,2.16,0,0,0-1.14.28,1,1,0,0,0-.46.9.86.86,0,0,0,.11.46,1,1,0,0,0,.35.32,3.49,3.49,0,0,0,.63.27q.39.13,1,.27,1.08.28,1.85.56a5.07,5.07,0,0,1,1.26.64,2.28,2.28,0,0,1,.72.83,2.55,2.55,0,0,1,.23,1.13,2.91,2.91,0,0,1-1.14,2.43A4.91,4.91,0,0,1,883.71,752Z" transform="translate(-262 -56)"/><path class="cls-2" d="M820.94,776a4.12,4.12,0,0,1-2.16-.55,3.91,3.91,0,0,1-1.44-1.49v6.1h-2.68V765.34H817v1.8a4.29,4.29,0,0,1,1.5-1.45,4.17,4.17,0,0,1,2.12-.53,4.48,4.48,0,0,1,2,.43,4.83,4.83,0,0,1,1.55,1.16,5.4,5.4,0,0,1,1,1.72,5.94,5.94,0,0,1,.37,2.09,6.6,6.6,0,0,1-.34,2.14,5.5,5.5,0,0,1-1,1.74,4.45,4.45,0,0,1-1.45,1.16A4.07,4.07,0,0,1,820.94,776Zm-.9-2.28a2.41,2.41,0,0,0,1.11-.26,2.69,2.69,0,0,0,.87-.7,3.3,3.3,0,0,0,.56-1,3.67,3.67,0,0,0,.2-1.2,3.39,3.39,0,0,0-.22-1.23,3.06,3.06,0,0,0-.61-1,2.84,2.84,0,0,0-.92-.66,2.76,2.76,0,0,0-1.15-.24,2.51,2.51,0,0,0-.78.13,2.74,2.74,0,0,0-.74.37,3.26,3.26,0,0,0-.61.56,2.34,2.34,0,0,0-.41.7v2.46a3.56,3.56,0,0,0,1.1,1.49A2.51,2.51,0,0,0,820,773.74Z" transform="translate(-262 -56)"/><path class="cls-2" d="M833.58,767.66a5.3,5.3,0,0,0-2.18.47,2.76,2.76,0,0,0-1.38,1.35v6.34h-2.68V765.34h2.46v2.24a4.75,4.75,0,0,1,.66-1,5,5,0,0,1,.82-.75,3.81,3.81,0,0,1,.89-.49,2.46,2.46,0,0,1,.87-.17h.33l.21,0Z" transform="translate(-262 -56)"/><path class="cls-2" d="M839.4,776a5.75,5.75,0,0,1-2.3-.44,5.16,5.16,0,0,1-1.73-1.19,5.24,5.24,0,0,1-1.09-1.73,5.83,5.83,0,0,1,0-4.14,5.24,5.24,0,0,1,1.09-1.73,5.15,5.15,0,0,1,1.73-1.19,5.76,5.76,0,0,1,2.3-.44,5.69,5.69,0,0,1,2.29.44,5.19,5.19,0,0,1,1.72,1.19,5.26,5.26,0,0,1,1.09,1.73,5.83,5.83,0,0,1,0,4.14,5.33,5.33,0,0,1-1.08,1.73,5.06,5.06,0,0,1-1.72,1.19A5.74,5.74,0,0,1,839.4,776Zm-2.74-5.42a3.66,3.66,0,0,0,.21,1.27,3.08,3.08,0,0,0,.58,1,2.59,2.59,0,0,0,3.9,0,3.07,3.07,0,0,0,.58-1,3.72,3.72,0,0,0,.21-1.28,3.66,3.66,0,0,0-.21-1.26,3.07,3.07,0,0,0-.58-1,2.57,2.57,0,0,0-.87-.65,2.54,2.54,0,0,0-1.08-.23,2.46,2.46,0,0,0-1.08.24,2.7,2.7,0,0,0-.87.66,3.06,3.06,0,0,0-.58,1A3.68,3.68,0,0,0,836.66,770.6Z" transform="translate(-262 -56)"/><path class="cls-2" d="M851,776a4.73,4.73,0,0,1-3.58-1.58,5.42,5.42,0,0,1-1-1.73,6,6,0,0,1-.37-2.13,6.26,6.26,0,0,1,.35-2.12,5.58,5.58,0,0,1,1-1.72,4.48,4.48,0,0,1,1.48-1.16,4.22,4.22,0,0,1,1.88-.42,4,4,0,0,1,2.09.56,4.06,4.06,0,0,1,1.45,1.46v-6h2.68v11.52a1,1,0,0,0,.14.6.62.62,0,0,0,.48.2v2.28a6.12,6.12,0,0,1-1.14.14,1.86,1.86,0,0,1-1.18-.36,1.32,1.32,0,0,1-.52-.94l-.06-.66a3.81,3.81,0,0,1-1.57,1.51A4.47,4.47,0,0,1,851,776Zm.7-2.28a2.52,2.52,0,0,0,.78-.13,2.72,2.72,0,0,0,.74-.37,3.25,3.25,0,0,0,.61-.56,2.34,2.34,0,0,0,.41-.7v-2.5a2.9,2.9,0,0,0-.45-.81,3.3,3.3,0,0,0-.66-.64,3.45,3.45,0,0,0-.78-.43,2.2,2.2,0,0,0-.81-.16,2.41,2.41,0,0,0-1.11.26,2.63,2.63,0,0,0-.87.71,3.42,3.42,0,0,0-.56,1,3.67,3.67,0,0,0-.2,1.2,3.29,3.29,0,0,0,.22,1.22,3.19,3.19,0,0,0,.6,1,2.74,2.74,0,0,0,.91.66A2.82,2.82,0,0,0,851.72,773.74Z" transform="translate(-262 -56)"/><path class="cls-2" d="M862.78,776a3,3,0,0,1-2.46-1,4.82,4.82,0,0,1-.84-3.08v-6.56h2.68v6q0,2.42,1.74,2.42a2.75,2.75,0,0,0,1.51-.47,3.38,3.38,0,0,0,1.19-1.43v-6.5h2.68v7.4a1,1,0,0,0,.15.6.66.66,0,0,0,.49.2v2.28a5.71,5.71,0,0,1-.67.1l-.49,0a1.93,1.93,0,0,1-1.17-.33,1.3,1.3,0,0,1-.53-.91l-.06-.84a4.47,4.47,0,0,1-1.8,1.62A5.41,5.41,0,0,1,862.78,776Z" transform="translate(-262 -56)"/><path class="cls-2" d="M871.28,770.58a5.7,5.7,0,0,1,.38-2.08,5.07,5.07,0,0,1,1.1-1.72,5.34,5.34,0,0,1,1.74-1.18,5.76,5.76,0,0,1,2.3-.44,5.51,5.51,0,0,1,2.93.74,4.72,4.72,0,0,1,1.81,1.94l-2.62.8a2.36,2.36,0,0,0-.9-.89,2.64,2.64,0,0,0-2.32-.08,2.65,2.65,0,0,0-.87.64,3,3,0,0,0-.58,1,3.75,3.75,0,0,0-.21,1.28,3.56,3.56,0,0,0,.22,1.28,3.22,3.22,0,0,0,.59,1,2.59,2.59,0,0,0,.87.65,2.52,2.52,0,0,0,1.06.23,2.57,2.57,0,0,0,1.33-.36,2,2,0,0,0,.85-.88l2.62.8a4.4,4.4,0,0,1-1.78,2,5.6,5.6,0,0,1-3,.76,5.74,5.74,0,0,1-2.3-.44,5.21,5.21,0,0,1-2.85-2.93A5.59,5.59,0,0,1,871.28,770.58Z" transform="translate(-262 -56)"/><path class="cls-2" d="M888,776a5.83,5.83,0,0,1-2.28-.43,5.14,5.14,0,0,1-2.85-2.89,5.52,5.52,0,0,1-.39-2.06,5.82,5.82,0,0,1,.38-2.11,5.15,5.15,0,0,1,1.1-1.74,5.25,5.25,0,0,1,1.75-1.19,5.83,5.83,0,0,1,2.31-.44,5.69,5.69,0,0,1,2.29.44,5.27,5.27,0,0,1,1.72,1.18,5,5,0,0,1,1.08,1.72,5.73,5.73,0,0,1,.37,2c0,.17,0,.34,0,.5a2.07,2.07,0,0,1,0,.4h-8.1a3.11,3.11,0,0,0,.3,1.1,2.71,2.71,0,0,0,.62.82,2.68,2.68,0,0,0,.86.52,2.79,2.79,0,0,0,1,.18,3.09,3.09,0,0,0,1.51-.39,2.07,2.07,0,0,0,1-1l2.3.64a4.68,4.68,0,0,1-1.85,2A5.74,5.74,0,0,1,888,776Zm2.72-6.32a2.79,2.79,0,0,0-.87-1.89,2.81,2.81,0,0,0-2.88-.52,2.63,2.63,0,0,0-.83.53,2.76,2.76,0,0,0-.59.82,2.89,2.89,0,0,0-.27,1.06Z" transform="translate(-262 -56)"/><path class="cls-2" d="M901.34,767.66a5.3,5.3,0,0,0-2.18.47,2.76,2.76,0,0,0-1.38,1.35v6.34H895.1V765.34h2.46v2.24a4.75,4.75,0,0,1,.66-1,5,5,0,0,1,.82-.75,3.81,3.81,0,0,1,.89-.49,2.46,2.46,0,0,1,.87-.17h.33l.21,0Z" transform="translate(-262 -56)"/><path class="cls-2" d="M930,809.18v-3.66l21.3-8.1v4.26l-5.31,2v7.44l5.31,2v4.26Zm13.08-4.77-8.37,2.94,8.37,3.06Z" transform="translate(-262 -56)"/><path class="cls-2" d="M929.39,795.5v-4h16.86a2,2,0,0,0,1.35-.42,1.51,1.51,0,0,0,.48-1.2,3,3,0,0,0-.12-.79,5.33,5.33,0,0,0-.3-.83l3.06-.54a7.76,7.76,0,0,1,.6,1.89,10.3,10.3,0,0,1,.21,2,4,4,0,0,1-1,2.92,3.81,3.81,0,0,1-2.86,1Z" transform="translate(-262 -56)"/><path class="cls-2" d="M929.39,786v-4h16.86a2,2,0,0,0,1.35-.42,1.51,1.51,0,0,0,.48-1.2,3,3,0,0,0-.12-.79,5.33,5.33,0,0,0-.3-.83l3.06-.54a7.76,7.76,0,0,1,.6,1.89,10.3,10.3,0,0,1,.21,2,4,4,0,0,1-1,2.92,3.81,3.81,0,0,1-2.86,1Z" transform="translate(-262 -56)"/><path class="cls-2" d="M951.59,769.2a8.64,8.64,0,0,1-.66,3.45,7.75,7.75,0,0,1-1.79,2.6,7.86,7.86,0,0,1-2.6,1.63,8.45,8.45,0,0,1-3.09.57,8.54,8.54,0,0,1-3.12-.57,7.87,7.87,0,0,1-2.59-1.63,7.75,7.75,0,0,1-1.79-2.6,8.64,8.64,0,0,1-.66-3.45,8.54,8.54,0,0,1,.66-3.44,7.81,7.81,0,0,1,1.79-2.58,7.91,7.91,0,0,1,2.59-1.63,8.58,8.58,0,0,1,3.12-.57,8.49,8.49,0,0,1,3.09.57,8,8,0,0,1,2.6,1.62,7.58,7.58,0,0,1,1.79,2.58A8.64,8.64,0,0,1,951.59,769.2Zm-8.13,4.11a5.48,5.48,0,0,0,1.91-.31,4.65,4.65,0,0,0,1.48-.87,3.88,3.88,0,0,0,1-1.31,4,4,0,0,0,0-3.24,3.91,3.91,0,0,0-1-1.31,4.63,4.63,0,0,0-1.5-.87,5.58,5.58,0,0,0-1.92-.32,5.49,5.49,0,0,0-1.89.32,4.63,4.63,0,0,0-1.5.87,3.92,3.92,0,0,0-1,1.31,3.84,3.84,0,0,0-.34,1.62,3.68,3.68,0,0,0,.36,1.62,4.06,4.06,0,0,0,1,1.31,4.63,4.63,0,0,0,1.5.87A5.52,5.52,0,0,0,943.46,773.3Z" transform="translate(-262 -56)"/><path class="cls-2" d="M935.57,739.35v-3.81l15.72,6.57v3.3l-6.9,2.7,6.9,2.67v3.3l-15.72,6.54v-3.78l11.94-4.68-5.1-1.92L935.6,753v-3.24l4.83-1.65-4.83-1.68v-3.24l6.81,2.73,5.1-1.89Z" transform="translate(-262 -56)"/><path class="cls-2" d="M1121.22,777a11,11,0,0,1,.71-3.86,10.34,10.34,0,0,1,5.36-5.83,10.19,10.19,0,0,1,4.44-.93,9.69,9.69,0,0,1,5.08,1.29A8.24,8.24,0,0,1,1140,771l-3.18,2.19a5.45,5.45,0,0,0-1-1.51,5.09,5.09,0,0,0-1.29-1,5.76,5.76,0,0,0-1.44-.53,6.86,6.86,0,0,0-1.47-.17,5.58,5.58,0,0,0-2.71.63,6,6,0,0,0-1.92,1.63,7.2,7.2,0,0,0-1.16,2.28,8.64,8.64,0,0,0-.39,2.53,8.25,8.25,0,0,0,.45,2.72,7.22,7.22,0,0,0,1.27,2.29,6.36,6.36,0,0,0,2,1.59,5.41,5.41,0,0,0,2.54.6,6.67,6.67,0,0,0,1.5-.18,5.71,5.71,0,0,0,1.48-.57,5.64,5.64,0,0,0,1.31-1,4.64,4.64,0,0,0,1-1.48l3.39,1.95a6.39,6.39,0,0,1-1.46,2.12,9.34,9.34,0,0,1-2.13,1.54,10.91,10.91,0,0,1-2.54,1,11.16,11.16,0,0,1-2.64.33,9.06,9.06,0,0,1-4.17-1,10.83,10.83,0,0,1-3.25-2.5A11.63,11.63,0,0,1,1122,781,11,11,0,0,1,1121.22,777Z" transform="translate(-262 -56)"/><path class="cls-2" d="M1150,788.12a8.64,8.64,0,0,1-3.45-.66,7.74,7.74,0,0,1-2.6-1.79,7.87,7.87,0,0,1-1.63-2.59,8.47,8.47,0,0,1-.57-3.09,8.56,8.56,0,0,1,.57-3.12,7.88,7.88,0,0,1,1.63-2.59,7.75,7.75,0,0,1,2.6-1.79,8.64,8.64,0,0,1,3.45-.66,8.53,8.53,0,0,1,3.44.66,7.8,7.8,0,0,1,2.58,1.79,7.9,7.9,0,0,1,1.63,2.59,8.56,8.56,0,0,1,.57,3.12,8.47,8.47,0,0,1-.57,3.09,8,8,0,0,1-1.62,2.59,7.58,7.58,0,0,1-2.58,1.79A8.64,8.64,0,0,1,1150,788.12Zm-4.11-8.13a5.48,5.48,0,0,0,.31,1.91,4.64,4.64,0,0,0,.87,1.48,3.88,3.88,0,0,0,1.31,1,4,4,0,0,0,3.24,0,3.9,3.9,0,0,0,1.31-1,4.63,4.63,0,0,0,.87-1.5,5.58,5.58,0,0,0,.32-1.92,5.49,5.49,0,0,0-.32-1.89,4.63,4.63,0,0,0-.87-1.5,3.91,3.91,0,0,0-1.31-1,3.85,3.85,0,0,0-1.62-.34,3.68,3.68,0,0,0-1.62.36,4.07,4.07,0,0,0-1.31,1,4.62,4.62,0,0,0-.87,1.5A5.51,5.51,0,0,0,1145.85,780Z" transform="translate(-262 -56)"/><path class="cls-2" d="M1175.49,787.82h-4V779a4.59,4.59,0,0,0-.66-2.76,2.17,2.17,0,0,0-1.83-.87,3.44,3.44,0,0,0-1.23.24,4.51,4.51,0,0,0-1.18.67,5.51,5.51,0,0,0-1,1,4.09,4.09,0,0,0-.66,1.32v9.18h-4V772.1h3.63V775a6,6,0,0,1,2.52-2.34,8.07,8.07,0,0,1,3.72-.84,4.75,4.75,0,0,1,2.4.54,3.91,3.91,0,0,1,1.44,1.41,5.9,5.9,0,0,1,.71,2,13,13,0,0,1,.2,2.25Z" transform="translate(-262 -56)"/><path class="cls-2" d="M1184.94,788.12a12.17,12.17,0,0,1-3.87-.63,9.44,9.44,0,0,1-3.24-1.8l1.5-2.52a12.91,12.91,0,0,0,2.8,1.54,7.53,7.53,0,0,0,2.71.52,3.42,3.42,0,0,0,1.89-.45,1.45,1.45,0,0,0,.69-1.29,1.29,1.29,0,0,0-.81-1.23,17.52,17.52,0,0,0-2.64-.9q-1.53-.42-2.61-.81a6.67,6.67,0,0,1-1.74-.89,3,3,0,0,1-1-1.14,3.63,3.63,0,0,1-.3-1.54,4.89,4.89,0,0,1,.46-2.16,4.7,4.7,0,0,1,1.3-1.63,6,6,0,0,1,2-1,8,8,0,0,1,2.45-.36,10.52,10.52,0,0,1,3.31.51,8.07,8.07,0,0,1,2.83,1.65l-1.62,2.43a9.45,9.45,0,0,0-2.33-1.32,6.35,6.35,0,0,0-2.24-.42,3.23,3.23,0,0,0-1.71.42,1.46,1.46,0,0,0-.69,1.35,1.3,1.3,0,0,0,.17.69,1.45,1.45,0,0,0,.52.48,5.14,5.14,0,0,0,.95.4q.58.2,1.46.41,1.62.42,2.77.84a7.6,7.6,0,0,1,1.89,1,3.43,3.43,0,0,1,1.08,1.25,3.83,3.83,0,0,1,.34,1.69,4.37,4.37,0,0,1-1.71,3.65A7.37,7.37,0,0,1,1184.94,788.12Z" transform="translate(-262 -56)"/><path class="cls-2" d="M1198.71,788.12a4.46,4.46,0,0,1-3.69-1.56,7.23,7.23,0,0,1-1.26-4.62V772.1h4v9q0,3.63,2.61,3.63a4.13,4.13,0,0,0,2.26-.71,5.07,5.07,0,0,0,1.79-2.14V772.1h4v11.1a1.41,1.41,0,0,0,.23.9,1,1,0,0,0,.73.3v3.42a8.56,8.56,0,0,1-1,.15l-.73,0a2.89,2.89,0,0,1-1.75-.5,2,2,0,0,1-.8-1.37l-.09-1.26a6.7,6.7,0,0,1-2.7,2.43A8.12,8.12,0,0,1,1198.71,788.12Z" transform="translate(-262 -56)"/><path class="cls-2" d="M1236.87,787.82h-4V779a4.68,4.68,0,0,0-.65-2.76,2.1,2.1,0,0,0-1.79-.87,3.37,3.37,0,0,0-2.25.92,5,5,0,0,0-1.5,2.39v9.15h-4V779a4.68,4.68,0,0,0-.65-2.76,2.1,2.1,0,0,0-1.78-.87,3.43,3.43,0,0,0-2.24.9,4.89,4.89,0,0,0-1.51,2.37v9.18h-4V772.1h3.63V775a6,6,0,0,1,2.39-2.36,7.12,7.12,0,0,1,3.46-.83,4.46,4.46,0,0,1,3.06,1,4.3,4.3,0,0,1,1.38,2.37,6.78,6.78,0,0,1,2.43-2.47,6.55,6.55,0,0,1,3.36-.86,4.68,4.68,0,0,1,2.37.54,3.91,3.91,0,0,1,1.44,1.41,5.92,5.92,0,0,1,.71,2,13,13,0,0,1,.19,2.25Z" transform="translate(-262 -56)"/><path class="cls-2" d="M1247.67,788.12a8.72,8.72,0,0,1-3.42-.64,7.72,7.72,0,0,1-4.28-4.34,8.28,8.28,0,0,1-.58-3.09,8.74,8.74,0,0,1,.57-3.16,7.71,7.71,0,0,1,1.65-2.61,7.88,7.88,0,0,1,2.63-1.79,8.75,8.75,0,0,1,3.46-.66,8.53,8.53,0,0,1,3.44.66,7.91,7.91,0,0,1,2.58,1.77,7.55,7.55,0,0,1,1.62,2.58,8.61,8.61,0,0,1,.55,3.06c0,.26,0,.51,0,.75a3.12,3.12,0,0,1-.08.6h-12.15a4.67,4.67,0,0,0,.45,1.65,4.08,4.08,0,0,0,.93,1.23,4,4,0,0,0,1.29.78,4.22,4.22,0,0,0,1.5.27,4.63,4.63,0,0,0,2.27-.59,3.1,3.1,0,0,0,1.46-1.54l3.45,1a7,7,0,0,1-2.77,3A8.61,8.61,0,0,1,1247.67,788.12Zm4.08-9.48a4.18,4.18,0,0,0-1.31-2.83,4.1,4.1,0,0,0-5.56,0A4.14,4.14,0,0,0,1244,777a4.35,4.35,0,0,0-.4,1.59Z" transform="translate(-262 -56)"/><path class="cls-2" d="M1267.71,775.58a7.93,7.93,0,0,0-3.27.71,4.13,4.13,0,0,0-2.07,2v9.51h-4V772.1H1262v3.36a7.23,7.23,0,0,1,1-1.46,7.64,7.64,0,0,1,1.23-1.12,5.71,5.71,0,0,1,1.33-.73,3.68,3.68,0,0,1,1.3-.26h.5a1.56,1.56,0,0,1,.31,0Z" transform="translate(-262 -56)"/><path class="cls-2" d="M710.82,509.83h-4v-4h4Zm17.91,0H713v-4h15.72Z" transform="translate(-262 -56)"/><path class="cls-2" d="M728.73,487.57v4h-8.82a4.6,4.6,0,0,0-2.76.66,2.17,2.17,0,0,0-.87,1.83,3.45,3.45,0,0,0,.24,1.23,4.53,4.53,0,0,0,.67,1.19,5.5,5.5,0,0,0,1,1,4.09,4.09,0,0,0,1.32.66h9.18v4H713v-3.63h2.91a6,6,0,0,1-2.34-2.52,8.09,8.09,0,0,1-.84-3.72,4.74,4.74,0,0,1,.54-2.4,3.91,3.91,0,0,1,1.41-1.44,5.92,5.92,0,0,1,2-.71,13,13,0,0,1,2.25-.19Z" transform="translate(-262 -56)"/><path class="cls-2" d="M728.73,483.25H716.91v2.07h-3.06v-2.07h-1a7.09,7.09,0,0,1-4.65-1.41,4.71,4.71,0,0,1-1.71-3.84,8.94,8.94,0,0,1,.93-3.87l3,.81a5.09,5.09,0,0,0-.4,1.06,4.38,4.38,0,0,0-.17,1.13q0,2.1,2.82,2.1h1.11v-3.84h3.06v3.84h11.82Z" transform="translate(-262 -56)"/><path class="cls-2" d="M729,466.63a8.64,8.64,0,0,1-.66,3.45,7.75,7.75,0,0,1-1.79,2.6,7.87,7.87,0,0,1-2.6,1.63,8.46,8.46,0,0,1-3.09.57,8.55,8.55,0,0,1-3.12-.57,7.87,7.87,0,0,1-2.59-1.63,7.76,7.76,0,0,1-1.79-2.6,8.64,8.64,0,0,1-.66-3.45,8.53,8.53,0,0,1,.66-3.44,7.8,7.8,0,0,1,1.79-2.58,7.9,7.9,0,0,1,2.59-1.64,8.57,8.57,0,0,1,3.12-.57A8.48,8.48,0,0,1,724,459a8,8,0,0,1,2.6,1.62,7.59,7.59,0,0,1,1.79,2.58A8.64,8.64,0,0,1,729,466.63Zm-8.13,4.11a5.48,5.48,0,0,0,1.91-.31,4.65,4.65,0,0,0,1.48-.87,3.88,3.88,0,0,0,1-1.31,4,4,0,0,0,0-3.24,3.9,3.9,0,0,0-1-1.31,4.63,4.63,0,0,0-1.5-.87,5.59,5.59,0,0,0-1.92-.32,5.5,5.5,0,0,0-1.89.32,4.63,4.63,0,0,0-1.5.87,3.91,3.91,0,0,0-1,1.31,3.84,3.84,0,0,0-.34,1.62,3.69,3.69,0,0,0,.36,1.62,4.06,4.06,0,0,0,1,1.31,4.63,4.63,0,0,0,1.5.87A5.52,5.52,0,0,0,720.9,470.74Z" transform="translate(-262 -56)"/><path class="cls-2" d="M706.83,448.54v-4h16.86a2,2,0,0,0,1.35-.42,1.51,1.51,0,0,0,.48-1.2,3,3,0,0,0-.12-.79,5.33,5.33,0,0,0-.3-.83l3.06-.54a7.77,7.77,0,0,1,.6,1.89,10.3,10.3,0,0,1,.21,2,4,4,0,0,1-1,2.92,3.81,3.81,0,0,1-2.86,1Z" transform="translate(-262 -56)"/><path class="cls-2" d="M729,431.75a8.64,8.64,0,0,1-.66,3.45,7.75,7.75,0,0,1-1.79,2.6,7.87,7.87,0,0,1-2.6,1.63,8.46,8.46,0,0,1-3.09.57,8.55,8.55,0,0,1-3.12-.57,7.87,7.87,0,0,1-2.59-1.63,7.76,7.76,0,0,1-1.79-2.6,8.64,8.64,0,0,1-.66-3.45,8.53,8.53,0,0,1,.66-3.44,7.8,7.8,0,0,1,1.79-2.58,7.9,7.9,0,0,1,2.59-1.64,8.57,8.57,0,0,1,3.12-.57,8.48,8.48,0,0,1,3.09.57,8,8,0,0,1,2.6,1.62,7.59,7.59,0,0,1,1.79,2.58A8.64,8.64,0,0,1,729,431.75Zm-8.13,4.11a5.48,5.48,0,0,0,1.91-.31,4.65,4.65,0,0,0,1.48-.87,3.88,3.88,0,0,0,1-1.31,4,4,0,0,0,0-3.24,3.9,3.9,0,0,0-1-1.31,4.63,4.63,0,0,0-1.5-.87,5.59,5.59,0,0,0-1.92-.32A5.5,5.5,0,0,0,719,428a4.63,4.63,0,0,0-1.5.87,3.91,3.91,0,0,0-1,1.31,3.84,3.84,0,0,0-.34,1.62,3.69,3.69,0,0,0,.36,1.62,4.06,4.06,0,0,0,1,1.31,4.63,4.63,0,0,0,1.5.87A5.52,5.52,0,0,0,720.9,435.85Z" transform="translate(-262 -56)"/><path class="cls-2" d="M729,414.89a12.17,12.17,0,0,1-.63,3.87,9.44,9.44,0,0,1-1.8,3.24l-2.52-1.5a12.89,12.89,0,0,0,1.54-2.8,7.52,7.52,0,0,0,.52-2.72,3.43,3.43,0,0,0-.45-1.89,1.45,1.45,0,0,0-1.29-.69,1.29,1.29,0,0,0-1.23.81,17.56,17.56,0,0,0-.9,2.64q-.42,1.53-.81,2.61a6.69,6.69,0,0,1-.89,1.74,3,3,0,0,1-1.14,1,3.63,3.63,0,0,1-1.54.3,4.89,4.89,0,0,1-2.16-.46,4.7,4.7,0,0,1-1.63-1.31,6,6,0,0,1-1-2,8,8,0,0,1-.36-2.44,10.52,10.52,0,0,1,.51-3.31,8.08,8.08,0,0,1,1.65-2.83l2.43,1.62a9.44,9.44,0,0,0-1.32,2.33,6.36,6.36,0,0,0-.42,2.23A3.23,3.23,0,0,0,716,417a1.46,1.46,0,0,0,1.35.69,1.3,1.3,0,0,0,.69-.17,1.44,1.44,0,0,0,.48-.52,5.09,5.09,0,0,0,.4-.94q.2-.59.41-1.46.42-1.62.84-2.77a7.58,7.58,0,0,1,1-1.89,3.43,3.43,0,0,1,1.25-1.08,3.83,3.83,0,0,1,1.69-.34,4.37,4.37,0,0,1,3.65,1.71A7.37,7.37,0,0,1,729,414.89Z" transform="translate(-262 -56)"/><path class="cls-2" d="M729,400a12.17,12.17,0,0,1-.63,3.87,9.44,9.44,0,0,1-1.8,3.24l-2.52-1.5a12.89,12.89,0,0,0,1.54-2.8,7.52,7.52,0,0,0,.52-2.72,3.43,3.43,0,0,0-.45-1.89,1.45,1.45,0,0,0-1.29-.69,1.29,1.29,0,0,0-1.23.81,17.56,17.56,0,0,0-.9,2.64q-.42,1.53-.81,2.61a6.69,6.69,0,0,1-.89,1.74,3,3,0,0,1-1.14,1,3.63,3.63,0,0,1-1.54.3,4.89,4.89,0,0,1-2.16-.46,4.7,4.7,0,0,1-1.63-1.31,6,6,0,0,1-1-2,8,8,0,0,1-.36-2.44,10.52,10.52,0,0,1,.51-3.31,8.08,8.08,0,0,1,1.65-2.83l2.43,1.62a9.44,9.44,0,0,0-1.32,2.33,6.36,6.36,0,0,0-.42,2.23,3.23,3.23,0,0,0,.42,1.71,1.46,1.46,0,0,0,1.35.69,1.3,1.3,0,0,0,.69-.17,1.44,1.44,0,0,0,.48-.52,5.09,5.09,0,0,0,.4-.94q.2-.59.41-1.46.42-1.62.84-2.77a7.58,7.58,0,0,1,1-1.89,3.43,3.43,0,0,1,1.25-1.08,3.83,3.83,0,0,1,1.69-.34,4.37,4.37,0,0,1,3.65,1.71A7.37,7.37,0,0,1,729,400Z" transform="translate(-262 -56)"/><path class="cls-2" d="M393.73,771.44v4h-8.82a4.6,4.6,0,0,0-2.76.66,2.17,2.17,0,0,0-.87,1.83,3.45,3.45,0,0,0,.24,1.23,4.54,4.54,0,0,0,.67,1.18,5.5,5.5,0,0,0,1,1,4.07,4.07,0,0,0,1.32.66h9.18v4H378v-3.63h2.91a6,6,0,0,1-2.34-2.52,8.09,8.09,0,0,1-.84-3.72,4.74,4.74,0,0,1,.54-2.4,3.91,3.91,0,0,1,1.41-1.44,5.9,5.9,0,0,1,2-.71,12.9,12.9,0,0,1,2.25-.2Z" transform="translate(-262 -56)"/><path class="cls-2" d="M394,763.64a6,6,0,0,1-.37,2.13,5.12,5.12,0,0,1-1,1.71,4.9,4.9,0,0,1-1.58,1.13,4.77,4.77,0,0,1-2,.4,4.36,4.36,0,0,1-2.05-.5,4.71,4.71,0,0,1-1.6-1.38,6.85,6.85,0,0,1-1-2.12,9.22,9.22,0,0,1-.37-2.7,11.64,11.64,0,0,1,.18-2.06,8.35,8.35,0,0,1,.51-1.78h-.9a3.15,3.15,0,0,0-2.4.88,3.68,3.68,0,0,0-.84,2.63,7,7,0,0,0,.45,2.46,11.42,11.42,0,0,0,1.32,2.46l-2.55,1.23a11.61,11.61,0,0,1-2-6.54,7.66,7.66,0,0,1,1.67-5.26,6.1,6.1,0,0,1,4.82-1.87h4.89a1.41,1.41,0,0,0,.9-.23,1,1,0,0,0,.3-.73h3.42a9,9,0,0,1,.21,1.77,2.68,2.68,0,0,1-.51,1.76,2.19,2.19,0,0,1-1.35.76l-.87.09a7,7,0,0,1,2.1,2.55A7.32,7.32,0,0,1,394,763.64Zm-2.94-1.14a5.24,5.24,0,0,0-.36-1.94,3.52,3.52,0,0,0-1-1.42,1.44,1.44,0,0,0-1.14-.66h-1.8a9.87,9.87,0,0,0-.44,1.56,8.43,8.43,0,0,0-.17,1.62,4.3,4.3,0,0,0,.71,2.55,2.12,2.12,0,0,0,1.79,1,2.15,2.15,0,0,0,1.69-.78A2.83,2.83,0,0,0,391.09,762.5Z" transform="translate(-262 -56)"/><path class="cls-2" d="M393.73,726.29v4h-8.82a4.68,4.68,0,0,0-2.76.64,2.1,2.1,0,0,0-.87,1.79,3.37,3.37,0,0,0,.92,2.25,5,5,0,0,0,2.39,1.5h9.15v4h-8.82a4.67,4.67,0,0,0-2.76.65,2.1,2.1,0,0,0-.87,1.78,3.42,3.42,0,0,0,.9,2.24,4.88,4.88,0,0,0,2.37,1.51h9.18v4H378v-3.63h2.91a6,6,0,0,1-2.35-2.38,7.13,7.13,0,0,1-.83-3.46,4.46,4.46,0,0,1,1-3.06,4.29,4.29,0,0,1,2.37-1.38,6.78,6.78,0,0,1-2.47-2.43,6.55,6.55,0,0,1-.86-3.36,4.67,4.67,0,0,1,.54-2.37,3.91,3.91,0,0,1,1.41-1.44,5.93,5.93,0,0,1,2-.71,13.09,13.09,0,0,1,2.25-.19Z" transform="translate(-262 -56)"/><path class="cls-2" d="M394,715.49a8.72,8.72,0,0,1-.65,3.42,7.72,7.72,0,0,1-4.33,4.28,8.3,8.3,0,0,1-3.09.58,8.74,8.74,0,0,1-3.17-.57,7.71,7.71,0,0,1-2.61-1.65,7.88,7.88,0,0,1-1.79-2.62,8.75,8.75,0,0,1-.66-3.46,8.53,8.53,0,0,1,.66-3.43,7.9,7.9,0,0,1,1.77-2.58,7.55,7.55,0,0,1,2.58-1.62,8.61,8.61,0,0,1,3.06-.55l.75,0a3.12,3.12,0,0,1,.6.07v12.15a4.69,4.69,0,0,0,1.65-.45,4.08,4.08,0,0,0,1.23-.93,4,4,0,0,0,.78-1.29,4.23,4.23,0,0,0,.27-1.5,4.64,4.64,0,0,0-.58-2.27,3.1,3.1,0,0,0-1.54-1.46l1-3.45a7,7,0,0,1,3,2.78A8.6,8.6,0,0,1,394,715.49Zm-9.48-4.08a4.18,4.18,0,0,0-2.83,1.3,4.09,4.09,0,0,0,0,5.56,4.11,4.11,0,0,0,1.23.89,4.37,4.37,0,0,0,1.59.41Z" transform="translate(-262 -56)"/><path class="cls-2" d="M394,698.87a12.17,12.17,0,0,1-.63,3.87,9.45,9.45,0,0,1-1.8,3.24l-2.52-1.5a12.92,12.92,0,0,0,1.54-2.8,7.52,7.52,0,0,0,.52-2.72,3.43,3.43,0,0,0-.45-1.89,1.45,1.45,0,0,0-1.29-.69,1.29,1.29,0,0,0-1.23.81,17.61,17.61,0,0,0-.9,2.64q-.42,1.53-.81,2.61a6.67,6.67,0,0,1-.89,1.74,3,3,0,0,1-1.14,1,3.65,3.65,0,0,1-1.54.3,4.89,4.89,0,0,1-2.16-.46,4.69,4.69,0,0,1-1.63-1.3,6,6,0,0,1-1-2,8,8,0,0,1-.36-2.45,10.52,10.52,0,0,1,.51-3.31,8.09,8.09,0,0,1,1.65-2.83l2.43,1.62a9.43,9.43,0,0,0-1.32,2.32,6.37,6.37,0,0,0-.42,2.24A3.23,3.23,0,0,0,381,701a1.46,1.46,0,0,0,1.35.69,1.31,1.31,0,0,0,.69-.16,1.44,1.44,0,0,0,.48-.53,5.1,5.1,0,0,0,.4-.95q.2-.58.41-1.46.42-1.62.84-2.77a7.58,7.58,0,0,1,1-1.89,3.43,3.43,0,0,1,1.25-1.08,3.82,3.82,0,0,1,1.69-.35,4.37,4.37,0,0,1,3.65,1.71A7.36,7.36,0,0,1,394,698.87Z" transform="translate(-262 -56)"/><path class="cls-2" d="M392.92,673.29a17.83,17.83,0,0,1,.72,2,8.33,8.33,0,0,1,.36,2.46,5.72,5.72,0,0,1-.21,1.58,3.45,3.45,0,0,1-.68,1.29,3.29,3.29,0,0,1-1.2.88,4.33,4.33,0,0,1-1.79.33h-9v2.07H378V681.8h-5.1v-4H378v-3.3h3.09v3.3h7.68a1.43,1.43,0,0,0,1.19-.44,1.65,1.65,0,0,0,.35-1.06,3.7,3.7,0,0,0-.21-1.23q-.21-.6-.36-1Z" transform="translate(-262 -56)"/><path class="cls-2" d="M396.79,670.85a7.88,7.88,0,0,0,.23-1,5.48,5.48,0,0,0,.07-.81,1.72,1.72,0,0,0-.15-.72,1.55,1.55,0,0,0-.52-.6,5.15,5.15,0,0,0-1-.54q-.66-.27-1.65-.57L378,672.83V668.7l12.24-4.26L378,660.65v-3.78l18.84,6.6a5.64,5.64,0,0,1,2.7,2,5.48,5.48,0,0,1,1.05,3.42,6.53,6.53,0,0,1-.08,1,6.27,6.27,0,0,1-.25,1Z" transform="translate(-262 -56)"/><path class="cls-2" d="M394,645.27a6.2,6.2,0,0,1-.82,3.24,5.86,5.86,0,0,1-2.23,2.16h9.15v4H378v-3.51h2.7a6.42,6.42,0,0,1-2.17-2.25,6.26,6.26,0,0,1-.8-3.18,6.74,6.74,0,0,1,.65-2.94,7.3,7.3,0,0,1,1.74-2.32,8.1,8.1,0,0,1,2.58-1.53,8.88,8.88,0,0,1,3.13-.56,9.91,9.91,0,0,1,3.21.51,8.24,8.24,0,0,1,2.61,1.42,6.64,6.64,0,0,1,1.74,2.18A6.08,6.08,0,0,1,394,645.27Zm-3.42,1.35a3.62,3.62,0,0,0-.39-1.67,4,4,0,0,0-1.05-1.31,5,5,0,0,0-1.53-.84,5.5,5.5,0,0,0-1.8-.3,5.08,5.08,0,0,0-1.84.33,4.6,4.6,0,0,0-1.49.92,4.27,4.27,0,0,0-1,1.38,4.12,4.12,0,0,0-.36,1.72,3.78,3.78,0,0,0,.19,1.17,4.12,4.12,0,0,0,.56,1.11,4.85,4.85,0,0,0,.84.92,3.5,3.5,0,0,0,1,.61h3.69a5.34,5.34,0,0,0,2.24-1.65A3.78,3.78,0,0,0,390.61,646.62Z" transform="translate(-262 -56)"/><path class="cls-2" d="M394,628.38a8.72,8.72,0,0,1-.65,3.42,7.7,7.7,0,0,1-4.33,4.28,8.27,8.27,0,0,1-3.09.59,8.76,8.76,0,0,1-3.17-.57,7.71,7.71,0,0,1-2.61-1.65,7.88,7.88,0,0,1-1.79-2.62,8.74,8.74,0,0,1-.66-3.46,8.54,8.54,0,0,1,.66-3.44,7.92,7.92,0,0,1,1.77-2.58,7.54,7.54,0,0,1,2.58-1.62,8.59,8.59,0,0,1,3.06-.55h.75a3.1,3.1,0,0,1,.6.08V632.4a4.65,4.65,0,0,0,1.65-.45,4,4,0,0,0,2-2.22,4.23,4.23,0,0,0,.27-1.5,4.63,4.63,0,0,0-.58-2.26,3.1,3.1,0,0,0-1.54-1.46l1-3.45a7,7,0,0,1,3,2.77A8.6,8.6,0,0,1,394,628.38Zm-9.48-4.08a4.19,4.19,0,0,0-2.83,1.31,4.1,4.1,0,0,0,0,5.57,4.14,4.14,0,0,0,1.23.88,4.31,4.31,0,0,0,1.59.4Z" transform="translate(-262 -56)"/><path class="cls-2" d="M394,611.76a12.16,12.16,0,0,1-.63,3.87,9.45,9.45,0,0,1-1.8,3.24l-2.52-1.5a12.89,12.89,0,0,0,1.54-2.8,7.52,7.52,0,0,0,.52-2.71,3.44,3.44,0,0,0-.45-1.89,1.45,1.45,0,0,0-1.29-.69,1.29,1.29,0,0,0-1.23.81,17.59,17.59,0,0,0-.9,2.64q-.42,1.53-.81,2.61a6.7,6.7,0,0,1-.89,1.74,3,3,0,0,1-1.14,1,3.63,3.63,0,0,1-1.54.3,4.89,4.89,0,0,1-2.16-.46,4.7,4.7,0,0,1-1.63-1.31,6,6,0,0,1-1-2,8,8,0,0,1-.36-2.44,10.52,10.52,0,0,1,.51-3.32,8.08,8.08,0,0,1,1.65-2.83l2.43,1.62a9.45,9.45,0,0,0-1.32,2.33,6.36,6.36,0,0,0-.42,2.24,3.23,3.23,0,0,0,.42,1.71,1.46,1.46,0,0,0,1.35.69,1.3,1.3,0,0,0,.69-.17,1.44,1.44,0,0,0,.48-.53,5.09,5.09,0,0,0,.4-.94q.2-.58.41-1.46.42-1.62.84-2.77a7.59,7.59,0,0,1,1-1.89,3.43,3.43,0,0,1,1.25-1.08,3.83,3.83,0,0,1,1.69-.34,4.37,4.37,0,0,1,3.65,1.71A7.37,7.37,0,0,1,394,611.76Z" transform="translate(-262 -56)"/><path class="cls-2" d="M597.92,742.16a17.83,17.83,0,0,1,.72,2,8.33,8.33,0,0,1,.36,2.46,5.72,5.72,0,0,1-.21,1.58,3.45,3.45,0,0,1-.68,1.29,3.29,3.29,0,0,1-1.2.88,4.33,4.33,0,0,1-1.79.33h-9v2.07H583v-2.07h-5.1v-4H583v-3.3h3.09v3.3h7.68a1.43,1.43,0,0,0,1.19-.44,1.65,1.65,0,0,0,.35-1.06,3.7,3.7,0,0,0-.21-1.23q-.21-.6-.36-1Z" transform="translate(-262 -56)"/><path class="cls-2" d="M598.73,725.45v4h-8.82a4.45,4.45,0,0,0-2.75.69,2.33,2.33,0,0,0-.89,2,3.08,3.08,0,0,0,.24,1.14,4.47,4.47,0,0,0,.67,1.14,5.82,5.82,0,0,0,1,1,4.11,4.11,0,0,0,1.32.66h9.18v4h-21.9v-4h9.09a6.05,6.05,0,0,1-2.35-2.35,6.65,6.65,0,0,1-.83-3.29,5.18,5.18,0,0,1,.53-2.49,4,4,0,0,1,1.4-1.5,5.77,5.77,0,0,1,2-.75,12.27,12.27,0,0,1,2.28-.21Z" transform="translate(-262 -56)"/><path class="cls-2" d="M586.49,712.58a7.94,7.94,0,0,0,.71,3.27,4.13,4.13,0,0,0,2,2.07h9.51v4H583v-3.69h3.36a7.15,7.15,0,0,1-1.46-1,7.64,7.64,0,0,1-1.12-1.23,5.69,5.69,0,0,1-.73-1.33,3.68,3.68,0,0,1-.26-1.3v-.5a1.61,1.61,0,0,1,0-.32Z" transform="translate(-262 -56)"/><path class="cls-2" d="M599,703.85a8.64,8.64,0,0,1-.66,3.45,7.73,7.73,0,0,1-1.79,2.59,7.84,7.84,0,0,1-2.6,1.63,8.45,8.45,0,0,1-3.09.57,8.54,8.54,0,0,1-3.12-.57,7.85,7.85,0,0,1-2.59-1.63,7.74,7.74,0,0,1-1.79-2.59,8.64,8.64,0,0,1-.66-3.45,8.53,8.53,0,0,1,.66-3.43,7.8,7.8,0,0,1,1.79-2.58,7.9,7.9,0,0,1,2.59-1.64,8.58,8.58,0,0,1,3.12-.57,8.49,8.49,0,0,1,3.09.57,8,8,0,0,1,2.6,1.62,7.57,7.57,0,0,1,1.79,2.58A8.64,8.64,0,0,1,599,703.85ZM590.9,708a5.46,5.46,0,0,0,1.91-.32,4.65,4.65,0,0,0,1.48-.87,3.88,3.88,0,0,0,1-1.31,4,4,0,0,0,0-3.24,3.89,3.89,0,0,0-1-1.31,4.63,4.63,0,0,0-1.5-.87,5.6,5.6,0,0,0-1.92-.31,5.52,5.52,0,0,0-1.89.31,4.63,4.63,0,0,0-1.5.87,3.9,3.9,0,0,0-1,1.31,3.83,3.83,0,0,0-.34,1.62,3.69,3.69,0,0,0,.36,1.62,4.06,4.06,0,0,0,1,1.31,4.63,4.63,0,0,0,1.5.87A5.49,5.49,0,0,0,590.9,708Z" transform="translate(-262 -56)"/><path class="cls-2" d="M599,688.13a4.46,4.46,0,0,1-1.56,3.69,7.23,7.23,0,0,1-4.62,1.26H583v-4h9q3.63,0,3.63-2.61a4.13,4.13,0,0,0-.71-2.27,5.07,5.07,0,0,0-2.15-1.79H583v-4h11.1a1.42,1.42,0,0,0,.9-.22,1,1,0,0,0,.3-.74h3.42a8.6,8.6,0,0,1,.15,1c0,.27,0,.52,0,.73a2.9,2.9,0,0,1-.5,1.76,2,2,0,0,1-1.37.79l-1.26.09a6.7,6.7,0,0,1,2.43,2.7A8.13,8.13,0,0,1,599,688.13Z" transform="translate(-262 -56)"/><path class="cls-2" d="M598.82,668.24a6.48,6.48,0,0,1-.63,2.88,7,7,0,0,1-1.73,2.23,7.82,7.82,0,0,1-2.53,1.46,9.55,9.55,0,0,1-6.24,0,8.27,8.27,0,0,1-2.58-1.5,6.85,6.85,0,0,1-1.74-2.31,6.94,6.94,0,0,1-.63-3,6.14,6.14,0,0,1,.83-3.21,7,7,0,0,1,2.21-2.28H583V659h15a7.15,7.15,0,0,1,3.12.66,6.87,6.87,0,0,1,2.34,1.82,8.12,8.12,0,0,1,1.47,2.76,11.48,11.48,0,0,1,.51,3.49,9.86,9.86,0,0,1-.85,4.34,8.78,8.78,0,0,1-2.42,3L600,672.89a6.22,6.22,0,0,0,1.74-2.27,6.82,6.82,0,0,0,.63-2.89,6.22,6.22,0,0,0-.26-1.79,4.3,4.3,0,0,0-.79-1.51,3.71,3.71,0,0,0-1.38-1,4.84,4.84,0,0,0-2-.37h-2a5.31,5.31,0,0,1,2.08,2.19A6.45,6.45,0,0,1,598.82,668.24Zm-3.21-1.35a3.79,3.79,0,0,0-.21-1.26,4.48,4.48,0,0,0-1.41-2,3.78,3.78,0,0,0-1-.6h-3.75a4.88,4.88,0,0,0-2.22,1.7,4.05,4.05,0,0,0-.84,2.42,3.48,3.48,0,0,0,.4,1.68,4.18,4.18,0,0,0,1.08,1.29,4.87,4.87,0,0,0,1.54.83,5.74,5.74,0,0,0,1.8.29,4.86,4.86,0,0,0,1.8-.33,4.63,4.63,0,0,0,1.47-.92,4.3,4.3,0,0,0,1-1.37A4,4,0,0,0,595.61,666.89Z" transform="translate(-262 -56)"/><path class="cls-2" d="M598.73,640.77v4h-8.82a4.46,4.46,0,0,0-2.75.69,2.33,2.33,0,0,0-.89,2,3.07,3.07,0,0,0,.24,1.14,4.45,4.45,0,0,0,.67,1.14,5.82,5.82,0,0,0,1,1,4.11,4.11,0,0,0,1.32.66h9.18v4h-21.9v-4h9.09a6.06,6.06,0,0,1-2.35-2.36,6.65,6.65,0,0,1-.83-3.29,5.18,5.18,0,0,1,.53-2.49,4,4,0,0,1,1.4-1.5,5.77,5.77,0,0,1,2-.75,12.35,12.35,0,0,1,2.28-.21Z" transform="translate(-262 -56)"/><path class="cls-2" d="M1289.84,365.91v-4h4v4Zm0,17.91V368.1h4v15.72Z" transform="translate(-262 -56)"/><path class="cls-2" d="M1312.1,383.82h-4V375a4.59,4.59,0,0,0-.66-2.76,2.17,2.17,0,0,0-1.83-.87,3.45,3.45,0,0,0-1.23.24,4.53,4.53,0,0,0-1.18.67,5.51,5.51,0,0,0-1,1,4.09,4.09,0,0,0-.66,1.32v9.18h-4V368.1h3.63V371a6,6,0,0,1,2.52-2.34,8.09,8.09,0,0,1,3.72-.84,4.74,4.74,0,0,1,2.4.54,3.91,3.91,0,0,1,1.44,1.41,5.9,5.9,0,0,1,.71,2,13,13,0,0,1,.2,2.25Z" transform="translate(-262 -56)"/><path class="cls-2" d="M1316.42,383.82V372h-2.07v-3.06h2.07v-1a7.09,7.09,0,0,1,1.41-4.65,4.71,4.71,0,0,1,3.84-1.71,8.94,8.94,0,0,1,3.87.93l-.81,3a5.1,5.1,0,0,0-1.07-.4,4.38,4.38,0,0,0-1.12-.17q-2.1,0-2.1,2.82v1.11h3.84V372h-3.84v11.82Z" transform="translate(-262 -56)"/><path class="cls-2" d="M1333,384.12a8.64,8.64,0,0,1-3.45-.66,7.75,7.75,0,0,1-2.6-1.79,7.87,7.87,0,0,1-1.63-2.6,8.47,8.47,0,0,1-.57-3.09,8.56,8.56,0,0,1,.57-3.12,7.88,7.88,0,0,1,1.63-2.59,7.75,7.75,0,0,1,2.6-1.79,8.64,8.64,0,0,1,3.45-.66,8.53,8.53,0,0,1,3.44.66,7.8,7.8,0,0,1,2.58,1.79,7.9,7.9,0,0,1,1.63,2.59,8.56,8.56,0,0,1,.57,3.12,8.47,8.47,0,0,1-.57,3.09,8,8,0,0,1-1.62,2.6,7.58,7.58,0,0,1-2.58,1.79A8.64,8.64,0,0,1,1333,384.12Zm-4.11-8.13a5.48,5.48,0,0,0,.31,1.91,4.65,4.65,0,0,0,.87,1.48,3.88,3.88,0,0,0,1.31,1,4,4,0,0,0,3.24,0,3.9,3.9,0,0,0,1.31-1,4.63,4.63,0,0,0,.87-1.5,5.58,5.58,0,0,0,.32-1.92,5.49,5.49,0,0,0-.32-1.89,4.63,4.63,0,0,0-.87-1.5,3.91,3.91,0,0,0-1.31-1,3.84,3.84,0,0,0-1.62-.34,3.68,3.68,0,0,0-1.62.36,4.06,4.06,0,0,0-1.31,1,4.63,4.63,0,0,0-.87,1.5A5.52,5.52,0,0,0,1328.93,376Z" transform="translate(-262 -56)"/><path class="cls-2" d="M1360.58,383a17.93,17.93,0,0,1-2,.72,8.32,8.32,0,0,1-2.46.36,5.73,5.73,0,0,1-1.58-.21,3.45,3.45,0,0,1-1.29-.68,3.29,3.29,0,0,1-.88-1.2,4.35,4.35,0,0,1-.33-1.79v-9H1350V368.1h2.07V363h4v5.1h3.3v3.09h-3.3v7.68a1.43,1.43,0,0,0,.43,1.19,1.66,1.66,0,0,0,1.07.35,3.69,3.69,0,0,0,1.23-.21q.6-.21,1-.36Z" transform="translate(-262 -56)"/><path class="cls-2" d="M1377.29,383.82h-4V375a4.45,4.45,0,0,0-.69-2.75,2.33,2.33,0,0,0-2-.89,3.08,3.08,0,0,0-1.14.24,4.45,4.45,0,0,0-1.14.67,5.75,5.75,0,0,0-1,1,4.09,4.09,0,0,0-.66,1.32v9.18h-4v-21.9h4V371a6.06,6.06,0,0,1,2.36-2.35,6.65,6.65,0,0,1,3.29-.83,5.17,5.17,0,0,1,2.49.53,4,4,0,0,1,1.5,1.4,5.73,5.73,0,0,1,.75,2,12.27,12.27,0,0,1,.21,2.28Z" transform="translate(-262 -56)"/><path class="cls-2" d="M1390.16,371.58a7.94,7.94,0,0,0-3.27.71,4.13,4.13,0,0,0-2.07,2v9.51h-4V368.1h3.69v3.36a7.15,7.15,0,0,1,1-1.46,7.64,7.64,0,0,1,1.23-1.12,5.69,5.69,0,0,1,1.33-.73,3.69,3.69,0,0,1,1.3-.26h.5a1.61,1.61,0,0,1,.32,0Z" transform="translate(-262 -56)"/><path class="cls-2" d="M1398.89,384.12a8.64,8.64,0,0,1-3.45-.66,7.75,7.75,0,0,1-2.6-1.79,7.87,7.87,0,0,1-1.63-2.6,8.47,8.47,0,0,1-.57-3.09,8.56,8.56,0,0,1,.57-3.12,7.88,7.88,0,0,1,1.63-2.59,7.75,7.75,0,0,1,2.6-1.79,8.64,8.64,0,0,1,3.45-.66,8.53,8.53,0,0,1,3.44.66,7.8,7.8,0,0,1,2.58,1.79,7.9,7.9,0,0,1,1.63,2.59,8.56,8.56,0,0,1,.57,3.12,8.47,8.47,0,0,1-.57,3.09,8,8,0,0,1-1.62,2.6,7.58,7.58,0,0,1-2.58,1.79A8.64,8.64,0,0,1,1398.89,384.12Zm-4.11-8.13a5.48,5.48,0,0,0,.31,1.91,4.65,4.65,0,0,0,.87,1.48,3.88,3.88,0,0,0,1.31,1,4,4,0,0,0,3.24,0,3.9,3.9,0,0,0,1.31-1,4.63,4.63,0,0,0,.87-1.5A5.58,5.58,0,0,0,1403,376a5.49,5.49,0,0,0-.32-1.89,4.63,4.63,0,0,0-.87-1.5,3.91,3.91,0,0,0-1.31-1,3.84,3.84,0,0,0-1.62-.34,3.68,3.68,0,0,0-1.62.36,4.06,4.06,0,0,0-1.31,1,4.63,4.63,0,0,0-.87,1.5A5.52,5.52,0,0,0,1394.78,376Z" transform="translate(-262 -56)"/><path class="cls-2" d="M1414.61,384.12a4.46,4.46,0,0,1-3.69-1.56,7.23,7.23,0,0,1-1.26-4.62V368.1h4v9q0,3.63,2.61,3.63a4.13,4.13,0,0,0,2.26-.71,5.07,5.07,0,0,0,1.79-2.15V368.1h4v11.1a1.41,1.41,0,0,0,.23.9,1,1,0,0,0,.73.3v3.42a8.57,8.57,0,0,1-1,.15l-.73,0a2.89,2.89,0,0,1-1.75-.5,2,2,0,0,1-.8-1.37l-.09-1.26a6.7,6.7,0,0,1-2.7,2.43A8.13,8.13,0,0,1,1414.61,384.12Z" transform="translate(-262 -56)"/><path class="cls-2" d="M1434.5,383.91a6.47,6.47,0,0,1-2.88-.63,7,7,0,0,1-2.24-1.73,7.84,7.84,0,0,1-1.46-2.53,9.54,9.54,0,0,1,0-6.24,8.24,8.24,0,0,1,1.5-2.58,6.85,6.85,0,0,1,2.31-1.74,6.94,6.94,0,0,1,3-.63,6.14,6.14,0,0,1,3.21.83,7,7,0,0,1,2.28,2.21V368.1h3.51v15a7.15,7.15,0,0,1-.66,3.12,6.86,6.86,0,0,1-1.82,2.34,8.12,8.12,0,0,1-2.76,1.47,11.49,11.49,0,0,1-3.5.51,9.85,9.85,0,0,1-4.33-.85,8.79,8.79,0,0,1-3-2.42l2.19-2.13a6.22,6.22,0,0,0,2.27,1.74,6.82,6.82,0,0,0,2.89.63,6.22,6.22,0,0,0,1.79-.26,4.3,4.3,0,0,0,1.51-.79,3.7,3.7,0,0,0,1-1.38,4.83,4.83,0,0,0,.38-2v-2a5.31,5.31,0,0,1-2.19,2.08A6.45,6.45,0,0,1,1434.5,383.91Zm1.35-3.21a3.79,3.79,0,0,0,1.26-.21,4.49,4.49,0,0,0,2-1.41,3.78,3.78,0,0,0,.6-1v-3.75a4.88,4.88,0,0,0-1.7-2.22,4,4,0,0,0-2.42-.84,3.48,3.48,0,0,0-1.68.4,4.18,4.18,0,0,0-1.29,1.08,4.89,4.89,0,0,0-.83,1.54,5.74,5.74,0,0,0-.29,1.8,4.88,4.88,0,0,0,.33,1.8,4.63,4.63,0,0,0,.92,1.47,4.31,4.31,0,0,0,1.37,1A4,4,0,0,0,1435.85,380.7Z" transform="translate(-262 -56)"/><path class="cls-2" d="M1462,383.82h-4V375a4.45,4.45,0,0,0-.69-2.75,2.33,2.33,0,0,0-2-.89,3.07,3.07,0,0,0-1.14.24,4.47,4.47,0,0,0-1.14.67,5.82,5.82,0,0,0-1,1,4.09,4.09,0,0,0-.66,1.32v9.18h-4v-21.9h4V371a6.05,6.05,0,0,1,2.35-2.35,6.65,6.65,0,0,1,3.29-.83,5.18,5.18,0,0,1,2.49.53,4,4,0,0,1,1.5,1.4,5.77,5.77,0,0,1,.75,2A12.27,12.27,0,0,1,1462,374Z" transform="translate(-262 -56)"/><path class="cls-2" d="M1474.91,384.12a6.2,6.2,0,0,1-3.24-.82,5.87,5.87,0,0,1-2.16-2.23v9.15h-4V368.1H1469v2.7a6.42,6.42,0,0,1,2.25-2.17,6.26,6.26,0,0,1,3.18-.8,6.74,6.74,0,0,1,2.94.65,7.3,7.3,0,0,1,2.33,1.74,8.11,8.11,0,0,1,1.53,2.58,8.88,8.88,0,0,1,.56,3.13,9.91,9.91,0,0,1-.51,3.21,8.2,8.2,0,0,1-1.42,2.61,6.65,6.65,0,0,1-2.17,1.74A6.08,6.08,0,0,1,1474.91,384.12Zm-1.35-3.42a3.61,3.61,0,0,0,1.67-.39,4,4,0,0,0,1.31-1.05,4.94,4.94,0,0,0,.84-1.53,5.51,5.51,0,0,0,.3-1.8,5.08,5.08,0,0,0-.33-1.84,4.6,4.6,0,0,0-.92-1.49,4.26,4.26,0,0,0-1.38-1,4.13,4.13,0,0,0-1.72-.36,3.77,3.77,0,0,0-1.17.19,4.12,4.12,0,0,0-1.11.56,4.82,4.82,0,0,0-.92.84,3.48,3.48,0,0,0-.62,1v3.69a5.34,5.34,0,0,0,1.65,2.24A3.77,3.77,0,0,0,1473.56,380.7Z" transform="translate(-262 -56)"/><path class="cls-2" d="M1489.31,384.12a4.46,4.46,0,0,1-3.69-1.56,7.23,7.23,0,0,1-1.26-4.62V368.1h4v9q0,3.63,2.61,3.63a4.13,4.13,0,0,0,2.27-.71,5.06,5.06,0,0,0,1.78-2.15V368.1h4v11.1a1.42,1.42,0,0,0,.22.9,1,1,0,0,0,.74.3v3.42a8.6,8.6,0,0,1-1,.15l-.74,0a2.9,2.9,0,0,1-1.75-.5,2,2,0,0,1-.79-1.37l-.09-1.26a6.7,6.7,0,0,1-2.7,2.43A8.13,8.13,0,0,1,1489.31,384.12Z" transform="translate(-262 -56)"/><path class="cls-2" d="M1512.47,383a17.93,17.93,0,0,1-2,.72,8.32,8.32,0,0,1-2.46.36,5.73,5.73,0,0,1-1.58-.21,3.45,3.45,0,0,1-1.29-.68,3.29,3.29,0,0,1-.88-1.2,4.35,4.35,0,0,1-.33-1.79v-9h-2.07V368.1h2.07V363h4v5.1h3.3v3.09H1508v7.68a1.43,1.43,0,0,0,.43,1.19,1.66,1.66,0,0,0,1.07.35,3.69,3.69,0,0,0,1.23-.21q.6-.21,1-.36Z" transform="translate(-262 -56)"/><path class="cls-2" d="M1521.74,361.92h4v16.86a2,2,0,0,0,.42,1.35,1.51,1.51,0,0,0,1.2.48,3,3,0,0,0,.79-.12,5.35,5.35,0,0,0,.83-.3l.54,3.06a7.77,7.77,0,0,1-1.89.6,10.3,10.3,0,0,1-2,.21,4,4,0,0,1-2.92-1,3.81,3.81,0,0,1-1-2.86Z" transform="translate(-262 -56)"/><path class="cls-2" d="M1538.54,384.12a8.64,8.64,0,0,1-3.45-.66,7.75,7.75,0,0,1-2.6-1.79,7.87,7.87,0,0,1-1.63-2.6,8.47,8.47,0,0,1-.57-3.09,8.56,8.56,0,0,1,.57-3.12,7.88,7.88,0,0,1,1.63-2.59,7.75,7.75,0,0,1,2.6-1.79,8.64,8.64,0,0,1,3.45-.66,8.53,8.53,0,0,1,3.44.66,7.8,7.8,0,0,1,2.58,1.79,7.9,7.9,0,0,1,1.63,2.59,8.56,8.56,0,0,1,.57,3.12,8.47,8.47,0,0,1-.57,3.09,8,8,0,0,1-1.62,2.6,7.58,7.58,0,0,1-2.58,1.79A8.64,8.64,0,0,1,1538.54,384.12Zm-4.11-8.13a5.48,5.48,0,0,0,.31,1.91,4.65,4.65,0,0,0,.87,1.48,3.88,3.88,0,0,0,1.31,1,4,4,0,0,0,3.24,0,3.9,3.9,0,0,0,1.31-1,4.63,4.63,0,0,0,.87-1.5,5.58,5.58,0,0,0,.32-1.92,5.49,5.49,0,0,0-.32-1.89,4.63,4.63,0,0,0-.87-1.5,3.91,3.91,0,0,0-1.31-1,3.84,3.84,0,0,0-1.62-.34,3.68,3.68,0,0,0-1.62.36,4.06,4.06,0,0,0-1.31,1,4.63,4.63,0,0,0-.87,1.5A5.52,5.52,0,0,0,1534.43,376Z" transform="translate(-262 -56)"/><path class="cls-2" d="M1555.4,384.12a12.16,12.16,0,0,1-3.87-.63,9.45,9.45,0,0,1-3.24-1.8l1.5-2.52a12.89,12.89,0,0,0,2.8,1.54,7.52,7.52,0,0,0,2.72.52,3.43,3.43,0,0,0,1.89-.45,1.45,1.45,0,0,0,.69-1.29,1.29,1.29,0,0,0-.81-1.23,17.55,17.55,0,0,0-2.64-.9q-1.53-.42-2.61-.81a6.7,6.7,0,0,1-1.74-.89,3,3,0,0,1-1-1.14,3.63,3.63,0,0,1-.3-1.54,4.89,4.89,0,0,1,.46-2.16,4.7,4.7,0,0,1,1.31-1.63,6,6,0,0,1,2-1,8,8,0,0,1,2.44-.36,10.52,10.52,0,0,1,3.32.51,8.09,8.09,0,0,1,2.83,1.65l-1.62,2.43a9.43,9.43,0,0,0-2.33-1.32,6.36,6.36,0,0,0-2.23-.42,3.23,3.23,0,0,0-1.71.42,1.46,1.46,0,0,0-.69,1.35,1.3,1.3,0,0,0,.17.69,1.44,1.44,0,0,0,.53.48,5.09,5.09,0,0,0,.94.4q.59.2,1.46.41,1.62.42,2.78.84a7.58,7.58,0,0,1,1.89,1,3.43,3.43,0,0,1,1.08,1.25,3.83,3.83,0,0,1,.34,1.69,4.37,4.37,0,0,1-1.71,3.65A7.36,7.36,0,0,1,1555.4,384.12Z" transform="translate(-262 -56)"/><path class="cls-2" d="M1570.31,384.12a12.17,12.17,0,0,1-3.87-.63,9.43,9.43,0,0,1-3.24-1.8l1.5-2.52a12.89,12.89,0,0,0,2.8,1.54,7.52,7.52,0,0,0,2.71.52,3.43,3.43,0,0,0,1.89-.45,1.45,1.45,0,0,0,.69-1.29,1.29,1.29,0,0,0-.81-1.23,17.57,17.57,0,0,0-2.64-.9q-1.53-.42-2.61-.81a6.67,6.67,0,0,1-1.74-.89,3,3,0,0,1-1-1.14,3.63,3.63,0,0,1-.3-1.54,4.89,4.89,0,0,1,.46-2.16,4.7,4.7,0,0,1,1.3-1.63,6,6,0,0,1,2-1,8,8,0,0,1,2.45-.36,10.52,10.52,0,0,1,3.31.51,8.07,8.07,0,0,1,2.83,1.65l-1.62,2.43a9.45,9.45,0,0,0-2.33-1.32,6.36,6.36,0,0,0-2.24-.42,3.24,3.24,0,0,0-1.71.42,1.46,1.46,0,0,0-.69,1.35,1.3,1.3,0,0,0,.17.69,1.44,1.44,0,0,0,.52.48,5.1,5.1,0,0,0,.95.4q.58.2,1.46.41,1.62.42,2.77.84a7.59,7.59,0,0,1,1.89,1,3.43,3.43,0,0,1,1.08,1.25,3.83,3.83,0,0,1,.34,1.69,4.37,4.37,0,0,1-1.71,3.65A7.37,7.37,0,0,1,1570.31,384.12Z" transform="translate(-262 -56)"/><path class="cls-2" d="M785.05,384.12a6,6,0,0,1-2.13-.37,5.1,5.1,0,0,1-1.71-1,4.87,4.87,0,0,1-1.12-1.58,4.76,4.76,0,0,1-.41-2,4.36,4.36,0,0,1,.5-2.05,4.71,4.71,0,0,1,1.38-1.6,6.85,6.85,0,0,1,2.12-1,9.23,9.23,0,0,1,2.7-.37,11.63,11.63,0,0,1,2.05.18,8.38,8.38,0,0,1,1.79.51v-.9a3.15,3.15,0,0,0-.88-2.4,3.68,3.68,0,0,0-2.62-.84,7,7,0,0,0-2.46.45,11.41,11.41,0,0,0-2.46,1.32l-1.23-2.55a11.61,11.61,0,0,1,6.54-2,7.66,7.66,0,0,1,5.26,1.67,6.1,6.1,0,0,1,1.88,4.82v4.89a1.41,1.41,0,0,0,.23.9,1,1,0,0,0,.73.3v3.42a9,9,0,0,1-1.77.21,2.68,2.68,0,0,1-1.75-.51,2.19,2.19,0,0,1-.76-1.35l-.09-.87a7,7,0,0,1-2.55,2.1A7.32,7.32,0,0,1,785.05,384.12Zm1.14-2.94a5.24,5.24,0,0,0,1.94-.36,3.51,3.51,0,0,0,1.42-1,1.45,1.45,0,0,0,.66-1.14v-1.8a9.88,9.88,0,0,0-1.56-.44,8.42,8.42,0,0,0-1.62-.17,4.3,4.3,0,0,0-2.55.71,2.12,2.12,0,0,0-1,1.79,2.15,2.15,0,0,0,.78,1.69A2.83,2.83,0,0,0,786.19,381.18Z" transform="translate(-262 -56)"/><path class="cls-2" d="M804.49,384.12a7.14,7.14,0,0,1-3-.63,7.07,7.07,0,0,1-2.37-1.74,8.13,8.13,0,0,1-1.55-2.6A9,9,0,0,1,797,376a9.37,9.37,0,0,1,.53-3.18A8.34,8.34,0,0,1,799,370.2a6.69,6.69,0,0,1,2.22-1.74,6.34,6.34,0,0,1,2.82-.63,6,6,0,0,1,3.13.84,6.09,6.09,0,0,1,2.17,2.19v-8.94h4V379.2a1.48,1.48,0,0,0,.21.9.93.93,0,0,0,.72.3v3.42a9.15,9.15,0,0,1-1.71.21,2.79,2.79,0,0,1-1.77-.54,2,2,0,0,1-.78-1.41l-.09-1a5.7,5.7,0,0,1-2.35,2.27A6.7,6.7,0,0,1,804.49,384.12Zm1.05-3.42a3.77,3.77,0,0,0,1.17-.19,4.12,4.12,0,0,0,1.11-.56,4.83,4.83,0,0,0,.92-.84,3.47,3.47,0,0,0,.62-1v-3.75a4.43,4.43,0,0,0-.67-1.22,5,5,0,0,0-1-1,5.17,5.17,0,0,0-1.17-.65,3.33,3.33,0,0,0-1.21-.24,3.62,3.62,0,0,0-1.67.39,4,4,0,0,0-1.3,1.06,5.13,5.13,0,0,0-.84,1.55,5.48,5.48,0,0,0-.3,1.8,5,5,0,0,0,.33,1.83,4.74,4.74,0,0,0,.9,1.47,4.1,4.1,0,0,0,1.36,1A4.21,4.21,0,0,0,805.54,380.7Z" transform="translate(-262 -56)"/><path class="cls-2" d="M823.84,384.12a7.14,7.14,0,0,1-3-.63,7.07,7.07,0,0,1-2.37-1.74,8.13,8.13,0,0,1-1.55-2.6,9,9,0,0,1-.55-3.19,9.37,9.37,0,0,1,.53-3.18,8.34,8.34,0,0,1,1.46-2.58,6.69,6.69,0,0,1,2.22-1.74,6.34,6.34,0,0,1,2.82-.63,6,6,0,0,1,3.13.84,6.09,6.09,0,0,1,2.17,2.19v-8.94h4V379.2a1.48,1.48,0,0,0,.21.9.93.93,0,0,0,.72.3v3.42a9.15,9.15,0,0,1-1.71.21,2.79,2.79,0,0,1-1.77-.54,2,2,0,0,1-.78-1.41l-.09-1a5.7,5.7,0,0,1-2.35,2.27A6.7,6.7,0,0,1,823.84,384.12Zm1.05-3.42a3.77,3.77,0,0,0,1.17-.19,4.12,4.12,0,0,0,1.11-.56,4.83,4.83,0,0,0,.92-.84,3.47,3.47,0,0,0,.62-1v-3.75a4.43,4.43,0,0,0-.67-1.22,5,5,0,0,0-1-1,5.17,5.17,0,0,0-1.17-.65,3.33,3.33,0,0,0-1.21-.24,3.62,3.62,0,0,0-1.67.39,4,4,0,0,0-1.3,1.06,5.13,5.13,0,0,0-.84,1.55,5.48,5.48,0,0,0-.3,1.8,5,5,0,0,0,.33,1.83,4.74,4.74,0,0,0,.9,1.47,4.1,4.1,0,0,0,1.36,1A4.21,4.21,0,0,0,824.89,380.7Z" transform="translate(-262 -56)"/><path class="cls-2" d="M846,371.58a7.94,7.94,0,0,0-3.27.71,4.13,4.13,0,0,0-2.07,2v9.51h-4V368.1h3.69v3.36a7.15,7.15,0,0,1,1-1.46,7.64,7.64,0,0,1,1.23-1.12,5.69,5.69,0,0,1,1.33-.73,3.69,3.69,0,0,1,1.3-.26h.5a1.61,1.61,0,0,1,.32,0Z" transform="translate(-262 -56)"/><path class="cls-2" d="M854.8,384.12a8.72,8.72,0,0,1-3.42-.65,7.71,7.71,0,0,1-4.28-4.33,8.28,8.28,0,0,1-.58-3.09,8.74,8.74,0,0,1,.57-3.17,7.71,7.71,0,0,1,1.65-2.61,7.88,7.88,0,0,1,2.63-1.79,8.75,8.75,0,0,1,3.46-.66,8.53,8.53,0,0,1,3.44.66,7.91,7.91,0,0,1,2.58,1.77,7.56,7.56,0,0,1,1.62,2.58,8.61,8.61,0,0,1,.55,3.06c0,.26,0,.51,0,.75a3.11,3.11,0,0,1-.08.6H850.78a4.67,4.67,0,0,0,.45,1.65,4,4,0,0,0,2.22,2,4.23,4.23,0,0,0,1.5.27,4.64,4.64,0,0,0,2.27-.58,3.1,3.1,0,0,0,1.46-1.54l3.45,1a7,7,0,0,1-2.77,3A8.6,8.6,0,0,1,854.8,384.12Zm4.08-9.48a4.19,4.19,0,0,0-1.31-2.83,4.21,4.21,0,0,0-4.32-.78,4,4,0,0,0-1.25.79,4.13,4.13,0,0,0-.89,1.23,4.35,4.35,0,0,0-.4,1.59Z" transform="translate(-262 -56)"/><path class="cls-2" d="M871.42,384.12a12.17,12.17,0,0,1-3.87-.63,9.43,9.43,0,0,1-3.24-1.8l1.5-2.52a12.89,12.89,0,0,0,2.8,1.54,7.52,7.52,0,0,0,2.71.52,3.43,3.43,0,0,0,1.89-.45,1.45,1.45,0,0,0,.69-1.29,1.29,1.29,0,0,0-.81-1.23,17.57,17.57,0,0,0-2.64-.9q-1.53-.42-2.61-.81a6.67,6.67,0,0,1-1.74-.89,3,3,0,0,1-1-1.14,3.63,3.63,0,0,1-.3-1.54,4.89,4.89,0,0,1,.46-2.16,4.7,4.7,0,0,1,1.3-1.63,6,6,0,0,1,2-1,8,8,0,0,1,2.45-.36,10.52,10.52,0,0,1,3.31.51,8.07,8.07,0,0,1,2.83,1.65l-1.62,2.43a9.45,9.45,0,0,0-2.33-1.32,6.36,6.36,0,0,0-2.24-.42,3.24,3.24,0,0,0-1.71.42,1.46,1.46,0,0,0-.69,1.35,1.3,1.3,0,0,0,.17.69,1.44,1.44,0,0,0,.52.48,5.1,5.1,0,0,0,.95.4q.58.2,1.46.41,1.62.42,2.77.84a7.59,7.59,0,0,1,1.89,1,3.43,3.43,0,0,1,1.08,1.25,3.83,3.83,0,0,1,.34,1.69,4.37,4.37,0,0,1-1.71,3.65A7.37,7.37,0,0,1,871.42,384.12Z" transform="translate(-262 -56)"/><path class="cls-2" d="M886.33,384.12a12.16,12.16,0,0,1-3.87-.63,9.45,9.45,0,0,1-3.24-1.8l1.5-2.52a12.89,12.89,0,0,0,2.8,1.54,7.52,7.52,0,0,0,2.72.52,3.43,3.43,0,0,0,1.89-.45,1.45,1.45,0,0,0,.69-1.29,1.29,1.29,0,0,0-.81-1.23,17.55,17.55,0,0,0-2.64-.9q-1.53-.42-2.61-.81a6.7,6.7,0,0,1-1.74-.89,3,3,0,0,1-1-1.14,3.63,3.63,0,0,1-.3-1.54,4.89,4.89,0,0,1,.46-2.16,4.7,4.7,0,0,1,1.31-1.63,6,6,0,0,1,2-1,8,8,0,0,1,2.44-.36,10.52,10.52,0,0,1,3.32.51,8.09,8.09,0,0,1,2.83,1.65l-1.62,2.43a9.43,9.43,0,0,0-2.33-1.32,6.36,6.36,0,0,0-2.23-.42,3.23,3.23,0,0,0-1.71.42,1.46,1.46,0,0,0-.69,1.35,1.3,1.3,0,0,0,.17.69,1.44,1.44,0,0,0,.53.48,5.09,5.09,0,0,0,.94.4q.59.2,1.46.41,1.62.42,2.78.84a7.58,7.58,0,0,1,1.89,1,3.43,3.43,0,0,1,1.08,1.25,3.83,3.83,0,0,1,.34,1.69,4.37,4.37,0,0,1-1.71,3.65A7.36,7.36,0,0,1,886.33,384.12Z" transform="translate(-262 -56)"/><path class="cls-2" d="M761.8,409.41a13.65,13.65,0,0,1,.35-3,20.11,20.11,0,0,1,1-3,33.48,33.48,0,0,1,1.42-3.08q.81-1.54,1.74-3.13l3.06,1.29a21.4,21.4,0,0,0-1.12,2A28.08,28.08,0,0,0,766,406.3a13,13,0,0,0-.42,3.2,13.66,13.66,0,0,0,1,5,40.72,40.72,0,0,0,2.66,5.4l-2.94,1.47q-.93-1.38-1.75-2.86a25,25,0,0,1-1.42-3,22.46,22.46,0,0,1-1-3.06A13.31,13.31,0,0,1,761.8,409.41Z" transform="translate(-262 -56)"/><path class="cls-2" d="M781.33,420.12a6.2,6.2,0,0,1-3.24-.82,5.87,5.87,0,0,1-2.16-2.23v9.15h-4V404.1h3.51v2.7a6.42,6.42,0,0,1,2.25-2.17,6.26,6.26,0,0,1,3.18-.8,6.74,6.74,0,0,1,2.94.65,7.3,7.3,0,0,1,2.33,1.74,8.11,8.11,0,0,1,1.53,2.58,8.88,8.88,0,0,1,.56,3.13,9.91,9.91,0,0,1-.51,3.21,8.2,8.2,0,0,1-1.42,2.61,6.65,6.65,0,0,1-2.17,1.74A6.08,6.08,0,0,1,781.33,420.12ZM780,416.7a3.61,3.61,0,0,0,1.67-.39,4,4,0,0,0,1.31-1.05,4.94,4.94,0,0,0,.84-1.53,5.51,5.51,0,0,0,.3-1.8,5.08,5.08,0,0,0-.33-1.84,4.6,4.6,0,0,0-.92-1.49,4.26,4.26,0,0,0-1.38-1,4.13,4.13,0,0,0-1.72-.36,3.77,3.77,0,0,0-1.17.19,4.12,4.12,0,0,0-1.11.56,4.82,4.82,0,0,0-.92.84,3.48,3.48,0,0,0-.62,1v3.69a5.34,5.34,0,0,0,1.65,2.24A3.77,3.77,0,0,0,780,416.7Z" transform="translate(-262 -56)"/><path class="cls-2" d="M800.29,407.58a7.94,7.94,0,0,0-3.27.71,4.13,4.13,0,0,0-2.07,2v9.51h-4V404.1h3.69v3.36a7.19,7.19,0,0,1,1-1.46,7.64,7.64,0,0,1,1.23-1.12,5.69,5.69,0,0,1,1.33-.73,3.68,3.68,0,0,1,1.3-.26h.5a1.6,1.6,0,0,1,.31,0Z" transform="translate(-262 -56)"/><path class="cls-2" d="M809,420.12a8.64,8.64,0,0,1-3.45-.66,7.75,7.75,0,0,1-2.6-1.79,7.87,7.87,0,0,1-1.63-2.6,8.47,8.47,0,0,1-.57-3.09,8.56,8.56,0,0,1,.57-3.12,7.88,7.88,0,0,1,1.63-2.59,7.75,7.75,0,0,1,2.6-1.79,8.64,8.64,0,0,1,3.45-.66,8.53,8.53,0,0,1,3.44.66,7.8,7.8,0,0,1,2.58,1.79,7.9,7.9,0,0,1,1.63,2.59,8.56,8.56,0,0,1,.57,3.12,8.47,8.47,0,0,1-.57,3.09,8,8,0,0,1-1.62,2.6,7.58,7.58,0,0,1-2.58,1.79A8.64,8.64,0,0,1,809,420.12ZM804.91,412a5.48,5.48,0,0,0,.31,1.91,4.65,4.65,0,0,0,.87,1.48,3.88,3.88,0,0,0,1.31,1,4,4,0,0,0,3.24,0,3.9,3.9,0,0,0,1.31-1,4.63,4.63,0,0,0,.87-1.5,5.58,5.58,0,0,0,.32-1.92,5.49,5.49,0,0,0-.32-1.89,4.63,4.63,0,0,0-.87-1.5,3.91,3.91,0,0,0-1.31-1,3.84,3.84,0,0,0-1.62-.34,3.68,3.68,0,0,0-1.62.36,4.06,4.06,0,0,0-1.31,1,4.63,4.63,0,0,0-.87,1.5A5.52,5.52,0,0,0,804.91,412Z" transform="translate(-262 -56)"/><path class="cls-2" d="M826.45,420.12a7.14,7.14,0,0,1-3-.63,7.07,7.07,0,0,1-2.37-1.74,8.13,8.13,0,0,1-1.55-2.6A9,9,0,0,1,819,412a9.37,9.37,0,0,1,.53-3.18A8.34,8.34,0,0,1,821,406.2a6.69,6.69,0,0,1,2.22-1.74,6.34,6.34,0,0,1,2.82-.63,6,6,0,0,1,3.13.84,6.09,6.09,0,0,1,2.17,2.19v-8.94h4V415.2a1.48,1.48,0,0,0,.21.9.93.93,0,0,0,.72.3v3.42a9.15,9.15,0,0,1-1.71.21,2.79,2.79,0,0,1-1.77-.54,2,2,0,0,1-.78-1.41l-.09-1a5.7,5.7,0,0,1-2.35,2.27A6.7,6.7,0,0,1,826.45,420.12Zm1.05-3.42a3.77,3.77,0,0,0,1.17-.19,4.12,4.12,0,0,0,1.11-.56,4.83,4.83,0,0,0,.92-.84,3.47,3.47,0,0,0,.62-1v-3.75a4.43,4.43,0,0,0-.67-1.22,5,5,0,0,0-1-1,5.17,5.17,0,0,0-1.17-.65,3.33,3.33,0,0,0-1.21-.24,3.62,3.62,0,0,0-1.67.39,4,4,0,0,0-1.3,1.06,5.13,5.13,0,0,0-.84,1.55,5.48,5.48,0,0,0-.3,1.8,5,5,0,0,0,.33,1.83,4.74,4.74,0,0,0,.9,1.47,4.1,4.1,0,0,0,1.36,1A4.21,4.21,0,0,0,827.5,416.7Z" transform="translate(-262 -56)"/><path class="cls-2" d="M844.09,420.12a4.46,4.46,0,0,1-3.69-1.56,7.23,7.23,0,0,1-1.26-4.62V404.1h4v9q0,3.63,2.61,3.63A4.13,4.13,0,0,0,848,416a5.07,5.07,0,0,0,1.79-2.15V404.1h4v11.1a1.41,1.41,0,0,0,.23.9,1,1,0,0,0,.73.3v3.42a8.57,8.57,0,0,1-1,.15l-.73,0a2.89,2.89,0,0,1-1.75-.5,2,2,0,0,1-.8-1.37l-.09-1.26a6.7,6.7,0,0,1-2.7,2.43A8.13,8.13,0,0,1,844.09,420.12Z" transform="translate(-262 -56)"/><path class="cls-2" d="M856.84,412a8.54,8.54,0,0,1,.57-3.12,7.59,7.59,0,0,1,1.65-2.58,8,8,0,0,1,2.61-1.77,8.64,8.64,0,0,1,3.45-.66,8.27,8.27,0,0,1,4.39,1.11,7.09,7.09,0,0,1,2.71,2.91L868.3,409a3.54,3.54,0,0,0-1.35-1.33,3.78,3.78,0,0,0-1.86-.46,3.84,3.84,0,0,0-1.62.34,4,4,0,0,0-1.3,1,4.45,4.45,0,0,0-.87,1.49A5.6,5.6,0,0,0,861,412a5.38,5.38,0,0,0,.33,1.92,4.83,4.83,0,0,0,.88,1.5,3.89,3.89,0,0,0,1.31,1,3.75,3.75,0,0,0,1.59.34,3.85,3.85,0,0,0,2-.54,3,3,0,0,0,1.27-1.32l3.93,1.2a6.61,6.61,0,0,1-2.67,2.94,8.39,8.39,0,0,1-4.47,1.14,8.63,8.63,0,0,1-3.45-.66,7.82,7.82,0,0,1-4.28-4.4A8.4,8.4,0,0,1,856.84,412Z" transform="translate(-262 -56)"/><path class="cls-2" d="M881.89,420.12a8.72,8.72,0,0,1-3.42-.65,7.71,7.71,0,0,1-4.28-4.33,8.28,8.28,0,0,1-.58-3.09,8.74,8.74,0,0,1,.57-3.17,7.71,7.71,0,0,1,1.65-2.61,7.88,7.88,0,0,1,2.63-1.79,8.75,8.75,0,0,1,3.46-.66,8.53,8.53,0,0,1,3.44.66,7.91,7.91,0,0,1,2.58,1.77,7.56,7.56,0,0,1,1.62,2.58,8.61,8.61,0,0,1,.55,3.06c0,.26,0,.51,0,.75a3.11,3.11,0,0,1-.08.6H877.87a4.67,4.67,0,0,0,.45,1.65,4,4,0,0,0,2.22,2,4.23,4.23,0,0,0,1.5.27,4.64,4.64,0,0,0,2.27-.58,3.1,3.1,0,0,0,1.46-1.54l3.45,1a7,7,0,0,1-2.77,3A8.6,8.6,0,0,1,881.89,420.12Zm4.08-9.48a4.19,4.19,0,0,0-1.31-2.83,4.21,4.21,0,0,0-4.32-.78,4,4,0,0,0-1.25.79,4.13,4.13,0,0,0-.89,1.23,4.35,4.35,0,0,0-.4,1.59Z" transform="translate(-262 -56)"/><path class="cls-2" d="M901.93,407.58a7.94,7.94,0,0,0-3.27.71,4.13,4.13,0,0,0-2.07,2v9.51h-4V404.1h3.69v3.36a7.19,7.19,0,0,1,1-1.46,7.64,7.64,0,0,1,1.23-1.12,5.69,5.69,0,0,1,1.33-.73,3.68,3.68,0,0,1,1.3-.26h.5a1.6,1.6,0,0,1,.31,0Z" transform="translate(-262 -56)"/><path class="cls-2" d="M910.6,409.41a13.36,13.36,0,0,1-.36,3.06,22.6,22.6,0,0,1-1,3.06,25.11,25.11,0,0,1-1.43,3q-.82,1.48-1.75,2.86l-2.94-1.47a37.56,37.56,0,0,0,2.67-5.4,13.82,13.82,0,0,0,1-5,13,13,0,0,0-.42-3.2,28.15,28.15,0,0,0-2.23-5.94,21.86,21.86,0,0,0-1.12-2l3.09-1.29q.93,1.59,1.74,3.13a31.12,31.12,0,0,1,1.41,3.08,21.3,21.3,0,0,1,.95,3A13.7,13.7,0,0,1,910.6,409.41Z" transform="translate(-262 -56)"/><path class="cls-2" d="M1027.05,384.12a6,6,0,0,1-2.13-.37,5.1,5.1,0,0,1-1.71-1,4.87,4.87,0,0,1-1.12-1.58,4.76,4.76,0,0,1-.41-2,4.36,4.36,0,0,1,.5-2.05,4.71,4.71,0,0,1,1.38-1.6,6.85,6.85,0,0,1,2.12-1,9.23,9.23,0,0,1,2.7-.37,11.63,11.63,0,0,1,2.05.18,8.38,8.38,0,0,1,1.79.51v-.9a3.15,3.15,0,0,0-.88-2.4,3.68,3.68,0,0,0-2.62-.84,7,7,0,0,0-2.46.45,11.41,11.41,0,0,0-2.46,1.32l-1.23-2.55a11.61,11.61,0,0,1,6.54-2,7.66,7.66,0,0,1,5.26,1.67,6.1,6.1,0,0,1,1.88,4.82v4.89a1.41,1.41,0,0,0,.23.9,1,1,0,0,0,.73.3v3.42a9,9,0,0,1-1.77.21,2.68,2.68,0,0,1-1.75-.51,2.19,2.19,0,0,1-.76-1.35l-.09-.87a7,7,0,0,1-2.55,2.1A7.32,7.32,0,0,1,1027.05,384.12Zm1.14-2.94a5.24,5.24,0,0,0,1.94-.36,3.51,3.51,0,0,0,1.42-1,1.45,1.45,0,0,0,.66-1.14v-1.8a9.88,9.88,0,0,0-1.56-.44,8.42,8.42,0,0,0-1.62-.17,4.3,4.3,0,0,0-2.55.71,2.12,2.12,0,0,0-1,1.79,2.15,2.15,0,0,0,.78,1.69A2.83,2.83,0,0,0,1028.19,381.18Z" transform="translate(-262 -56)"/><path class="cls-2" d="M1046.49,384.12a7.14,7.14,0,0,1-3-.63,7.07,7.07,0,0,1-2.37-1.74,8.13,8.13,0,0,1-1.55-2.6A9,9,0,0,1,1039,376a9.37,9.37,0,0,1,.53-3.18,8.34,8.34,0,0,1,1.46-2.58,6.69,6.69,0,0,1,2.22-1.74,6.34,6.34,0,0,1,2.82-.63,6,6,0,0,1,3.13.84,6.09,6.09,0,0,1,2.17,2.19v-8.94h4V379.2a1.48,1.48,0,0,0,.21.9.93.93,0,0,0,.72.3v3.42a9.15,9.15,0,0,1-1.71.21,2.79,2.79,0,0,1-1.77-.54,2,2,0,0,1-.78-1.41l-.09-1a5.7,5.7,0,0,1-2.35,2.27A6.7,6.7,0,0,1,1046.49,384.12Zm1.05-3.42a3.77,3.77,0,0,0,1.17-.19,4.12,4.12,0,0,0,1.11-.56,4.83,4.83,0,0,0,.92-.84,3.47,3.47,0,0,0,.62-1v-3.75a4.43,4.43,0,0,0-.67-1.22,5,5,0,0,0-1-1,5.17,5.17,0,0,0-1.17-.65,3.33,3.33,0,0,0-1.21-.24,3.62,3.62,0,0,0-1.67.39,4,4,0,0,0-1.3,1.06,5.13,5.13,0,0,0-.84,1.55,5.48,5.48,0,0,0-.3,1.8,5,5,0,0,0,.33,1.83,4.74,4.74,0,0,0,.9,1.47,4.1,4.1,0,0,0,1.36,1A4.21,4.21,0,0,0,1047.54,380.7Z" transform="translate(-262 -56)"/><path class="cls-2" d="M1065.84,384.12a7.14,7.14,0,0,1-3-.63,7.07,7.07,0,0,1-2.37-1.74,8.13,8.13,0,0,1-1.55-2.6,9,9,0,0,1-.55-3.19,9.37,9.37,0,0,1,.53-3.18,8.34,8.34,0,0,1,1.46-2.58,6.69,6.69,0,0,1,2.22-1.74,6.34,6.34,0,0,1,2.82-.63,6,6,0,0,1,3.13.84,6.09,6.09,0,0,1,2.17,2.19v-8.94h4V379.2a1.48,1.48,0,0,0,.21.9.93.93,0,0,0,.72.3v3.42a9.15,9.15,0,0,1-1.71.21,2.79,2.79,0,0,1-1.77-.54,2,2,0,0,1-.78-1.41l-.09-1a5.7,5.7,0,0,1-2.35,2.27A6.7,6.7,0,0,1,1065.84,384.12Zm1.05-3.42a3.77,3.77,0,0,0,1.17-.19,4.12,4.12,0,0,0,1.11-.56,4.83,4.83,0,0,0,.92-.84,3.47,3.47,0,0,0,.62-1v-3.75a4.43,4.43,0,0,0-.67-1.22,5,5,0,0,0-1-1,5.17,5.17,0,0,0-1.17-.65,3.33,3.33,0,0,0-1.21-.24,3.62,3.62,0,0,0-1.67.39,4,4,0,0,0-1.3,1.06,5.13,5.13,0,0,0-.84,1.55,5.48,5.48,0,0,0-.3,1.8,5,5,0,0,0,.33,1.83,4.74,4.74,0,0,0,.9,1.47,4.1,4.1,0,0,0,1.36,1A4.21,4.21,0,0,0,1066.89,380.7Z" transform="translate(-262 -56)"/><path class="cls-2" d="M1088,371.58a7.94,7.94,0,0,0-3.27.71,4.13,4.13,0,0,0-2.07,2v9.51h-4V368.1h3.69v3.36a7.15,7.15,0,0,1,1-1.46,7.64,7.64,0,0,1,1.23-1.12,5.69,5.69,0,0,1,1.33-.73,3.69,3.69,0,0,1,1.3-.26h.5a1.61,1.61,0,0,1,.32,0Z" transform="translate(-262 -56)"/><path class="cls-2" d="M1096.8,384.12a8.72,8.72,0,0,1-3.42-.65,7.71,7.71,0,0,1-4.28-4.33,8.28,8.28,0,0,1-.58-3.09,8.74,8.74,0,0,1,.57-3.17,7.71,7.71,0,0,1,1.65-2.61,7.88,7.88,0,0,1,2.63-1.79,8.75,8.75,0,0,1,3.46-.66,8.53,8.53,0,0,1,3.44.66,7.91,7.91,0,0,1,2.58,1.77,7.56,7.56,0,0,1,1.62,2.58,8.61,8.61,0,0,1,.55,3.06c0,.26,0,.51,0,.75a3.11,3.11,0,0,1-.08.6h-12.15a4.67,4.67,0,0,0,.45,1.65,4,4,0,0,0,2.22,2,4.23,4.23,0,0,0,1.5.27,4.64,4.64,0,0,0,2.27-.58,3.1,3.1,0,0,0,1.46-1.54l3.45,1a7,7,0,0,1-2.77,3A8.6,8.6,0,0,1,1096.8,384.12Zm4.08-9.48a4.19,4.19,0,0,0-1.31-2.83,4.21,4.21,0,0,0-4.32-.78,4,4,0,0,0-1.25.79,4.13,4.13,0,0,0-.89,1.23,4.35,4.35,0,0,0-.4,1.59Z" transform="translate(-262 -56)"/><path class="cls-2" d="M1113.42,384.12a12.17,12.17,0,0,1-3.87-.63,9.43,9.43,0,0,1-3.24-1.8l1.5-2.52a12.89,12.89,0,0,0,2.8,1.54,7.52,7.52,0,0,0,2.71.52,3.43,3.43,0,0,0,1.89-.45,1.45,1.45,0,0,0,.69-1.29,1.29,1.29,0,0,0-.81-1.23,17.57,17.57,0,0,0-2.64-.9q-1.53-.42-2.61-.81a6.67,6.67,0,0,1-1.74-.89,3,3,0,0,1-1-1.14,3.63,3.63,0,0,1-.3-1.54,4.89,4.89,0,0,1,.46-2.16,4.7,4.7,0,0,1,1.3-1.63,6,6,0,0,1,2-1,8,8,0,0,1,2.45-.36,10.52,10.52,0,0,1,3.31.51,8.07,8.07,0,0,1,2.83,1.65l-1.62,2.43a9.45,9.45,0,0,0-2.33-1.32,6.36,6.36,0,0,0-2.24-.42,3.24,3.24,0,0,0-1.71.42,1.46,1.46,0,0,0-.69,1.35,1.3,1.3,0,0,0,.17.69,1.44,1.44,0,0,0,.52.48,5.1,5.1,0,0,0,.95.4q.58.2,1.46.41,1.62.42,2.77.84a7.59,7.59,0,0,1,1.89,1,3.43,3.43,0,0,1,1.08,1.25,3.83,3.83,0,0,1,.34,1.69,4.37,4.37,0,0,1-1.71,3.65A7.37,7.37,0,0,1,1113.42,384.12Z" transform="translate(-262 -56)"/><path class="cls-2" d="M1128.33,384.12a12.16,12.16,0,0,1-3.87-.63,9.45,9.45,0,0,1-3.24-1.8l1.5-2.52a12.89,12.89,0,0,0,2.8,1.54,7.52,7.52,0,0,0,2.72.52,3.43,3.43,0,0,0,1.89-.45,1.45,1.45,0,0,0,.69-1.29,1.29,1.29,0,0,0-.81-1.23,17.55,17.55,0,0,0-2.64-.9q-1.53-.42-2.61-.81a6.7,6.7,0,0,1-1.74-.89,3,3,0,0,1-1-1.14,3.63,3.63,0,0,1-.3-1.54,4.89,4.89,0,0,1,.46-2.16,4.7,4.7,0,0,1,1.31-1.63,6,6,0,0,1,2-1,8,8,0,0,1,2.44-.36,10.52,10.52,0,0,1,3.32.51,8.09,8.09,0,0,1,2.83,1.65l-1.62,2.43a9.43,9.43,0,0,0-2.33-1.32,6.36,6.36,0,0,0-2.23-.42,3.23,3.23,0,0,0-1.71.42,1.46,1.46,0,0,0-.69,1.35,1.3,1.3,0,0,0,.17.69,1.44,1.44,0,0,0,.53.48,5.09,5.09,0,0,0,.94.4q.59.2,1.46.41,1.62.42,2.78.84a7.58,7.58,0,0,1,1.89,1,3.43,3.43,0,0,1,1.08,1.25,3.83,3.83,0,0,1,.34,1.69,4.37,4.37,0,0,1-1.71,3.65A7.36,7.36,0,0,1,1128.33,384.12Z" transform="translate(-262 -56)"/><path class="cls-2" d="M998.21,409.41a13.65,13.65,0,0,1,.35-3,20.11,20.11,0,0,1,1-3,33.48,33.48,0,0,1,1.42-3.08q.81-1.54,1.74-3.13l3.06,1.29a21.4,21.4,0,0,0-1.12,2,28.08,28.08,0,0,0-2.24,5.94,13,13,0,0,0-.42,3.2,13.66,13.66,0,0,0,1,5,40.72,40.72,0,0,0,2.66,5.4l-2.94,1.47q-.93-1.38-1.75-2.86a25,25,0,0,1-1.42-3,22.46,22.46,0,0,1-1-3.06A13.31,13.31,0,0,1,998.21,409.41Z" transform="translate(-262 -56)"/><path class="cls-2" d="M1006.76,412a8.56,8.56,0,0,1,.57-3.12,7.59,7.59,0,0,1,1.65-2.58,8,8,0,0,1,2.61-1.77,8.64,8.64,0,0,1,3.45-.66,8.28,8.28,0,0,1,4.4,1.11,7.1,7.1,0,0,1,2.71,2.91l-3.93,1.2a3.53,3.53,0,0,0-1.35-1.33,3.78,3.78,0,0,0-1.86-.46,3.83,3.83,0,0,0-1.62.34,4,4,0,0,0-1.31,1,4.45,4.45,0,0,0-.87,1.49,5.6,5.6,0,0,0-.31,1.92,5.36,5.36,0,0,0,.33,1.92,4.83,4.83,0,0,0,.88,1.5,3.89,3.89,0,0,0,1.3,1,3.76,3.76,0,0,0,1.59.34,3.85,3.85,0,0,0,2-.54,3,3,0,0,0,1.28-1.32l3.93,1.2a6.61,6.61,0,0,1-2.67,2.94,8.39,8.39,0,0,1-4.47,1.14,8.64,8.64,0,0,1-3.45-.66,7.82,7.82,0,0,1-4.28-4.4A8.4,8.4,0,0,1,1006.76,412Z" transform="translate(-262 -56)"/><path class="cls-2" d="M1031.78,420.12a8.64,8.64,0,0,1-3.45-.66,7.75,7.75,0,0,1-2.59-1.79,7.86,7.86,0,0,1-1.63-2.6,8.45,8.45,0,0,1-.57-3.09,8.54,8.54,0,0,1,.57-3.12,7.87,7.87,0,0,1,1.63-2.59,7.76,7.76,0,0,1,2.59-1.79,8.64,8.64,0,0,1,3.45-.66,8.53,8.53,0,0,1,3.43.66,7.8,7.8,0,0,1,2.58,1.79,7.9,7.9,0,0,1,1.64,2.59A8.58,8.58,0,0,1,1040,412a8.49,8.49,0,0,1-.57,3.09,8,8,0,0,1-1.62,2.6,7.59,7.59,0,0,1-2.58,1.79A8.64,8.64,0,0,1,1031.78,420.12Zm-4.11-8.13a5.48,5.48,0,0,0,.32,1.91,4.65,4.65,0,0,0,.87,1.48,3.88,3.88,0,0,0,1.3,1,4,4,0,0,0,3.24,0,3.9,3.9,0,0,0,1.3-1,4.62,4.62,0,0,0,.87-1.5,5.6,5.6,0,0,0,.32-1.92,5.52,5.52,0,0,0-.32-1.89,4.62,4.62,0,0,0-.87-1.5,3.91,3.91,0,0,0-1.3-1,3.84,3.84,0,0,0-1.62-.34,3.69,3.69,0,0,0-1.62.36,4.06,4.06,0,0,0-1.3,1,4.63,4.63,0,0,0-.87,1.5A5.52,5.52,0,0,0,1027.67,412Z" transform="translate(-262 -56)"/><path class="cls-2" d="M1057.31,419.82h-4V411a4.6,4.6,0,0,0-.66-2.76,2.17,2.17,0,0,0-1.83-.87,3.45,3.45,0,0,0-1.23.24,4.53,4.53,0,0,0-1.19.67,5.5,5.5,0,0,0-1,1,4.09,4.09,0,0,0-.66,1.32v9.18h-4V404.1h3.63V407a6,6,0,0,1,2.52-2.34,8.09,8.09,0,0,1,3.72-.84,4.74,4.74,0,0,1,2.4.54,3.91,3.91,0,0,1,1.44,1.41,5.93,5.93,0,0,1,.71,2,13,13,0,0,1,.19,2.25Z" transform="translate(-262 -56)"/><path class="cls-2" d="M1066.76,420.12a12.16,12.16,0,0,1-3.87-.63,9.45,9.45,0,0,1-3.24-1.8l1.5-2.52a12.89,12.89,0,0,0,2.8,1.54,7.52,7.52,0,0,0,2.72.52,3.43,3.43,0,0,0,1.89-.45,1.45,1.45,0,0,0,.69-1.29,1.29,1.29,0,0,0-.81-1.23,17.55,17.55,0,0,0-2.64-.9q-1.53-.42-2.61-.81a6.7,6.7,0,0,1-1.74-.89,3,3,0,0,1-1-1.14,3.63,3.63,0,0,1-.3-1.54,4.89,4.89,0,0,1,.46-2.16,4.7,4.7,0,0,1,1.31-1.63,6,6,0,0,1,2-1,8,8,0,0,1,2.44-.36,10.52,10.52,0,0,1,3.32.51,8.09,8.09,0,0,1,2.83,1.65l-1.62,2.43a9.43,9.43,0,0,0-2.33-1.32,6.36,6.36,0,0,0-2.23-.42,3.23,3.23,0,0,0-1.71.42,1.46,1.46,0,0,0-.69,1.35,1.3,1.3,0,0,0,.17.69,1.44,1.44,0,0,0,.53.48,5.09,5.09,0,0,0,.94.4q.59.2,1.46.41,1.62.42,2.78.84a7.58,7.58,0,0,1,1.89,1,3.43,3.43,0,0,1,1.08,1.25,3.83,3.83,0,0,1,.34,1.69,4.37,4.37,0,0,1-1.71,3.65A7.36,7.36,0,0,1,1066.76,420.12Z" transform="translate(-262 -56)"/><path class="cls-2" d="M1080.53,420.12a4.46,4.46,0,0,1-3.69-1.56,7.23,7.23,0,0,1-1.26-4.62V404.1h4v9q0,3.63,2.61,3.63a4.13,4.13,0,0,0,2.26-.71,5.07,5.07,0,0,0,1.79-2.15V404.1h4v11.1a1.41,1.41,0,0,0,.23.9,1,1,0,0,0,.73.3v3.42a8.57,8.57,0,0,1-1,.15l-.73,0a2.89,2.89,0,0,1-1.75-.5,2,2,0,0,1-.8-1.37l-.09-1.26a6.7,6.7,0,0,1-2.7,2.43A8.13,8.13,0,0,1,1080.53,420.12Z" transform="translate(-262 -56)"/><path class="cls-2" d="M1118.69,419.82h-4V411a4.68,4.68,0,0,0-.64-2.76,2.1,2.1,0,0,0-1.79-.87,3.37,3.37,0,0,0-2.25.92,5,5,0,0,0-1.5,2.39v9.15h-4V411a4.68,4.68,0,0,0-.64-2.76,2.1,2.1,0,0,0-1.79-.87,3.42,3.42,0,0,0-2.23.9,4.89,4.89,0,0,0-1.52,2.37v9.18h-4V404.1h3.63V407a6,6,0,0,1,2.38-2.35,7.13,7.13,0,0,1,3.46-.83,4.46,4.46,0,0,1,3.06,1,4.29,4.29,0,0,1,1.38,2.37,6.78,6.78,0,0,1,2.43-2.47,6.55,6.55,0,0,1,3.36-.86,4.67,4.67,0,0,1,2.37.54,3.91,3.91,0,0,1,1.44,1.41,5.9,5.9,0,0,1,.71,2,13,13,0,0,1,.2,2.25Z" transform="translate(-262 -56)"/><path class="cls-2" d="M1129.49,420.12a8.72,8.72,0,0,1-3.42-.65,7.71,7.71,0,0,1-4.28-4.33,8.28,8.28,0,0,1-.58-3.09,8.76,8.76,0,0,1,.57-3.17,7.71,7.71,0,0,1,1.65-2.61,7.88,7.88,0,0,1,2.63-1.79,8.74,8.74,0,0,1,3.46-.66,8.53,8.53,0,0,1,3.43.66,7.91,7.91,0,0,1,2.58,1.77,7.53,7.53,0,0,1,1.62,2.58,8.59,8.59,0,0,1,.55,3.06c0,.26,0,.51,0,.75a3.11,3.11,0,0,1-.08.6h-12.15a4.67,4.67,0,0,0,.45,1.65,4,4,0,0,0,2.22,2,4.23,4.23,0,0,0,1.5.27,4.63,4.63,0,0,0,2.26-.58,3.1,3.1,0,0,0,1.46-1.54l3.45,1a7,7,0,0,1-2.78,3A8.6,8.6,0,0,1,1129.49,420.12Zm4.08-9.48a4.18,4.18,0,0,0-1.3-2.83,4.1,4.1,0,0,0-5.57,0,4.13,4.13,0,0,0-.88,1.23,4.33,4.33,0,0,0-.41,1.59Z" transform="translate(-262 -56)"/><path class="cls-2" d="M1149.53,407.58a7.94,7.94,0,0,0-3.27.71,4.13,4.13,0,0,0-2.07,2v9.51h-4V404.1h3.69v3.36a7.15,7.15,0,0,1,1-1.46,7.64,7.64,0,0,1,1.23-1.12,5.69,5.69,0,0,1,1.33-.73,3.69,3.69,0,0,1,1.3-.26h.5a1.61,1.61,0,0,1,.32,0Z" transform="translate(-262 -56)"/><path class="cls-2" d="M1158.2,409.41a13.31,13.31,0,0,1-.36,3.06,22.46,22.46,0,0,1-1,3.06,25.1,25.1,0,0,1-1.42,3q-.83,1.48-1.75,2.86l-2.94-1.47a37.46,37.46,0,0,0,2.67-5.4,13.83,13.83,0,0,0,1-5,13.1,13.1,0,0,0-.42-3.2,27.59,27.59,0,0,0-1-3.18,28,28,0,0,0-1.23-2.76,21.86,21.86,0,0,0-1.12-2l3.09-1.29q.93,1.59,1.74,3.13a31.12,31.12,0,0,1,1.41,3.08,21.3,21.3,0,0,1,.94,3A13.65,13.65,0,0,1,1158.2,409.41Z" transform="translate(-262 -56)"/><line class="cls-5" x1="662.86" y1="318.5" x2="725.22" y2="318.5"/><path class="cls-2" d="M930.25,374.5l6.57-10.81-.37-.24-17.62,7L900.4,374.5l18.42,4.05,17.63,7,.37-.18Z" transform="translate(-262 -56)"/><polygon class="cls-2" points="746.4 318.5 716.56 330.7 723.64 318.5 716.56 306.31 746.4 318.5"/><line class="cls-5" x1="894" y1="318.5" x2="980.82" y2="318.5"/><polygon class="cls-2" points="1002 318.5 972.15 330.7 979.24 318.5 972.15 306.31 1002 318.5"/><path class="cls-2" d="M343.31,384.12a6,6,0,0,1-2.13-.37,5.12,5.12,0,0,1-1.71-1,4.9,4.9,0,0,1-1.12-1.58,4.77,4.77,0,0,1-.4-2,4.36,4.36,0,0,1,.5-2.05,4.7,4.7,0,0,1,1.38-1.6,6.85,6.85,0,0,1,2.12-1,9.22,9.22,0,0,1,2.7-.37,11.64,11.64,0,0,1,2.06.18,8.35,8.35,0,0,1,1.78.51v-.9a3.15,3.15,0,0,0-.88-2.4,3.68,3.68,0,0,0-2.62-.84,7,7,0,0,0-2.46.45,11.43,11.43,0,0,0-2.46,1.32l-1.23-2.55a11.6,11.6,0,0,1,6.54-2,7.66,7.66,0,0,1,5.26,1.67,6.1,6.1,0,0,1,1.88,4.82v4.89a1.42,1.42,0,0,0,.22.9,1,1,0,0,0,.74.3v3.42a9,9,0,0,1-1.77.21,2.68,2.68,0,0,1-1.76-.51,2.19,2.19,0,0,1-.76-1.35l-.09-.87a7,7,0,0,1-2.55,2.1A7.33,7.33,0,0,1,343.31,384.12Zm1.14-2.94a5.23,5.23,0,0,0,1.93-.36,3.52,3.52,0,0,0,1.43-1,1.44,1.44,0,0,0,.66-1.14v-1.8a9.85,9.85,0,0,0-1.56-.44,8.42,8.42,0,0,0-1.62-.17,4.3,4.3,0,0,0-2.55.71,2.12,2.12,0,0,0-1,1.79,2.15,2.15,0,0,0,.78,1.69A2.83,2.83,0,0,0,344.45,381.18Z" transform="translate(-262 -56)"/><path class="cls-2" d="M362.75,384.12a7.1,7.1,0,0,1-5.37-2.37,8.13,8.13,0,0,1-1.54-2.6,9,9,0,0,1-.55-3.19,9.4,9.4,0,0,1,.52-3.18,8.34,8.34,0,0,1,1.46-2.58,6.71,6.71,0,0,1,2.22-1.74,6.34,6.34,0,0,1,2.82-.63,6,6,0,0,1,3.13.84,6.09,6.09,0,0,1,2.18,2.19v-8.94h4V379.2a1.49,1.49,0,0,0,.21.9.93.93,0,0,0,.72.3v3.42a9.14,9.14,0,0,1-1.71.21,2.79,2.79,0,0,1-1.77-.54,2,2,0,0,1-.78-1.41l-.09-1a5.7,5.7,0,0,1-2.36,2.27A6.69,6.69,0,0,1,362.75,384.12Zm1-3.42a3.77,3.77,0,0,0,1.17-.19,4.12,4.12,0,0,0,1.11-.56,4.86,4.86,0,0,0,.92-.84,3.51,3.51,0,0,0,.62-1v-3.75a4.43,4.43,0,0,0-.68-1.22,5,5,0,0,0-1-1,5.21,5.21,0,0,0-1.17-.65,3.33,3.33,0,0,0-1.22-.24,3.62,3.62,0,0,0-1.67.39,4,4,0,0,0-1.3,1.06,5.1,5.1,0,0,0-.84,1.55,5.48,5.48,0,0,0-.3,1.8,5,5,0,0,0,.33,1.83,4.76,4.76,0,0,0,.9,1.47,4.09,4.09,0,0,0,1.37,1A4.2,4.2,0,0,0,363.8,380.7Z" transform="translate(-262 -56)"/><path class="cls-2" d="M382.1,384.12a7.1,7.1,0,0,1-5.37-2.37,8.13,8.13,0,0,1-1.54-2.6,9,9,0,0,1-.55-3.19,9.4,9.4,0,0,1,.52-3.18,8.34,8.34,0,0,1,1.46-2.58,6.71,6.71,0,0,1,2.22-1.74,6.34,6.34,0,0,1,2.82-.63,6,6,0,0,1,3.13.84,6.09,6.09,0,0,1,2.18,2.19v-8.94h4V379.2a1.49,1.49,0,0,0,.21.9.93.93,0,0,0,.72.3v3.42a9.14,9.14,0,0,1-1.71.21,2.79,2.79,0,0,1-1.77-.54,2,2,0,0,1-.78-1.41l-.09-1a5.7,5.7,0,0,1-2.36,2.27A6.69,6.69,0,0,1,382.1,384.12Zm1-3.42a3.77,3.77,0,0,0,1.17-.19,4.12,4.12,0,0,0,1.11-.56,4.86,4.86,0,0,0,.92-.84,3.51,3.51,0,0,0,.62-1v-3.75a4.43,4.43,0,0,0-.68-1.22,5,5,0,0,0-1-1,5.21,5.21,0,0,0-1.17-.65,3.33,3.33,0,0,0-1.22-.24,3.62,3.62,0,0,0-1.67.39,4,4,0,0,0-1.3,1.06,5.1,5.1,0,0,0-.84,1.55,5.48,5.48,0,0,0-.3,1.8,5,5,0,0,0,.33,1.83,4.76,4.76,0,0,0,.9,1.47,4.09,4.09,0,0,0,1.37,1A4.2,4.2,0,0,0,383.15,380.7Z" transform="translate(-262 -56)"/><path class="cls-2" d="M404.3,371.58a7.94,7.94,0,0,0-3.27.71,4.13,4.13,0,0,0-2.07,2v9.51h-4V368.1h3.69v3.36a7.19,7.19,0,0,1,1-1.46,7.64,7.64,0,0,1,1.23-1.12,5.69,5.69,0,0,1,1.33-.73,3.68,3.68,0,0,1,1.3-.26h.5a1.6,1.6,0,0,1,.31,0Z" transform="translate(-262 -56)"/><path class="cls-2" d="M413.06,384.12a8.72,8.72,0,0,1-3.42-.65,7.71,7.71,0,0,1-4.28-4.33,8.28,8.28,0,0,1-.58-3.09,8.76,8.76,0,0,1,.57-3.17,7.71,7.71,0,0,1,1.65-2.61,7.88,7.88,0,0,1,2.63-1.79,8.74,8.74,0,0,1,3.46-.66,8.53,8.53,0,0,1,3.43.66,7.91,7.91,0,0,1,2.58,1.77,7.53,7.53,0,0,1,1.62,2.58,8.59,8.59,0,0,1,.55,3.06c0,.26,0,.51,0,.75a3.11,3.11,0,0,1-.08.6H409a4.67,4.67,0,0,0,.45,1.65,4,4,0,0,0,2.22,2,4.23,4.23,0,0,0,1.5.27,4.63,4.63,0,0,0,2.26-.58,3.1,3.1,0,0,0,1.46-1.54l3.45,1a7,7,0,0,1-2.78,3A8.6,8.6,0,0,1,413.06,384.12Zm4.08-9.48a4.18,4.18,0,0,0-1.3-2.83,4.1,4.1,0,0,0-5.57,0,4.13,4.13,0,0,0-.88,1.23,4.33,4.33,0,0,0-.41,1.59Z" transform="translate(-262 -56)"/><path class="cls-2" d="M429.68,384.12a12.16,12.16,0,0,1-3.87-.63,9.45,9.45,0,0,1-3.24-1.8l1.5-2.52a12.89,12.89,0,0,0,2.8,1.54,7.52,7.52,0,0,0,2.72.52,3.43,3.43,0,0,0,1.89-.45,1.45,1.45,0,0,0,.69-1.29,1.29,1.29,0,0,0-.81-1.23,17.55,17.55,0,0,0-2.64-.9q-1.53-.42-2.61-.81a6.7,6.7,0,0,1-1.74-.89,3,3,0,0,1-1-1.14,3.63,3.63,0,0,1-.3-1.54,4.89,4.89,0,0,1,.46-2.16,4.7,4.7,0,0,1,1.31-1.63,6,6,0,0,1,2-1,8,8,0,0,1,2.44-.36,10.52,10.52,0,0,1,3.32.51,8.09,8.09,0,0,1,2.83,1.65l-1.62,2.43a9.43,9.43,0,0,0-2.33-1.32,6.36,6.36,0,0,0-2.23-.42,3.23,3.23,0,0,0-1.71.42,1.46,1.46,0,0,0-.69,1.35,1.3,1.3,0,0,0,.17.69,1.44,1.44,0,0,0,.53.48,5.09,5.09,0,0,0,.94.4q.59.2,1.46.41,1.62.42,2.78.84a7.58,7.58,0,0,1,1.89,1,3.43,3.43,0,0,1,1.08,1.25,3.83,3.83,0,0,1,.34,1.69,4.37,4.37,0,0,1-1.71,3.65A7.36,7.36,0,0,1,429.68,384.12Z" transform="translate(-262 -56)"/><path class="cls-2" d="M444.59,384.12a12.17,12.17,0,0,1-3.87-.63,9.43,9.43,0,0,1-3.24-1.8l1.5-2.52a12.89,12.89,0,0,0,2.8,1.54,7.52,7.52,0,0,0,2.71.52,3.43,3.43,0,0,0,1.89-.45,1.45,1.45,0,0,0,.69-1.29,1.29,1.29,0,0,0-.81-1.23,17.57,17.57,0,0,0-2.64-.9q-1.53-.42-2.61-.81a6.67,6.67,0,0,1-1.74-.89,3,3,0,0,1-1-1.14A3.63,3.63,0,0,1,438,373a4.89,4.89,0,0,1,.46-2.16,4.7,4.7,0,0,1,1.3-1.63,6,6,0,0,1,2-1,8,8,0,0,1,2.45-.36,10.52,10.52,0,0,1,3.31.51,8.07,8.07,0,0,1,2.83,1.65l-1.62,2.43a9.45,9.45,0,0,0-2.33-1.32,6.36,6.36,0,0,0-2.24-.42,3.24,3.24,0,0,0-1.71.42,1.46,1.46,0,0,0-.69,1.35,1.3,1.3,0,0,0,.17.69,1.44,1.44,0,0,0,.52.48,5.1,5.1,0,0,0,.95.4q.58.2,1.46.41,1.62.42,2.77.84a7.59,7.59,0,0,1,1.89,1,3.43,3.43,0,0,1,1.08,1.25,3.83,3.83,0,0,1,.34,1.69,4.37,4.37,0,0,1-1.71,3.65A7.37,7.37,0,0,1,444.59,384.12Z" transform="translate(-262 -56)"/><path class="cls-2" d="M581,365.91v-4h4v4Zm0,17.91V368.1h4v15.72Z" transform="translate(-262 -56)"/><path class="cls-2" d="M603.28,383.82h-4V375a4.59,4.59,0,0,0-.66-2.76,2.17,2.17,0,0,0-1.83-.87,3.45,3.45,0,0,0-1.23.24,4.53,4.53,0,0,0-1.18.67,5.51,5.51,0,0,0-1,1,4.09,4.09,0,0,0-.66,1.32v9.18h-4V368.1h3.63V371a6,6,0,0,1,2.52-2.34,8.09,8.09,0,0,1,3.72-.84,4.74,4.74,0,0,1,2.4.54,3.91,3.91,0,0,1,1.44,1.41,5.9,5.9,0,0,1,.71,2,13,13,0,0,1,.2,2.25Z" transform="translate(-262 -56)"/><path class="cls-2" d="M607.6,383.82V372h-2.07v-3.06h2.07v-1a7.09,7.09,0,0,1,1.41-4.65,4.71,4.71,0,0,1,3.84-1.71,8.94,8.94,0,0,1,3.87.93l-.81,3a5.1,5.1,0,0,0-1.07-.4,4.38,4.38,0,0,0-1.12-.17q-2.1,0-2.1,2.82v1.11h3.84V372h-3.84v11.82Z" transform="translate(-262 -56)"/><path class="cls-2" d="M624.22,384.12a8.64,8.64,0,0,1-3.45-.66,7.75,7.75,0,0,1-2.6-1.79,7.87,7.87,0,0,1-1.63-2.6A8.47,8.47,0,0,1,616,376a8.56,8.56,0,0,1,.57-3.12,7.88,7.88,0,0,1,1.63-2.59,7.75,7.75,0,0,1,2.6-1.79,8.64,8.64,0,0,1,3.45-.66,8.53,8.53,0,0,1,3.44.66,7.8,7.8,0,0,1,2.58,1.79,7.9,7.9,0,0,1,1.63,2.59,8.56,8.56,0,0,1,.57,3.12,8.47,8.47,0,0,1-.57,3.09,8,8,0,0,1-1.62,2.6,7.58,7.58,0,0,1-2.58,1.79A8.64,8.64,0,0,1,624.22,384.12ZM620.11,376a5.48,5.48,0,0,0,.31,1.91,4.65,4.65,0,0,0,.87,1.48,3.88,3.88,0,0,0,1.31,1,4,4,0,0,0,3.24,0,3.9,3.9,0,0,0,1.31-1,4.63,4.63,0,0,0,.87-1.5,5.58,5.58,0,0,0,.32-1.92,5.49,5.49,0,0,0-.32-1.89,4.63,4.63,0,0,0-.87-1.5,3.91,3.91,0,0,0-1.31-1,3.84,3.84,0,0,0-1.62-.34,3.68,3.68,0,0,0-1.62.36,4.06,4.06,0,0,0-1.31,1,4.63,4.63,0,0,0-.87,1.5A5.52,5.52,0,0,0,620.11,376Z" transform="translate(-262 -56)"/><line class="cls-5" x1="223.92" y1="318.5" x2="286.28" y2="318.5"/><path class="cls-2" d="M491.3,374.5l6.57-10.81-.37-.24-17.62,7-18.42,4.05,18.42,4.05,17.63,7,.37-.18Z" transform="translate(-262 -56)"/><polygon class="cls-2" points="307.46 318.5 277.61 330.7 284.69 318.5 277.61 306.31 307.46 318.5"/><line class="cls-5" x1="698" y1="838" x2="698" y2="597.18"/><polygon class="cls-2" points="698 576 710.2 605.85 698 598.76 685.81 605.85 698 576"/><line class="cls-5" x1="454" y1="687" x2="596.62" y2="587.61"/><polygon class="cls-2" points="614 575.5 596.49 602.57 595.32 588.52 582.54 582.56 614 575.5"/><line class="cls-5" x1="933" y1="687" x2="790.38" y2="587.61"/><polygon class="cls-2" points="773 575.5 804.46 582.56 791.68 588.52 790.52 602.57 773 575.5"/><polyline class="cls-5" points="522.32 541 475 541 475 251.5 522.82 251.5"/><polygon class="cls-2" points="543.5 541 513.65 528.8 520.74 541 513.65 553.19 543.5 541"/><polygon class="cls-2" points="544 251.5 514.15 263.7 521.24 251.5 514.15 239.31 544 251.5"/><path class="cls-2" d="M728.26,709.82V705.5h3.3v4.32Z" transform="translate(-262 -56)"/><path class="cls-2" d="M735,709.82V705.5h3.3v4.32Z" transform="translate(-262 -56)"/><path class="cls-2" d="M741.76,709.82V705.5h3.3v4.32Z" transform="translate(-262 -56)"/><path class="cls-2" d="M736.39,679.51v3.63H724.21v-3.63h4.26v-9.09a3.26,3.26,0,0,1-.85.74,12,12,0,0,1-1.28.71,9.09,9.09,0,0,1-1.42.54,4.81,4.81,0,0,1-1.31.21v-3.75a3.39,3.39,0,0,0,1.32-.35,11.31,11.31,0,0,0,1.53-.83,12.5,12.5,0,0,0,1.3-.94,3.21,3.21,0,0,0,.71-.74h4.11v13.5Z" transform="translate(-262 -56)"/><path class="cls-2" d="M716.87,672.91V678H712v5.31h-5.69V678H701.5v-5.08h4.84V667.6H712v5.31Z" transform="translate(-262 -56)"/><circle class="cls-2" cx="496.5" cy="618.43" r="15.5"/><circle class="cls-1" cx="496.5" cy="618.43" r="12.31"/><path class="cls-2" d="M736.39,641.51v3.63H724.21v-3.63h4.26v-9.09a3.26,3.26,0,0,1-.85.74,12,12,0,0,1-1.28.71,9.09,9.09,0,0,1-1.42.54,4.81,4.81,0,0,1-1.31.21v-3.75a3.39,3.39,0,0,0,1.32-.35,11.31,11.31,0,0,0,1.53-.83,12.5,12.5,0,0,0,1.3-.94,3.21,3.21,0,0,0,.71-.74h4.11v13.5Z" transform="translate(-262 -56)"/><path class="cls-2" d="M716.87,634.91V640H712v5.31h-5.69V640H701.5v-5.08h4.84V629.6H712v5.31Z" transform="translate(-262 -56)"/><circle class="cls-2" cx="496.5" cy="580.43" r="15.5"/><circle class="cls-1" cx="496.5" cy="580.43" r="12.31"/><path class="cls-2" d="M1167.26,709.82V705.5h3.3v4.32Z" transform="translate(-262 -56)"/><path class="cls-2" d="M1174,709.82V705.5h3.3v4.32Z" transform="translate(-262 -56)"/><path class="cls-2" d="M1180.76,709.82V705.5h3.3v4.32Z" transform="translate(-262 -56)"/><path class="cls-2" d="M1175.39,644.51v3.63h-12.18v-3.63h4.26v-9.09a3.26,3.26,0,0,1-.85.74,12,12,0,0,1-1.28.71,9.09,9.09,0,0,1-1.42.54,4.81,4.81,0,0,1-1.31.21v-3.75a3.39,3.39,0,0,0,1.32-.35,11.31,11.31,0,0,0,1.53-.83,12.5,12.5,0,0,0,1.3-.94,3.21,3.21,0,0,0,.71-.74h4.11v13.5Z" transform="translate(-262 -56)"/><path class="cls-2" d="M1141,644.08v-5.69h14.24v5.69Z" transform="translate(-262 -56)"/><circle class="cls-2" cx="935.5" cy="583.43" r="15.5"/><circle class="cls-1" cx="935.5" cy="583.43" r="12.31"/><path class="cls-2" d="M1175.39,682.51v3.63h-12.18v-3.63h4.26v-9.09a3.26,3.26,0,0,1-.85.74,12,12,0,0,1-1.28.71,9.09,9.09,0,0,1-1.42.54,4.81,4.81,0,0,1-1.31.21v-3.75a3.39,3.39,0,0,0,1.32-.35,11.31,11.31,0,0,0,1.53-.83,12.5,12.5,0,0,0,1.3-.94,3.21,3.21,0,0,0,.71-.74h4.11v13.5Z" transform="translate(-262 -56)"/><path class="cls-2" d="M1141,682.08v-5.69h14.24v5.69Z" transform="translate(-262 -56)"/><circle class="cls-2" cx="935.5" cy="621.43" r="15.5"/><circle class="cls-1" cx="935.5" cy="621.43" r="12.31"/><polyline class="cls-5" points="566.32 878.5 142.5 878.5 142.5 399.68"/><polygon class="cls-2" points="587.5 878.5 557.65 866.3 564.74 878.5 557.65 890.69 587.5 878.5"/><polygon class="cls-2" points="142.5 378.5 154.7 408.35 142.5 401.26 130.31 408.35 142.5 378.5"/><polyline class="cls-5" points="345.61 878.5 345.61 413.5 414.5 413.5 414.5 250.5 474.5 251.5"/><polyline class="cls-5" points="543 726.5 647.5 726.5 647.5 596.18"/><polygon class="cls-2" points="647.5 575 659.7 604.85 647.5 597.76 635.31 604.85 647.5 575"/></svg>