<?xml version="1.0" encoding="utf-8"?>
<!-- Generator: Adobe Illustrator 21.0.2, SVG Export Plug-In . SVG Version: 6.00 Build 0)  -->
<svg version="1.1" id="Layer_1" xmlns="http://www.w3.org/2000/svg" xmlns:xlink="http://www.w3.org/1999/xlink" x="0px" y="0px"
	 viewBox="0 0 1920 1080" style="enable-background:new 0 0 1920 1080;" xml:space="preserve">
<style type="text/css">
	.st0{fill:#BBDEFB;}
	.st1{fill:#F5F5F5;}
	.st2{fill:#4CAE4E;}
	.st3{fill:#FFFFFF;}
	.st4{fill:#81C684;}
	.st5{fill:#378E43;}
	.st6{fill:#F8BF2C;}
	.st7{fill:#FDE939;}
	.st8{fill:none;stroke:#FFFFFF;stroke-width:2;stroke-linejoin:round;}
	.st9{fill:none;stroke:#FFFFFF;stroke-width:2;stroke-linejoin:round;stroke-dasharray:9.79,9.79;}
	.st10{fill:#4CAF50;}
	.st11{fill:#E0E0E0;}
	.st12{fill:#757575;}
	.st13{fill:#BDBDBD;}
	.st14{fill:#9E9E9E;}
	.st15{fill:#2196F3;}
	.st16{fill:#64B5F6;}
</style>
<title>hero-large</title>
<rect class="st0" width="1920" height="1080"/>
<path class="st1" d="M340,168c-1.5,0-3,0.1-4.4,0.2C323.2,147,300.5,134,276,134l0,0c-7.7-25.9-35-40.7-61-33
	c-7.8,2.3-14.8,6.5-20.6,12.2c-22.6-29.5-61.1-42.1-96.8-31.6C74.3,52.8,32.3,47.5,2.6,69.8c-0.8-1.1-1.7-2.2-2.6-3.4V331
	c6.4-5.1,11.8-11.3,16.1-18.3c26.9,27,70.6,27.1,97.6,0.3c0.4-0.4,0.8-0.8,1.2-1.3c21.3,16.6,52.1,12.8,68.8-8.5
	c3.9-5,6.7-10.6,8.5-16.7c15.7,22,46.3,27.1,68.3,11.4c8.9-6.4,15.4-15.5,18.5-26c13.1-0.5,25.9-4.9,36.6-12.4
	c23.5,13.5,53.4,5.4,66.9-18.1c13.5-23.5,5.4-53.4-18.1-66.9C357,170.2,348.6,168,340,168z"/>
<path class="st1" d="M631,0c0,38.1,30.9,69,69,69c5.3,0,10.6-0.6,15.7-1.8c8.4,37.2,45.3,60.5,82.5,52.1c6.2-1.4,12.3-3.7,17.9-6.8
	c10.8,24.8,39.7,36.2,64.5,25.4c7.8-3.4,14.6-8.8,19.7-15.6c21.7,31.3,64.7,39.1,96,17.4c8-5.5,14.7-12.7,19.8-21.1
	c26.9,27,70.6,27.1,97.6,0.3c0.4-0.4,0.8-0.8,1.2-1.3c21.3,16.6,52.1,12.8,68.8-8.5c6.7-8.6,10.3-19.2,10.3-30.1c0-0.6,0-1.2,0-1.8
	c26.1,7.2,53.1-8.2,60.2-34.3c4.1-14.9,0.9-30.8-8.5-42.9H631z"/>
<path class="st1" d="M1736.9,0c-2.2,6.1-3.5,12.5-3.8,19c-35.3,14.3-52.4,54.5-38.1,89.9c12.8,31.5,46.5,49,79.6,41.3
	c8.4,37.2,45.3,60.5,82.5,52.1c6.2-1.4,12.3-3.7,17.9-6.8c7.3,16.9,23.5,28.2,41.9,29.4V0H1736.9z"/>
<path class="st2" d="M1604.3,1080c-23.3-164.9-194.8-293-402.8-293S822,915.1,798.7,1080H1604.3z"/>
<rect x="-118" y="1838" class="st3" width="2162" height="1126"/>
<path class="st2" d="M1224.9,1080c-33-167-220.7-295-447.4-295s-414.4,128-447.4,295H1224.9z"/>
<path class="st2" d="M1,1080v-15h696.3C588.7,905.2,380.3,797,141,797c-47.3,0-94.5,4.3-141,12.8V1080H1z"/>
<path class="st4" d="M1574.3,1080c-50.2-130.8-290-230-578.3-230s-528.1,99.2-578.3,230H1574.3z"/>
<path class="st2" d="M1920,1080V858.9c-66.2-55.6-150-86-236.5-85.9c-182.5,0-334.1,132.8-363.4,307H1920z"/>
<path class="st4" d="M1920,1080V874.4c-63.6-11.2-132.3-17.4-204-17.4c-283.1,0-519.5,95.6-575.4,223H1920z"/>
<path class="st4" d="M876.7,1080C827.3,948.7,587,849,298,849c-108.8,0-210.6,14.1-298,38.7V1080H876.7z"/>
<g id="logo">
	<path class="st2" d="M913.8,338.7V358h-57.4v-80.5h56.4v19.3h-34.2v11.3h29.3V326h-29.3v12.7H913.8z"/>
	<path class="st2" d="M946.3,318.4V358h-22.1v-80.5h17.2l32.3,40.9v-40.9h22.1V358h-17.6L946.3,318.4z"/>
	<path class="st2" d="M1067,338.7V358h-57.4v-80.5h56.4v19.3h-34.2v11.3h29.2V326h-29.3v12.7H1067z"/>
	<path class="st2" d="M1077.4,358v-80.5h37c3.8,0,7.5,0.8,10.9,2.4c3.2,1.6,6.1,3.7,8.6,6.4c2.4,2.6,4.3,5.7,5.6,9
		c1.3,3.2,2,6.7,2,10.1c0,4.5-1,9-3.1,13.1c-2,4-4.9,7.4-8.5,9.9l17,29.6h-24.9l-14.2-24.7h-8.3V358H1077.4z M1099.5,314h13.9
		c1.6-0.1,3-1,3.8-2.3c1.3-1.9,1.9-4.1,1.8-6.4c0-2.8-0.7-4.9-2-6.4c-1-1.3-2.5-2.1-4.1-2.2h-13.4L1099.5,314z"/>
	<path class="st2" d="M1215.5,296.7h-23.1V358h-22.1v-61.3H1147v-19.3h68.5L1215.5,296.7z"/>
	<path class="st2" d="M1223.5,358v-80.5h22.1V358H1223.5z"/>
	<path class="st2" d="M1314.6,354.1c-2.8,1.4-5.8,2.6-8.9,3.3c-3.3,0.8-6.6,1.1-9.9,1.1c-5.7,0.1-11.4-1.1-16.7-3.5
		c-4.8-2.2-9.2-5.3-12.8-9.2c-3.6-3.8-6.4-8.3-8.3-13.1c-2-4.8-3-10-2.9-15.2c0-5.3,1-10.5,3.1-15.3c4.1-9.9,11.8-17.8,21.6-22.1
		c5.2-2.3,10.8-3.4,16.5-3.4c5.8-0.1,11.5,1.1,16.7,3.6c9.6,4.5,17.2,12.6,21,22.5c1.9,4.8,2.9,9.9,2.9,15.1c0,4.9-0.9,9.8-2.7,14.3
		c-1.7,4.5-4.3,8.7-7.5,12.3l12.3,13.3h-20.6L1314.6,354.1z M1296,338.9c1.4,0,2.8-0.1,4.2-0.5l-13.3-14.5h20.6l4.4,4.9
		c0.8-1.7,1.4-3.6,1.8-5.4c0.4-1.9,0.6-3.8,0.6-5.8c0-2.7-0.4-5.3-1.1-7.9c-0.7-2.4-1.9-4.7-3.5-6.8c-1.6-2-3.5-3.6-5.8-4.7
		c-2.5-1.2-5.3-1.8-8.1-1.8c-2.9-0.1-5.7,0.6-8.2,1.9c-2.2,1.2-4.2,2.9-5.7,4.9c-1.5,2-2.7,4.3-3.3,6.8c-0.7,2.5-1.1,5.1-1.1,7.8
		c0,2.7,0.4,5.3,1.1,7.9c0.7,2.4,1.9,4.7,3.4,6.8c1.5,2,3.5,3.6,5.7,4.7C1290.3,338.4,1293.2,339,1296,338.9L1296,338.9z"/>
	<polygon class="st5" points="700,180.8 818.9,249.4 818.9,386.6 700,318 	"/>
	<polygon class="st4" points="581.2,386.6 700,318 818.9,386.6 700,455.2 	"/>
	<polygon class="st2" points="581.2,249.4 700,180.8 700,318 581.2,386.6 	"/>
	<circle class="st6" cx="700" cy="318" r="75"/>
	<circle class="st7" cx="700" cy="318" r="58.7"/>
	<line class="st8" x1="581.2" y1="249.4" x2="585.5" y2="251.9"/>
	<line class="st9" x1="594" y1="256.8" x2="691.5" y2="313"/>
	<polyline class="st8" points="695.7,315.5 700,318 700,323 	"/>
	<line class="st9" x1="700" y1="332.8" x2="700" y2="445.4"/>
	<line class="st8" x1="700" y1="450.2" x2="700" y2="455.2"/>
	<line class="st8" x1="818.9" y1="249.4" x2="814.6" y2="251.9"/>
	<line class="st9" x1="806.1" y1="256.8" x2="708.6" y2="313"/>
	<polyline class="st8" points="704.4,315.5 700,318 695.7,315.5 	"/>
	<line class="st9" x1="687.2" y1="310.6" x2="589.8" y2="254.3"/>
	<line class="st8" x1="585.5" y1="251.9" x2="581.2" y2="249.4"/>
	<line class="st8" x1="700" y1="455.2" x2="700" y2="450.2"/>
	<line class="st9" x1="700" y1="440.5" x2="700" y2="327.9"/>
	<polyline class="st8" points="700,323 700,318 704.4,315.5 	"/>
	<line class="st9" x1="712.8" y1="310.6" x2="810.3" y2="254.3"/>
	<line class="st8" x1="814.6" y1="251.9" x2="818.9" y2="249.4"/>
	<path class="st10" d="M511,489.6c-0.3-0.3-0.6-0.5-0.9-0.7c-0.5-0.3-1.1-0.6-1.7-0.9c-0.7-0.3-1.4-0.5-2.1-0.7
		c-0.7-0.2-1.5-0.3-2.3-0.3c-1.1-0.1-2.2,0.2-3.1,0.8c-0.7,0.5-1,1.3-1,2.2c0,0.5,0.1,1,0.4,1.4c0.3,0.4,0.7,0.7,1.1,0.9
		c0.6,0.3,1.2,0.6,1.9,0.7c0.8,0.2,1.6,0.5,2.6,0.7c1.3,0.3,2.4,0.7,3.5,1.1c1,0.3,1.9,0.8,2.7,1.5c0.7,0.6,1.3,1.3,1.7,2.1
		c0.4,1,0.6,2,0.6,3c0,1.3-0.2,2.5-0.8,3.6c-0.5,1-1.2,1.8-2.1,2.4c-0.9,0.6-2,1.1-3.1,1.4c-1.2,0.3-2.4,0.4-3.7,0.4
		c-2,0-4-0.3-5.9-0.9c-1.9-0.6-3.6-1.4-5.2-2.5l2.3-4.4c0.4,0.3,0.8,0.6,1.2,0.9c0.7,0.4,1.3,0.8,2,1.1c0.8,0.4,1.7,0.7,2.6,0.9
		c1,0.3,2,0.4,3,0.4c2.8,0,4.2-0.9,4.2-2.7c0-0.5-0.2-1-0.5-1.4c-0.4-0.4-0.8-0.8-1.4-1c-0.7-0.3-1.4-0.6-2.1-0.8l-2.9-0.8
		c-1.1-0.3-2.2-0.7-3.3-1.1c-0.8-0.4-1.6-0.8-2.3-1.4c-0.6-0.5-1.1-1.2-1.4-1.9c-0.3-0.8-0.5-1.7-0.5-2.6c0-1.2,0.2-2.4,0.7-3.5
		c0.5-1,1.2-1.9,2-2.6c0.9-0.7,1.9-1.2,3-1.6c1.2-0.4,2.5-0.5,3.7-0.5c1.7,0,3.5,0.3,5.1,0.9c1.4,0.5,2.8,1.2,4.1,2L511,489.6z"/>
	<path class="st10" d="M547.7,509h-5v-10.9c0.1-1.2-0.2-2.4-0.8-3.4c-0.5-0.7-1.3-1.1-2.2-1.1c-1,0-2,0.4-2.8,1.1
		c-0.9,0.8-1.5,1.8-1.8,2.9V509h-5v-10.9c0.1-1.2-0.2-2.4-0.8-3.4c-0.5-0.7-1.3-1.1-2.2-1.1c-1,0-2,0.4-2.8,1.1
		c-0.9,0.8-1.5,1.8-1.9,2.9V509h-5v-19.4h4.5v3.6c0.7-1.2,1.7-2.2,2.9-2.9c1.3-0.7,2.8-1,4.3-1c1.4-0.1,2.7,0.3,3.8,1.2
		c0.9,0.8,1.5,1.8,1.7,2.9c0.7-1.3,1.8-2.3,3-3c1.3-0.7,2.7-1.1,4.1-1c1,0,2,0.2,2.9,0.7c0.7,0.4,1.3,1,1.8,1.7
		c0.4,0.8,0.7,1.6,0.9,2.4c0.2,0.9,0.2,1.8,0.2,2.8L547.7,509z"/>
	<path class="st10" d="M557.3,509.4c-0.9,0-1.8-0.1-2.6-0.5c-0.8-0.3-1.5-0.7-2.1-1.3c-0.6-0.5-1.1-1.2-1.4-1.9
		c-0.3-0.8-0.5-1.6-0.5-2.4c0-0.9,0.2-1.7,0.6-2.5c0.4-0.8,1-1.5,1.7-2c0.8-0.6,1.7-1,2.6-1.3c1.1-0.3,2.2-0.5,3.3-0.5
		c0.8,0,1.7,0.1,2.5,0.2c0.8,0.1,1.5,0.3,2.2,0.6v-1.1c0.1-1.1-0.3-2.2-1.1-3c-0.9-0.7-2.1-1.1-3.2-1c-1,0-2,0.2-3,0.5
		c-1.1,0.4-2.1,1-3,1.6l-1.5-3.1c2.4-1.6,5.2-2.5,8.1-2.5c2.3-0.1,4.7,0.6,6.5,2c1.6,1.5,2.5,3.7,2.3,5.9v6c0,0.4,0.1,0.8,0.3,1.1
		c0.2,0.2,0.6,0.4,0.9,0.4v4.3c-0.7,0.2-1.4,0.2-2.2,0.3c-0.8,0-1.5-0.2-2.2-0.6c-0.5-0.4-0.8-1-0.9-1.7l-0.1-1.1
		c-0.8,1.1-1.9,2-3.2,2.6C560.1,509.1,558.7,509.4,557.3,509.4z M558.7,505.7c0.8,0,1.6-0.1,2.4-0.4c0.7-0.2,1.3-0.6,1.8-1.2
		c0.5-0.3,0.8-0.8,0.8-1.4v-2.2c-0.6-0.2-1.3-0.4-1.9-0.5c-0.7-0.1-1.3-0.2-2-0.2c-1.1,0-2.2,0.3-3.2,0.9c-0.8,0.5-1.2,1.3-1.2,2.2
		c0,0.8,0.4,1.6,1,2.1C557,505.5,557.9,505.8,558.7,505.7L558.7,505.7z"/>
	<path class="st10" d="M584.8,493.9c-1.4,0-2.7,0.3-4,0.9c-1.1,0.5-2,1.4-2.5,2.5V509h-5v-19.4h4.5v4.1c0.3-0.6,0.7-1.2,1.2-1.8
		c0.5-0.5,1-1,1.5-1.4c0.5-0.4,1.1-0.7,1.7-0.9c0.5-0.2,1.1-0.3,1.6-0.3h0.6c0.1,0,0.3,0,0.4,0L584.8,493.9z"/>
	<path class="st10" d="M599.2,508c-0.8,0.3-1.6,0.6-2.4,0.9c-1,0.3-2,0.4-3,0.4c-0.7,0-1.3-0.1-1.9-0.3c-0.6-0.2-1.1-0.4-1.6-0.8
		c-0.5-0.4-0.8-0.9-1.1-1.5c-0.3-0.7-0.4-1.4-0.4-2.2v-11.1h-2.5v-3.8h2.5v-6.3h5v6.3h4.1v3.8h-4.1v9.5c-0.1,0.5,0.1,1.1,0.5,1.5
		c0.4,0.3,0.8,0.4,1.3,0.4c0.5,0,1-0.1,1.5-0.3c0.5-0.2,0.9-0.3,1.2-0.4L599.2,508z"/>
	<path class="st10" d="M616,509.4c-0.9,0-1.8-0.1-2.6-0.5c-0.8-0.3-1.5-0.7-2.1-1.3c-0.6-0.5-1.1-1.2-1.4-1.9
		c-0.3-0.8-0.5-1.6-0.5-2.4c0-0.9,0.2-1.7,0.6-2.5c0.4-0.8,1-1.5,1.7-2c0.8-0.6,1.7-1,2.6-1.3c1.1-0.3,2.2-0.5,3.3-0.5
		c0.8,0,1.7,0.1,2.5,0.2c0.8,0.1,1.5,0.3,2.2,0.6v-1.1c0.1-1.1-0.3-2.2-1.1-3c-0.9-0.7-2.1-1.1-3.2-1c-1,0-2,0.2-3,0.5
		c-1.1,0.4-2.1,1-3,1.6l-1.5-3.1c2.4-1.6,5.2-2.5,8.1-2.5c2.3-0.1,4.7,0.6,6.5,2c1.6,1.5,2.5,3.7,2.3,5.9v6c0,0.4,0.1,0.8,0.3,1.1
		c0.2,0.2,0.6,0.4,0.9,0.4v4.3c-0.7,0.2-1.4,0.2-2.2,0.3c-0.8,0-1.5-0.2-2.2-0.6c-0.5-0.4-0.8-1-0.9-1.7l-0.1-1.1
		c-0.8,1.1-1.9,2-3.2,2.6C618.8,509.1,617.4,509.4,616,509.4z M617.4,505.7c0.8,0,1.6-0.1,2.4-0.4c0.7-0.2,1.3-0.6,1.8-1.2
		c0.5-0.3,0.8-0.8,0.8-1.4v-2.2c-0.6-0.2-1.3-0.4-1.9-0.5c-0.7-0.1-1.3-0.2-2-0.2c-1.1,0-2.2,0.3-3.2,0.9c-0.8,0.5-1.2,1.3-1.2,2.2
		c0,0.8,0.4,1.6,1,2.1C615.7,505.5,616.5,505.7,617.4,505.7L617.4,505.7z"/>
	<path class="st10" d="M649.9,509h-5v-10.9c0.1-1.2-0.2-2.4-0.8-3.4c-0.5-0.7-1.4-1.1-2.3-1.1c-0.5,0-1,0.1-1.5,0.3
		c-0.5,0.2-1,0.5-1.5,0.8c-0.5,0.4-0.9,0.8-1.2,1.3c-0.4,0.5-0.6,1-0.8,1.6V509h-5v-19.4h4.5v3.6c0.7-1.2,1.8-2.3,3.1-2.9
		c1.4-0.7,3-1,4.6-1c1,0,2.1,0.2,3,0.7c0.7,0.4,1.3,1,1.8,1.7c0.4,0.8,0.7,1.6,0.9,2.4c0.2,0.9,0.2,1.8,0.2,2.8L649.9,509z"/>
	<path class="st10" d="M662.3,509.4c-1.3,0-2.5-0.3-3.7-0.8c-1.1-0.5-2.1-1.2-2.9-2.1c-0.8-0.9-1.5-2-1.9-3.2
		c-0.5-1.3-0.7-2.6-0.7-3.9c0-1.3,0.2-2.7,0.7-3.9c0.4-1.2,1-2.2,1.8-3.2c0.8-0.9,1.7-1.6,2.7-2.1c1.1-0.5,2.3-0.8,3.5-0.8
		c1.4,0,2.7,0.3,3.9,1c1.1,0.7,2,1.6,2.7,2.7v-11h5v21.3c0,0.4,0.1,0.8,0.3,1.1c0.2,0.2,0.6,0.4,0.9,0.4v4.2
		c-0.7,0.2-1.4,0.2-2.1,0.3c-0.8,0-1.6-0.2-2.2-0.7c-0.6-0.4-0.9-1-1-1.7l-0.1-1.2c-0.7,1.2-1.7,2.2-2.9,2.8
		C664.9,509,663.6,509.4,662.3,509.4z M663.6,505.1c0.5,0,1-0.1,1.4-0.2c0.5-0.2,1-0.4,1.4-0.7c0.4-0.3,0.8-0.6,1.1-1
		c0.3-0.4,0.6-0.8,0.8-1.3v-4.6c-0.2-0.5-0.5-1-0.8-1.5c-0.4-0.4-0.8-0.8-1.2-1.2c-0.4-0.3-0.9-0.6-1.4-0.8c-0.5-0.2-1-0.3-1.5-0.3
		c-0.7,0-1.4,0.2-2,0.5c-0.6,0.3-1.2,0.8-1.6,1.3c-0.4,0.6-0.8,1.2-1,1.9c-0.2,0.7-0.4,1.5-0.4,2.2c0,0.8,0.1,1.5,0.4,2.3
		c0.3,0.7,0.6,1.3,1.1,1.8c0.5,0.5,1,0.9,1.7,1.2C662.1,505,662.8,505.2,663.6,505.1L663.6,505.1z"/>
	<path class="st10" d="M696,509.4c-1.5,0-2.9-0.3-4.2-0.8c-1.2-0.5-2.3-1.3-3.2-2.2c-0.9-0.9-1.5-2-2-3.2c-0.5-1.2-0.7-2.5-0.7-3.8
		c0-1.3,0.2-2.6,0.7-3.9c0.5-1.2,1.1-2.3,2-3.2c0.9-0.9,2-1.7,3.2-2.2c1.3-0.6,2.8-0.8,4.2-0.8c1.5,0,2.9,0.2,4.2,0.8
		c1.2,0.5,2.3,1.3,3.2,2.2c0.9,0.9,1.5,2,2,3.2c0.5,1.2,0.7,2.5,0.7,3.9c0,1.3-0.2,2.6-0.7,3.8c-0.5,1.2-1.1,2.3-2,3.2
		c-0.9,0.9-2,1.7-3.2,2.2C698.9,509.1,697.5,509.4,696,509.4z M690.9,499.4c0,0.8,0.1,1.6,0.4,2.4c0.2,0.7,0.6,1.3,1.1,1.8
		c0.4,0.5,1,0.9,1.6,1.2c1.3,0.6,2.7,0.6,4,0c0.6-0.3,1.2-0.7,1.6-1.2c0.5-0.5,0.8-1.2,1.1-1.9c0.3-0.8,0.4-1.6,0.4-2.4
		c0-0.8-0.1-1.6-0.4-2.3c-0.2-0.7-0.6-1.3-1.1-1.9c-0.4-0.5-1-0.9-1.6-1.2c-0.6-0.3-1.3-0.4-2-0.4c-0.7,0-1.4,0.1-2,0.4
		c-0.6,0.3-1.2,0.7-1.6,1.2c-0.5,0.5-0.8,1.2-1.1,1.9C691,497.8,690.9,498.6,690.9,499.4L690.9,499.4z"/>
	<path class="st10" d="M721,509.4c-1.4,0-2.8-0.3-4-1c-1.1-0.7-2-1.6-2.7-2.8v11.3h-5v-27.3h4.3v3.3c0.7-1.1,1.6-2,2.8-2.7
		c1.2-0.7,2.5-1,3.9-1c1.3,0,2.5,0.3,3.6,0.8c1.1,0.5,2.1,1.2,2.9,2.1c0.8,0.9,1.5,2,1.9,3.2c0.5,1.2,0.7,2.5,0.7,3.9
		c0,1.4-0.2,2.7-0.6,4c-0.4,1.2-1,2.3-1.8,3.2c-0.7,0.9-1.6,1.6-2.7,2.1C723.3,509.1,722.2,509.4,721,509.4z M719.3,505.1
		c0.7,0,1.4-0.2,2-0.5c0.6-0.3,1.2-0.8,1.6-1.3c0.4-0.6,0.8-1.2,1-1.9c0.2-0.7,0.4-1.5,0.4-2.2c0-0.8-0.1-1.5-0.4-2.3
		c-0.3-0.7-0.6-1.3-1.1-1.8c-0.5-0.5-1.1-0.9-1.7-1.2c-0.7-0.3-1.4-0.4-2.1-0.4c-0.5,0-1,0.1-1.4,0.2c-0.5,0.2-1,0.4-1.4,0.7
		c-0.4,0.3-0.8,0.6-1.1,1c-0.3,0.4-0.6,0.8-0.8,1.3v4.5c0.4,1.1,1.1,2,2,2.8C717.2,504.8,718.3,505.2,719.3,505.1L719.3,505.1z"/>
	<path class="st10" d="M741.9,509.4c-1.4,0-2.9-0.3-4.2-0.8c-2.4-1-4.3-2.9-5.3-5.4c-0.5-1.2-0.7-2.5-0.7-3.8c0-1.3,0.2-2.7,0.7-3.9
		c0.4-1.2,1.1-2.3,2-3.2c0.9-0.9,2-1.7,3.2-2.2c1.4-0.6,2.8-0.8,4.3-0.8c1.5,0,2.9,0.2,4.2,0.8c1.2,0.5,2.3,1.2,3.2,2.2
		c0.9,0.9,1.6,2,2,3.2c0.5,1.2,0.7,2.5,0.7,3.8c0,0.3,0,0.6,0,0.9c0,0.2,0,0.5-0.1,0.7h-15c0.1,0.7,0.3,1.4,0.6,2
		c0.6,1.1,1.5,2,2.7,2.5c0.6,0.2,1.2,0.3,1.8,0.3c1,0,1.9-0.2,2.8-0.7c0.8-0.4,1.4-1.1,1.8-1.9l4.2,1.2c-0.8,1.5-1.9,2.8-3.4,3.6
		C745.8,508.9,743.8,509.4,741.9,509.4z M746.9,497.7c-0.1-1.3-0.6-2.6-1.6-3.5c-1.9-1.8-4.9-1.8-6.9,0c-0.5,0.4-0.8,1-1.1,1.5
		c-0.3,0.6-0.5,1.3-0.5,2L746.9,497.7z"/>
	<path class="st10" d="M773.1,509h-5v-10.9c0.1-1.2-0.2-2.4-0.8-3.4c-0.5-0.7-1.4-1.1-2.3-1.1c-0.5,0-1,0.1-1.5,0.3
		c-0.5,0.2-1,0.5-1.5,0.8c-0.5,0.4-0.9,0.8-1.2,1.3c-0.4,0.5-0.6,1-0.8,1.6V509h-5v-19.4h4.5v3.6c0.7-1.2,1.8-2.3,3.1-2.9
		c1.4-0.7,3-1,4.6-1c1,0,2.1,0.2,3,0.7c0.7,0.4,1.3,1,1.8,1.7c0.4,0.8,0.7,1.6,0.9,2.4c0.2,0.9,0.2,1.8,0.2,2.8L773.1,509z"/>
	<path class="st10" d="M797.3,509.4c-1.4,0-2.8-0.3-4-1c-1.1-0.6-2.1-1.6-2.7-2.7v3.4h-4.3v-27h5v11c0.6-1.1,1.6-2.1,2.7-2.8
		c1.2-0.7,2.6-1,3.9-1c1.2,0,2.4,0.3,3.4,0.8c1,0.5,1.9,1.3,2.7,2.2c0.8,1,1.4,2,1.7,3.2c0.4,1.3,0.6,2.6,0.6,3.9
		c0,1.3-0.2,2.7-0.7,3.9c-0.4,1.2-1.1,2.2-1.9,3.2c-0.8,0.9-1.8,1.6-2.9,2.1C799.8,509.1,798.5,509.4,797.3,509.4z M795.9,505.1
		c0.8,0,1.5-0.1,2.2-0.5c0.6-0.3,1.2-0.7,1.7-1.2c0.5-0.5,0.8-1.1,1.1-1.8c0.3-0.7,0.4-1.5,0.4-2.2c0-0.8-0.1-1.5-0.4-2.3
		c-0.2-0.7-0.6-1.3-1-1.9c-0.4-0.5-1-1-1.6-1.3c-0.6-0.3-1.3-0.5-2-0.5c-1.1,0-2.2,0.4-3,1.1c-0.9,0.7-1.6,1.6-2,2.7v4.6
		c0.2,0.5,0.4,0.9,0.8,1.3c0.3,0.4,0.7,0.7,1.1,1c0.4,0.3,0.9,0.5,1.4,0.7C795,505.1,795.4,505.1,795.9,505.1L795.9,505.1z"/>
	<path class="st10" d="M815.7,509.4c-1.7,0.1-3.4-0.6-4.5-1.9c-1.1-1.7-1.7-3.7-1.5-5.7v-12.1h5v11.1c0,3,1.1,4.5,3.2,4.5
		c1,0,2-0.3,2.8-0.9c1-0.7,1.7-1.6,2.2-2.6v-12h5v13.7c0,0.4,0.1,0.8,0.3,1.1c0.2,0.2,0.6,0.4,0.9,0.4v4.2c-0.4,0.1-0.8,0.2-1.2,0.2
		c-0.3,0-0.6,0-0.9,0c-0.8,0-1.5-0.2-2.2-0.6c-0.6-0.4-0.9-1-1-1.7l-0.1-1.5c-0.8,1.3-2,2.3-3.3,3
		C818.8,509,817.2,509.4,815.7,509.4z"/>
	<path class="st10" d="M832.6,486.9V482h5v4.9L832.6,486.9z M832.6,509v-19.4h5V509H832.6z"/>
	<path class="st10" d="M842,482h5v20.8c0,0.6,0.1,1.2,0.5,1.7c0.4,0.4,0.9,0.6,1.5,0.6c0.3,0,0.7-0.1,1-0.1c0.3-0.1,0.7-0.2,1-0.4
		l0.7,3.8c-0.7,0.3-1.5,0.6-2.3,0.7c-0.8,0.2-1.6,0.2-2.4,0.3c-1.3,0.1-2.6-0.4-3.6-1.2c-0.9-0.9-1.4-2.2-1.3-3.5L842,482z"/>
	<path class="st10" d="M861.8,509.4c-1.3,0-2.5-0.3-3.7-0.8c-1.1-0.5-2.1-1.2-2.9-2.1c-0.8-0.9-1.5-2-1.9-3.2
		c-0.5-1.3-0.7-2.6-0.7-3.9c0-1.3,0.2-2.7,0.7-3.9c0.4-1.2,1-2.2,1.8-3.2c0.8-0.9,1.7-1.6,2.7-2.1c1.1-0.5,2.3-0.8,3.5-0.8
		c1.4,0,2.7,0.3,3.9,1c1.1,0.7,2,1.6,2.7,2.7v-11h5v21.3c0,0.4,0.1,0.8,0.3,1.1c0.2,0.2,0.6,0.4,0.9,0.4v4.2
		c-0.7,0.2-1.4,0.2-2.1,0.3c-0.8,0-1.6-0.2-2.2-0.7c-0.6-0.4-0.9-1-1-1.7l-0.1-1.2c-0.7,1.2-1.7,2.2-2.9,2.8
		C864.4,509,863.1,509.4,861.8,509.4z M863.1,505.1c0.5,0,1-0.1,1.4-0.2c0.5-0.2,1-0.4,1.4-0.7c0.4-0.3,0.8-0.6,1.1-1
		c0.3-0.4,0.6-0.8,0.8-1.3v-4.6c-0.2-0.5-0.5-1-0.8-1.5c-0.4-0.4-0.8-0.8-1.2-1.2c-0.4-0.3-0.9-0.6-1.4-0.8c-0.5-0.2-1-0.3-1.5-0.3
		c-0.7,0-1.4,0.2-2,0.5c-0.6,0.3-1.2,0.8-1.6,1.3c-0.4,0.6-0.8,1.2-1,1.9c-0.2,0.7-0.4,1.5-0.4,2.2c0,0.8,0.1,1.5,0.4,2.3
		c0.3,0.7,0.6,1.3,1.1,1.8c0.5,0.5,1,0.9,1.7,1.2C861.6,505,862.3,505.2,863.1,505.1L863.1,505.1z"/>
	<path class="st10" d="M877.6,486.9V482h5v4.9L877.6,486.9z M877.6,509v-19.4h5V509H877.6z"/>
	<path class="st10" d="M905.1,509h-5v-10.9c0.1-1.2-0.2-2.4-0.8-3.4c-0.5-0.7-1.4-1.1-2.3-1.1c-0.5,0-1,0.1-1.5,0.3
		c-0.5,0.2-1,0.5-1.5,0.8c-0.5,0.4-0.9,0.8-1.2,1.3c-0.4,0.5-0.6,1-0.8,1.6V509h-5v-19.4h4.5v3.6c0.7-1.2,1.8-2.3,3.1-2.9
		c1.4-0.7,3-1,4.6-1c1,0,2.1,0.2,3,0.7c0.7,0.4,1.3,1,1.8,1.7c0.4,0.8,0.7,1.6,0.9,2.4c0.2,0.9,0.2,1.8,0.2,2.8L905.1,509z"/>
	<path class="st10" d="M917,509.1c-1.2,0-2.4-0.3-3.5-0.8c-1.1-0.5-2-1.2-2.8-2.1c-0.8-0.9-1.4-2-1.8-3.1c-0.9-2.5-0.9-5.2,0-7.7
		c0.4-1.2,1-2.2,1.8-3.2c0.8-0.9,1.8-1.6,2.8-2.1c1.1-0.5,2.4-0.8,3.7-0.8c1.4,0,2.8,0.3,4,1c1.1,0.7,2.1,1.6,2.8,2.7v-3.4h4.3V508
		c0,1.3-0.3,2.6-0.8,3.9c-0.5,1.1-1.3,2.1-2.2,2.9c-1,0.8-2.2,1.4-3.4,1.8c-1.4,0.4-2.8,0.6-4.3,0.6c-1.8,0.1-3.7-0.3-5.3-1
		c-1.4-0.7-2.7-1.7-3.7-3l2.7-2.6c0.8,0.9,1.7,1.7,2.8,2.2c1.1,0.5,2.3,0.8,3.6,0.8c0.7,0,1.5-0.1,2.2-0.3c0.7-0.2,1.3-0.5,1.9-1
		c0.6-0.5,1-1,1.3-1.7c0.3-0.8,0.5-1.6,0.5-2.4v-2.4c-0.6,1.1-1.6,2-2.7,2.6C919.6,508.8,918.3,509.1,917,509.1z M918.7,505.1
		c0.5,0,1.1-0.1,1.5-0.3c1-0.3,1.8-0.9,2.5-1.7c0.3-0.4,0.6-0.8,0.7-1.3v-4.6c-0.4-1.1-1.1-2.1-2.1-2.7c-0.9-0.6-1.9-1-3-1
		c-0.7,0-1.4,0.2-2.1,0.5c-0.6,0.3-1.2,0.8-1.6,1.3c-0.4,0.6-0.8,1.2-1,1.9c-0.2,0.7-0.4,1.5-0.3,2.2c0,0.8,0.1,1.5,0.4,2.2
		c0.3,0.7,0.6,1.3,1.1,1.8c0.5,0.5,1,0.9,1.7,1.2C917.2,505,917.9,505.2,918.7,505.1L918.7,505.1z"/>
	<path class="st10" d="M952.8,509.4c-1.4,0-2.8-0.3-4-1c-1.1-0.6-2.1-1.6-2.7-2.7v3.4h-4.3v-27h5v11c0.6-1.1,1.6-2.1,2.7-2.8
		c1.2-0.7,2.6-1,3.9-1c1.2,0,2.4,0.3,3.4,0.8c1,0.5,1.9,1.3,2.7,2.2c0.8,1,1.4,2,1.7,3.2c0.4,1.3,0.6,2.6,0.6,3.9
		c0,1.3-0.2,2.7-0.7,3.9c-0.4,1.2-1.1,2.2-1.9,3.2c-0.8,0.9-1.8,1.6-2.9,2.1C955.2,509.1,954,509.4,952.8,509.4z M951.4,505.1
		c0.8,0,1.5-0.1,2.2-0.5c0.6-0.3,1.2-0.7,1.7-1.2c0.5-0.5,0.8-1.1,1.1-1.8c0.3-0.7,0.4-1.5,0.4-2.2c0-0.8-0.1-1.5-0.4-2.3
		c-0.2-0.7-0.6-1.3-1-1.9c-0.4-0.5-1-1-1.6-1.3c-0.6-0.3-1.3-0.5-2-0.5c-1.1,0-2.2,0.4-3,1.1c-0.9,0.7-1.6,1.6-2,2.7v4.6
		c0.2,0.5,0.4,0.9,0.8,1.3c0.3,0.4,0.7,0.7,1.1,1c0.4,0.3,0.9,0.5,1.4,0.7C950.4,505.1,950.9,505.1,951.4,505.1z"/>
	<path class="st10" d="M965.2,482h5v20.8c0,0.6,0.1,1.2,0.5,1.7c0.4,0.4,0.9,0.6,1.5,0.6c0.3,0,0.7-0.1,1-0.1c0.3-0.1,0.7-0.2,1-0.4
		l0.7,3.8c-0.7,0.3-1.5,0.6-2.3,0.7c-0.8,0.2-1.6,0.3-2.4,0.3c-1.3,0.1-2.6-0.4-3.6-1.2c-0.9-0.9-1.4-2.2-1.3-3.5L965.2,482z"/>
	<path class="st10" d="M985.9,509.4c-1.5,0-2.9-0.3-4.2-0.8c-1.2-0.5-2.3-1.3-3.2-2.2c-0.9-0.9-1.5-2-2-3.2
		c-0.5-1.2-0.7-2.5-0.7-3.8c0-1.3,0.2-2.6,0.7-3.9c0.5-1.2,1.1-2.3,2-3.2c0.9-0.9,2-1.7,3.2-2.2c1.3-0.6,2.8-0.8,4.2-0.8
		c1.5,0,2.9,0.2,4.2,0.8c1.2,0.5,2.3,1.3,3.2,2.2c0.9,0.9,1.5,2,2,3.2c0.5,1.2,0.7,2.5,0.7,3.9c0,1.3-0.2,2.6-0.7,3.8
		c-0.5,1.2-1.1,2.3-2,3.2c-0.9,0.9-2,1.7-3.2,2.2C988.8,509.1,987.3,509.4,985.9,509.4z M980.8,499.4c0,0.8,0.1,1.6,0.4,2.4
		c0.2,0.7,0.6,1.3,1.1,1.8c0.4,0.5,1,0.9,1.6,1.2c1.3,0.6,2.7,0.6,4,0c0.6-0.3,1.2-0.7,1.6-1.2c0.5-0.5,0.8-1.2,1.1-1.9
		c0.3-0.8,0.4-1.6,0.4-2.4c0-0.8-0.1-1.6-0.4-2.3c-0.2-0.7-0.6-1.3-1.1-1.9c-0.4-0.5-1-0.9-1.6-1.2c-0.6-0.3-1.3-0.4-2-0.4
		c-0.7,0-1.4,0.1-2,0.4c-0.6,0.3-1.2,0.7-1.6,1.2c-0.5,0.5-0.8,1.2-1.1,1.8C980.9,497.8,980.8,498.5,980.8,499.4L980.8,499.4z"/>
	<path class="st10" d="M998.1,499.3c0-1.3,0.2-2.6,0.7-3.9c0.4-1.2,1.1-2.3,2-3.2c0.9-0.9,2-1.7,3.2-2.2c1.3-0.6,2.8-0.8,4.3-0.8
		c1.9-0.1,3.8,0.4,5.4,1.4c1.4,0.9,2.6,2.1,3.3,3.6l-4.8,1.5c-0.4-0.7-1-1.3-1.7-1.6c-0.7-0.4-1.5-0.6-2.3-0.6c-0.7,0-1.4,0.1-2,0.4
		c-0.6,0.3-1.2,0.7-1.6,1.2c-0.5,0.5-0.8,1.2-1.1,1.8c-0.3,0.8-0.4,1.6-0.4,2.4c0,0.8,0.1,1.6,0.4,2.4c0.2,0.7,0.6,1.3,1.1,1.9
		c0.4,0.5,1,0.9,1.6,1.2c0.6,0.3,1.3,0.4,2,0.4c0.9,0,1.7-0.2,2.5-0.7c0.7-0.4,1.2-0.9,1.6-1.6l4.8,1.5c-0.7,1.5-1.8,2.8-3.3,3.6
		c-1.7,1-3.6,1.5-5.5,1.4c-1.5,0-2.9-0.3-4.3-0.8c-2.4-1-4.3-3-5.3-5.4C998.4,501.9,998.1,500.6,998.1,499.3z"/>
	<path class="st10" d="M1033.5,509l-5.6-8.4l-2.7,2.6v5.8h-5v-27h5v16.4l7.8-8.7h5.3l-7.2,8.2l7.7,11.1L1033.5,509z"/>
	<path class="st10" d="M1050.9,509v-14.6h-2.6v-3.8h2.6v-1.2c-0.1-2.1,0.5-4.1,1.7-5.7c1.2-1.4,2.9-2.2,4.7-2.1
		c1.7,0,3.3,0.4,4.8,1.1l-1,3.7c-0.4-0.2-0.9-0.4-1.3-0.5c-0.5-0.1-0.9-0.2-1.4-0.2c-1.7,0-2.6,1.2-2.6,3.5v1.4h4.7v3.8h-4.7V509
		H1050.9z"/>
	<path class="st10" d="M1071.4,509.4c-1.5,0-2.9-0.3-4.2-0.8c-1.2-0.5-2.3-1.3-3.2-2.2c-0.9-0.9-1.5-2-2-3.2
		c-0.5-1.2-0.7-2.5-0.7-3.8c0-1.3,0.2-2.6,0.7-3.9c0.5-1.2,1.1-2.3,2-3.2c0.9-0.9,2-1.7,3.2-2.2c1.3-0.6,2.8-0.8,4.2-0.8
		c1.5,0,2.9,0.2,4.2,0.8c1.2,0.5,2.3,1.3,3.2,2.2c0.9,0.9,1.5,2,2,3.2c0.5,1.2,0.7,2.5,0.7,3.9c0,1.3-0.2,2.6-0.7,3.8
		c-0.5,1.2-1.1,2.3-2,3.2c-0.9,0.9-2,1.7-3.2,2.2C1074.3,509.1,1072.9,509.4,1071.4,509.4z M1066.4,499.4c0,0.8,0.1,1.6,0.4,2.4
		c0.2,0.7,0.6,1.3,1.1,1.8c0.4,0.5,1,0.9,1.6,1.2c1.3,0.6,2.7,0.6,4,0c0.6-0.3,1.2-0.7,1.6-1.2c0.5-0.5,0.8-1.2,1.1-1.9
		c0.3-0.8,0.4-1.6,0.4-2.4c0-0.8-0.1-1.6-0.4-2.3c-0.2-0.7-0.6-1.3-1.1-1.9c-0.4-0.5-1-0.9-1.6-1.2c-0.6-0.3-1.3-0.4-2-0.4
		c-0.7,0-1.4,0.1-2,0.4c-0.6,0.3-1.2,0.7-1.6,1.2c-0.5,0.5-0.8,1.2-1.1,1.9C1066.5,497.8,1066.3,498.6,1066.4,499.4L1066.4,499.4z"
		/>
	<path class="st10" d="M1096.4,493.9c-1.4,0-2.7,0.3-4,0.9c-1.1,0.5-2,1.4-2.6,2.5V509h-5v-19.4h4.6v4.1c0.3-0.6,0.7-1.2,1.2-1.8
		c0.5-0.5,1-1,1.5-1.4c0.5-0.4,1.1-0.7,1.7-0.9c0.5-0.2,1.1-0.3,1.6-0.3h0.6c0.1,0,0.3,0,0.4,0V493.9z"/>
	<path class="st10" d="M1118.8,508c-0.8,0.3-1.6,0.6-2.4,0.9c-1,0.3-2,0.4-3,0.4c-0.7,0-1.3-0.1-1.9-0.3c-0.6-0.2-1.1-0.4-1.6-0.8
		c-0.5-0.4-0.8-0.9-1.1-1.5c-0.3-0.7-0.4-1.4-0.4-2.2v-11.1h-2.6v-3.8h2.6v-6.3h5v6.3h4.1v3.8h-4.1v9.5c-0.1,0.5,0.1,1.1,0.5,1.5
		c0.4,0.3,0.8,0.4,1.3,0.4c0.5,0,1-0.1,1.5-0.3c0.5-0.2,0.9-0.3,1.2-0.4L1118.8,508z"/>
	<path class="st10" d="M1139.4,509h-5v-10.9c0.1-1.2-0.2-2.4-0.8-3.4c-0.6-0.7-1.5-1.1-2.4-1.1c-0.5,0-1,0.1-1.4,0.3
		c-0.5,0.2-1,0.5-1.4,0.8c-0.5,0.4-0.9,0.8-1.2,1.3c-0.4,0.5-0.6,1-0.8,1.6V509h-5v-27h5v11.2c0.7-1.2,1.7-2.2,2.9-2.9
		c1.2-0.7,2.6-1,4.1-1c1.1,0,2.1,0.2,3.1,0.6c0.8,0.4,1.4,1,1.8,1.7c0.5,0.7,0.8,1.6,0.9,2.4c0.2,0.9,0.3,1.9,0.3,2.8L1139.4,509z"
		/>
	<path class="st10" d="M1152.8,509.4c-1.4,0-2.9-0.3-4.2-0.8c-2.4-1-4.3-2.9-5.3-5.4c-0.5-1.2-0.7-2.5-0.7-3.8
		c0-1.3,0.2-2.7,0.7-3.9c0.4-1.2,1.1-2.3,2-3.2c0.9-0.9,2-1.7,3.2-2.2c1.4-0.6,2.8-0.8,4.3-0.8c1.5,0,2.9,0.2,4.2,0.8
		c1.2,0.5,2.3,1.2,3.2,2.2c0.9,0.9,1.6,2,2,3.2c0.5,1.2,0.7,2.5,0.7,3.8c0,0.3,0,0.6,0,0.9c0,0.2,0,0.5-0.1,0.7h-15
		c0.1,0.7,0.2,1.4,0.6,2c0.6,1.1,1.5,2,2.7,2.5c0.6,0.2,1.2,0.3,1.8,0.3c1,0,1.9-0.2,2.8-0.7c0.8-0.4,1.4-1.1,1.8-1.9l4.3,1.2
		c-0.8,1.5-1.9,2.8-3.4,3.6C1156.6,508.9,1154.7,509.4,1152.8,509.4z M1157.8,497.7c-0.1-1.3-0.6-2.6-1.6-3.5
		c-1.4-1.3-3.5-1.7-5.3-1c-0.6,0.2-1.1,0.6-1.5,1c-0.5,0.4-0.8,0.9-1.1,1.5c-0.3,0.6-0.5,1.3-0.5,2L1157.8,497.7z"/>
	<path class="st10" d="M1193.5,504.5v4.5h-18.2v-26.3h17.9v4.5h-12.8v6.3h11.1v4.1h-11.1v6.8L1193.5,504.5z"/>
	<path class="st10" d="M1214.8,509h-5v-10.9c0.1-1.2-0.2-2.4-0.8-3.4c-0.5-0.7-1.4-1.1-2.3-1.1c-0.5,0-1,0.1-1.5,0.3
		c-0.5,0.2-1,0.5-1.5,0.8c-0.5,0.4-0.9,0.8-1.2,1.3c-0.4,0.5-0.6,1-0.8,1.6V509h-5v-19.4h4.5v3.6c0.7-1.2,1.8-2.3,3.1-2.9
		c1.4-0.7,3-1,4.6-1c1,0,2.1,0.2,3,0.7c0.7,0.4,1.3,1,1.8,1.7c0.4,0.8,0.7,1.6,0.9,2.4c0.2,0.9,0.2,1.8,0.2,2.8L1214.8,509z"/>
	<path class="st10" d="M1228.2,509.4c-1.4,0-2.9-0.3-4.2-0.8c-2.4-1-4.3-2.9-5.3-5.4c-0.5-1.2-0.7-2.5-0.7-3.8
		c0-1.3,0.2-2.7,0.7-3.9c0.4-1.2,1.1-2.3,2-3.2c0.9-0.9,2-1.7,3.2-2.2c1.4-0.6,2.8-0.8,4.3-0.8c1.5,0,2.9,0.2,4.2,0.8
		c1.2,0.5,2.3,1.2,3.2,2.2c0.9,0.9,1.6,2,2,3.2c0.5,1.2,0.7,2.5,0.7,3.8c0,0.3,0,0.6,0,0.9c0,0.2,0,0.5-0.1,0.7h-15
		c0.1,0.7,0.3,1.4,0.6,2c0.6,1.1,1.5,2,2.7,2.5c0.6,0.2,1.2,0.3,1.8,0.3c1,0,1.9-0.2,2.8-0.7c0.8-0.4,1.4-1.1,1.8-1.9l4.2,1.2
		c-0.8,1.5-1.9,2.8-3.4,3.6C1232,508.9,1230.1,509.4,1228.2,509.4z M1233.2,497.7c-0.1-1.3-0.6-2.6-1.6-3.5c-1.9-1.8-4.9-1.8-6.9,0
		c-0.5,0.4-0.8,1-1.1,1.5c-0.3,0.6-0.5,1.3-0.5,2L1233.2,497.7z"/>
	<path class="st10" d="M1252.9,493.9c-1.4,0-2.7,0.3-4,0.9c-1.1,0.5-2,1.4-2.6,2.5V509h-5v-19.4h4.6v4.1c0.3-0.6,0.7-1.2,1.2-1.8
		c0.5-0.5,1-1,1.5-1.4c0.5-0.4,1.1-0.7,1.7-0.9c0.5-0.2,1.1-0.3,1.6-0.3h0.6c0.1,0,0.3,0,0.4,0V493.9z"/>
	<path class="st10" d="M1262.3,509.1c-1.2,0-2.4-0.3-3.6-0.8c-1.1-0.5-2-1.2-2.8-2.1c-0.8-0.9-1.4-2-1.8-3.1c-0.9-2.5-0.9-5.2,0-7.7
		c0.4-1.2,1-2.2,1.8-3.2c0.8-0.9,1.8-1.6,2.8-2.1c1.1-0.5,2.4-0.8,3.7-0.8c1.4,0,2.8,0.3,4,1c1.1,0.7,2.1,1.6,2.8,2.7v-3.4h4.3V508
		c0,1.3-0.3,2.6-0.8,3.9c-0.5,1.1-1.3,2.1-2.2,2.9c-1,0.8-2.2,1.4-3.4,1.8c-1.4,0.4-2.8,0.6-4.3,0.6c-1.8,0.1-3.7-0.3-5.3-1
		c-1.4-0.7-2.7-1.7-3.7-3l2.7-2.6c0.8,0.9,1.7,1.7,2.8,2.2c1.1,0.5,2.3,0.8,3.6,0.8c0.7,0,1.5-0.1,2.2-0.3c0.7-0.2,1.3-0.5,1.9-1
		c0.6-0.5,1-1,1.3-1.7c0.3-0.8,0.5-1.6,0.5-2.4v-2.4c-0.6,1.1-1.6,2-2.7,2.6C1264.9,508.8,1263.6,509.1,1262.3,509.1z M1263.9,505.1
		c0.5,0,1.1-0.1,1.6-0.3c1-0.3,1.8-0.9,2.5-1.7c0.3-0.4,0.6-0.8,0.7-1.3v-4.6c-0.4-1.1-1.1-2.1-2.1-2.7c-0.9-0.6-1.9-1-3-1
		c-0.7,0-1.4,0.2-2.1,0.5c-0.6,0.3-1.2,0.8-1.6,1.3c-0.4,0.6-0.8,1.2-1,1.9c-0.2,0.7-0.4,1.5-0.3,2.2c0,0.8,0.1,1.5,0.4,2.2
		c0.3,0.7,0.6,1.3,1.1,1.8c0.5,0.5,1,0.9,1.7,1.2C1262.5,505,1263.2,505.2,1263.9,505.1L1263.9,505.1z"/>
	<path class="st10" d="M1278.6,512.8c0.4,0.1,0.8,0.2,1.2,0.3c0.3,0.1,0.7,0.1,1,0.1c0.3,0,0.6-0.1,0.9-0.2c0.3-0.1,0.6-0.4,0.7-0.7
		c0.3-0.4,0.5-0.8,0.7-1.3c0.2-0.5,0.5-1.2,0.7-2l-7.7-19.4h5.1l5.2,15.1l4.7-15.1h4.7l-8.1,23.2c-0.5,1.3-1.3,2.5-2.4,3.3
		c-1.2,0.9-2.7,1.3-4.2,1.3c-0.4,0-0.8,0-1.2-0.1c-0.4-0.1-0.9-0.2-1.3-0.3L1278.6,512.8z"/>
	<path class="st10" d="M1328.3,509v-17.4l-6.8,13h-2.8l-6.8-13V509h-5.1v-26.3h5.5l7.8,15l7.8-15h5.4V509H1328.3z"/>
	<path class="st10" d="M1343.5,509.4c-0.9,0-1.8-0.1-2.6-0.5c-0.8-0.3-1.5-0.7-2.1-1.3c-0.6-0.5-1.1-1.2-1.4-1.9
		c-0.3-0.8-0.5-1.6-0.5-2.4c0-0.9,0.2-1.7,0.6-2.5c0.4-0.8,1-1.5,1.7-2c0.8-0.6,1.7-1,2.6-1.3c1.1-0.3,2.2-0.5,3.3-0.5
		c0.9,0,1.7,0.1,2.5,0.2c0.8,0.1,1.5,0.3,2.2,0.6v-1.1c0.1-1.1-0.3-2.2-1.1-3c-0.9-0.7-2.1-1.1-3.2-1c-1,0-2,0.2-3,0.5
		c-1.1,0.4-2.1,1-3,1.6l-1.5-3.1c2.4-1.6,5.2-2.5,8.1-2.5c2.3-0.1,4.7,0.6,6.5,2c1.6,1.5,2.5,3.7,2.3,5.9v6c0,0.4,0.1,0.8,0.3,1.1
		c0.2,0.2,0.6,0.4,0.9,0.4v4.3c-0.7,0.2-1.4,0.2-2.2,0.3c-0.8,0.1-1.5-0.2-2.2-0.6c-0.5-0.4-0.8-1-0.9-1.7l-0.1-1.1
		c-0.8,1.1-1.9,2-3.2,2.6C1346.2,509.1,1344.9,509.4,1343.5,509.4z M1344.9,505.7c0.8,0,1.6-0.1,2.4-0.4c0.7-0.2,1.3-0.6,1.8-1.2
		c0.5-0.3,0.8-0.8,0.8-1.4v-2.2c-0.6-0.2-1.3-0.4-1.9-0.5c-0.7-0.1-1.3-0.2-2-0.2c-1.1,0-2.2,0.3-3.2,0.9c-0.8,0.5-1.2,1.3-1.2,2.2
		c0,0.8,0.4,1.6,1,2.1C1343.2,505.5,1344,505.8,1344.9,505.7z"/>
	<path class="st10" d="M1371,493.9c-1.4,0-2.7,0.3-4,0.9c-1.1,0.5-2,1.4-2.6,2.5V509h-5v-19.4h4.6v4.1c0.3-0.6,0.7-1.2,1.2-1.8
		c0.5-0.5,1-1,1.5-1.4c0.5-0.4,1.1-0.7,1.7-0.9c0.5-0.2,1.1-0.3,1.6-0.3h0.6c0.1,0,0.3,0,0.4,0V493.9z"/>
	<path class="st10" d="M1387,509l-5.6-8.4l-2.7,2.6v5.8h-5v-27h5v16.4l7.8-8.7h5.3l-7.2,8.2l7.7,11.1L1387,509z"/>
	<path class="st10" d="M1402.4,509.4c-1.4,0-2.9-0.3-4.2-0.8c-2.4-1-4.3-2.9-5.3-5.4c-0.5-1.2-0.7-2.5-0.7-3.8
		c0-1.3,0.2-2.7,0.7-3.9c0.4-1.2,1.1-2.3,2-3.2c0.9-0.9,2-1.7,3.2-2.2c1.4-0.6,2.8-0.8,4.3-0.8c1.5,0,2.9,0.2,4.2,0.8
		c1.2,0.5,2.3,1.2,3.2,2.2c0.9,0.9,1.6,2,2,3.2c0.5,1.2,0.7,2.5,0.7,3.8c0,0.3,0,0.6,0,0.9c0,0.2,0,0.5-0.1,0.7h-15
		c0.1,0.7,0.2,1.4,0.6,2c0.6,1.1,1.5,2,2.7,2.5c0.6,0.2,1.2,0.3,1.8,0.3c1,0,1.9-0.2,2.8-0.7c0.8-0.4,1.4-1.1,1.8-1.9l4.2,1.2
		c-0.8,1.5-1.9,2.8-3.4,3.6C1406.3,508.9,1404.3,509.4,1402.4,509.4z M1407.4,497.7c-0.1-1.3-0.6-2.6-1.6-3.5
		c-1.9-1.8-4.9-1.8-6.9,0c-0.5,0.4-0.8,1-1.1,1.5c-0.3,0.6-0.5,1.3-0.5,2L1407.4,497.7z"/>
	<path class="st10" d="M1427,508c-0.8,0.3-1.6,0.6-2.4,0.9c-1,0.3-2,0.4-3,0.4c-0.7,0-1.3-0.1-1.9-0.3c-0.6-0.2-1.1-0.4-1.6-0.8
		c-0.5-0.4-0.8-0.9-1.1-1.5c-0.3-0.7-0.4-1.4-0.4-2.2v-11.1h-2.5v-3.8h2.6v-6.3h5v6.3h4.1v3.8h-4.1v9.5c-0.1,0.5,0.1,1.1,0.5,1.5
		c0.4,0.3,0.8,0.4,1.3,0.4c0.5,0,1-0.1,1.5-0.3c0.5-0.2,0.9-0.3,1.2-0.4L1427,508z"/>
	<ellipse class="st2" cx="218" cy="946" rx="82" ry="11.2"/>
	<polygon class="st11" points="199.8,938 206.8,701 218.8,701 218.8,938 	"/>
	<path class="st12" d="M198.8,938h40c5,0,9,4,9,9l0,0h-58C189.8,942,193.8,938,198.8,938L198.8,938z"/>
	<polygon class="st13" points="218.8,701 230.8,701 237.8,938 218.8,938 	"/>
	<path class="st11" d="M180.8,710h52v-24h-39c-7.1,0.2-12.8,5.9-13,13V710z"/>
	<ellipse class="st1" cx="232.8" cy="647.5" rx="9" ry="50.5"/>
	<ellipse transform="matrix(0.574 -0.8189 0.8189 0.574 -477.7713 535.0931)" class="st1" cx="275.4" cy="726.7" rx="9" ry="50.5"/>
	
		<ellipse transform="matrix(0.8211 -0.5708 0.5708 0.8211 -381.9508 238.0041)" class="st1" cx="188.7" cy="728.3" rx="50.4" ry="9"/>
	<circle class="st14" cx="233.3" cy="697.5" r="12.5"/>
	<ellipse class="st2" cx="1168" cy="946" rx="82" ry="11.2"/>
	<polygon class="st11" points="1149.8,938 1156.8,701 1168.8,701 1168.8,938 	"/>
	<path class="st12" d="M1148.8,938h40c5,0,9,4,9,9l0,0h-58C1139.8,942,1143.8,938,1148.8,938L1148.8,938z"/>
	<polygon class="st13" points="1168.8,701 1180.8,701 1187.8,938 1168.8,938 	"/>
	<path class="st11" d="M1130.8,710h52v-24h-39c-7.1,0.2-12.8,5.9-13,13V710z"/>
	<ellipse class="st1" cx="1182.8" cy="647.5" rx="9" ry="50.5"/>
	
		<ellipse transform="matrix(0.574 -0.8189 0.8189 0.574 -73.0749 1313.0066)" class="st1" cx="1225.4" cy="726.7" rx="9" ry="50.5"/>
	
		<ellipse transform="matrix(0.8211 -0.5708 0.5708 0.8211 -213.9746 781.5311)" class="st1" cx="1139.8" cy="732.1" rx="50.4" ry="9"/>
	<circle class="st14" cx="1183.3" cy="697.5" r="12.5"/>
	<ellipse class="st2" cx="702" cy="949" rx="82" ry="11.2"/>
	<polygon class="st11" points="688.3,943.7 693.1,778 701.5,778 701.5,943.7 	"/>
	<path class="st12" d="M687.5,943.7h28c3.5,0,6.3,2.8,6.3,6.3h-40.6C681.3,946.5,684.1,943.7,687.5,943.7z"/>
	<polygon class="st13" points="701.5,778 709.9,778 714.8,943.7 701.5,943.7 	"/>
	
		<rect x="739.7" y="698.5" transform="matrix(0.9855 -0.1695 0.1695 0.9855 -111.1964 139.6395)" class="st15" width="45" height="45"/>
	<path class="st16" d="M780.2,695.5l7.5,43.4l-43.4,7.5l-7.5-43.4L780.2,695.5 M781,694.4l-45.3,7.8l7.8,45.3l45.3-7.8L781,694.4
		L781,694.4z"/>
	
		<rect x="694.3" y="706.3" transform="matrix(0.9855 -0.1695 0.1695 0.9855 -113.1751 132.0678)" class="st15" width="45" height="45"/>
	<path class="st16" d="M734.8,703.3l7.5,43.4l-43.4,7.5l-7.5-43.4L734.8,703.3 M735.6,702.2l-45.3,7.8l7.8,45.3l45.3-7.8
		L735.6,702.2L735.6,702.2z"/>
	
		<rect x="649" y="714.1" transform="matrix(0.9855 -0.1695 0.1695 0.9855 -115.1524 124.4942)" class="st15" width="45" height="45"/>
	<path class="st16" d="M689.5,711.2l7.5,43.4l-43.4,7.5l-7.5-43.4L689.5,711.2 M690.3,710l-45.3,7.8l7.8,45.3l45.3-7.8L690.3,710
		L690.3,710z"/>
	
		<rect x="603.7" y="721.9" transform="matrix(0.9855 -0.1695 0.1695 0.9855 -117.1311 116.9224)" class="st15" width="45" height="45"/>
	<path class="st16" d="M644.2,719l7.5,43.4l-43.4,7.5l-7.5-43.4L644.2,719 M645,717.8l-45.3,7.8l7.8,45.3l45.3-7.8L645,717.8
		L645,717.8z"/>
	
		<rect x="747.5" y="743.8" transform="matrix(0.9855 -0.1695 0.1695 0.9855 -118.7682 141.6182)" class="st15" width="45" height="45"/>
	<path class="st16" d="M788,740.9l7.5,43.4l-43.5,7.5l-7.5-43.4L788,740.9 M788.8,739.7l-45.3,7.8l7.8,45.3l45.3-7.8L788.8,739.7z"
		/>
	
		<rect x="702.1" y="751.6" transform="matrix(0.9855 -0.1695 0.1695 0.9855 -120.7468 134.0464)" class="st15" width="45" height="45"/>
	<path class="st16" d="M742.6,748.7l7.5,43.4l-43.4,7.5l-7.5-43.4L742.6,748.7 M743.4,747.5l-45.3,7.8l7.8,45.3l45.3-7.8
		L743.4,747.5z"/>
	
		<rect x="656.8" y="759.4" transform="matrix(0.9855 -0.1695 0.1695 0.9855 -122.7242 126.4728)" class="st15" width="45" height="45"/>
	<path class="st16" d="M697.3,756.5l7.5,43.4l-43.4,7.5l-7.5-43.4L697.3,756.5 M698.1,755.3l-45.3,7.8l7.8,45.3l45.3-7.8
		L698.1,755.3z"/>
	
		<rect x="611.5" y="767.2" transform="matrix(0.9855 -0.1695 0.1695 0.9855 -124.7028 118.9011)" class="st15" width="45" height="45"/>
	<path class="st16" d="M652,764.3l7.5,43.4l-43.5,7.5l-7.5-43.4L652,764.3 M652.8,763.1l-45.3,7.8l7.8,45.3l45.3-7.8L652.8,763.1z"
		/>
	
		<rect x="755.3" y="789.2" transform="matrix(0.9855 -0.1695 0.1695 0.9855 -126.3401 143.5951)" class="st15" width="45" height="45"/>
	<path class="st16" d="M795.8,786.2l7.5,43.4l-43.4,7.4l-7.5-43.4L795.8,786.2 M796.6,785l-45.3,7.8l7.8,45.4l45.3-7.8L796.6,785
		L796.6,785z"/>
	
		<rect x="709.9" y="797" transform="matrix(0.9855 -0.1695 0.1695 0.9855 -128.3171 136.0232)" class="st15" width="45" height="45"/>
	<path class="st16" d="M750.4,794l7.5,43.4l-43.4,7.5l-7.5-43.4L750.4,794 M751.2,792.8l-45.3,7.8l7.8,45.4l45.3-7.8L751.2,792.8
		L751.2,792.8z"/>
	
		<rect x="664.6" y="804.8" transform="matrix(0.9855 -0.1695 0.1695 0.9855 -130.2961 128.4498)" class="st15" width="45" height="45"/>
	<path class="st16" d="M705.1,801.8l7.5,43.4l-43.4,7.5l-7.5-43.4L705.1,801.8 M705.9,800.7l-45.3,7.8l7.8,45.3l45.3-7.8
		L705.9,800.7L705.9,800.7z"/>
	
		<rect x="619.3" y="812.6" transform="matrix(0.9855 -0.1695 0.1695 0.9855 -132.2746 120.8797)" class="st15" width="45" height="45"/>
	<path class="st16" d="M659.8,809.6l7.5,43.4l-43.4,7.5l-7.5-43.4L659.8,809.6 M660.6,808.5l-45.3,7.8l7.8,45.3l45.3-7.8
		L660.6,808.5L660.6,808.5z"/>
	<ellipse class="st2" cx="1634" cy="949" rx="82" ry="11.2"/>
	<polygon class="st11" points="1620.3,943.7 1625.1,778 1633.5,778 1633.5,943.7 	"/>
	<path class="st12" d="M1619.5,943.7h28c3.5,0,6.3,2.8,6.3,6.3h-40.6C1613.3,946.5,1616.1,943.7,1619.5,943.7z"/>
	<polygon class="st13" points="1633.5,778 1641.9,778 1646.8,943.7 1633.5,943.7 	"/>
	
		<rect x="1671.7" y="698.6" transform="matrix(0.9855 -0.1695 0.1695 0.9855 -97.7147 297.636)" class="st15" width="45" height="45"/>
	<path class="st16" d="M1712.2,695.5l7.5,43.4l-43.4,7.5l-7.5-43.4L1712.2,695.5 M1713,694.4l-45.3,7.8l7.8,45.3l45.3-7.8
		L1713,694.4L1713,694.4z"/>
	
		<rect x="1626.3" y="706.4" transform="matrix(0.9855 -0.1695 0.1695 0.9855 -99.6934 290.0643)" class="st15" width="45" height="45"/>
	<path class="st16" d="M1666.8,703.3l7.5,43.4l-43.4,7.5l-7.5-43.4L1666.8,703.3 M1667.6,702.2l-45.3,7.8l7.8,45.3l45.3-7.8
		L1667.6,702.2L1667.6,702.2z"/>
	
		<rect x="1581" y="714.2" transform="matrix(0.9855 -0.1695 0.1695 0.9855 -101.6707 282.4907)" class="st15" width="45" height="45"/>
	<path class="st16" d="M1621.5,711.2l7.5,43.4l-43.4,7.5l-7.5-43.4L1621.5,711.2 M1622.3,710l-45.3,7.8l7.8,45.3l45.3-7.8
		L1622.3,710L1622.3,710z"/>
	
		<rect x="1535.7" y="722" transform="matrix(0.9855 -0.1695 0.1695 0.9855 -103.6494 274.9189)" class="st15" width="45" height="45"/>
	<path class="st16" d="M1576.2,719l7.5,43.4l-43.4,7.5l-7.5-43.4L1576.2,719 M1577,717.8l-45.3,7.8l7.8,45.3l45.3-7.8L1577,717.8
		L1577,717.8z"/>
	
		<rect x="1679.5" y="743.9" transform="matrix(0.9855 -0.1695 0.1695 0.9855 -105.2867 299.613)" class="st15" width="45" height="45"/>
	<path class="st16" d="M1720,740.9l7.5,43.4l-43.5,7.5l-7.5-43.4L1720,740.9 M1720.7,739.7l-45.3,7.8l7.8,45.3l45.3-7.8
		L1720.7,739.7z"/>
	
		<rect x="1634.1" y="751.7" transform="matrix(0.9855 -0.1695 0.1695 0.9855 -107.2653 292.0412)" class="st15" width="45" height="45"/>
	<path class="st16" d="M1674.6,748.7l7.5,43.4l-43.4,7.5l-7.5-43.4L1674.6,748.7 M1675.4,747.5l-45.3,7.8l7.8,45.3l45.3-7.8
		L1675.4,747.5z"/>
	
		<rect x="1588.8" y="759.5" transform="matrix(0.9855 -0.1695 0.1695 0.9855 -109.2425 284.4694)" class="st15" width="45" height="45"/>
	<path class="st16" d="M1629.3,756.5l7.5,43.4l-43.4,7.5l-7.5-43.4L1629.3,756.5 M1630.1,755.3l-45.3,7.8l7.8,45.3l45.3-7.8
		L1630.1,755.3z"/>
	
		<rect x="1543.5" y="767.3" transform="matrix(0.9855 -0.1695 0.1695 0.9855 -111.2212 276.8976)" class="st15" width="45" height="45"/>
	<path class="st16" d="M1584,764.3l7.5,43.4l-43.5,7.5l-7.5-43.4L1584,764.3 M1584.7,763.1l-45.3,7.8l7.8,45.3l45.3-7.8
		L1584.7,763.1z"/>
	
		<rect x="1687.3" y="789.2" transform="matrix(0.9855 -0.1695 0.1695 0.9855 -112.8584 301.5916)" class="st15" width="45" height="45"/>
	<path class="st16" d="M1727.8,786.2l7.5,43.4l-43.4,7.4l-7.5-43.4L1727.8,786.2 M1728.6,785l-45.3,7.8l7.8,45.3l45.3-7.8
		L1728.6,785z"/>
	
		<rect x="1641.9" y="797" transform="matrix(0.9855 -0.1695 0.1695 0.9855 -114.8371 294.0199)" class="st15" width="45" height="45"/>
	<path class="st16" d="M1682.4,794l7.5,43.4l-43.4,7.5l-7.5-43.4L1682.4,794 M1683.2,792.8l-45.3,7.8l7.8,45.3l45.3-7.8
		L1683.2,792.8z"/>
	
		<rect x="1596.6" y="804.8" transform="matrix(0.9855 -0.1695 0.1695 0.9855 -116.8161 286.4464)" class="st15" width="45" height="45"/>
	<path class="st16" d="M1637.1,801.8l7.5,43.4l-43.4,7.5l-7.5-43.4L1637.1,801.8 M1637.9,800.7l-45.3,7.8l7.8,45.3l45.3-7.8
		L1637.9,800.7z"/>
	
		<rect x="1551.3" y="812.6" transform="matrix(0.9855 -0.1695 0.1695 0.9855 -118.7931 278.8745)" class="st15" width="45" height="45"/>
	<path class="st16" d="M1591.8,809.6l7.5,43.4l-43.4,7.5l-7.5-43.4L1591.8,809.6 M1592.6,808.5l-45.3,7.8l7.8,45.3l45.3-7.8
		L1592.6,808.5z"/>
</g>
</svg>
