<svg id="Layer_1" data-name="Layer 1" xmlns="http://www.w3.org/2000/svg" viewBox="0 0 893.82 323.4"><defs><style>.cls-1{fill:#4cae4e;}.cls-2{fill:#378e43;}.cls-3{fill:#81c684;}.cls-4{fill:#f8bf2c;}.cls-5{fill:#fde939;}.cls-6{fill:#fff;}</style></defs><title>logo-final</title><path class="cls-1" d="M446.16,223.22v22.71h-67.6V151.07H445v22.71H404.6v13.36h34.47v21.11H404.6v15Z" transform="translate(-53.09 -36.8)"/><path class="cls-1" d="M484.37,199.3v46.63H458.31V151.07h20.31L516.7,199.3V151.07h26.05v94.86H522Z" transform="translate(-53.09 -36.8)"/><path class="cls-1" d="M626.66,223.22v22.71H559.05V151.07h66.4v22.71H585.11v13.36h34.47v21.11H585.11v15Z" transform="translate(-53.09 -36.8)"/><path class="cls-1" d="M638.81,245.93V151.07h43.55a28.82,28.82,0,0,1,12.83,2.87,33.31,33.31,0,0,1,10.09,7.48A35,35,0,0,1,711.9,172a31.64,31.64,0,0,1,2.41,12,33.75,33.75,0,0,1-3.61,15.43,31.44,31.44,0,0,1-10,11.69l20,34.87H691.32l-16.7-29.13h-9.76v29.13Zm26.05-51.84H681.3q2.4,0,4.48-2.67t2.07-7.48q0-4.94-2.41-7.55t-4.81-2.61H664.87Z" transform="translate(-53.09 -36.8)"/><path class="cls-1" d="M801.55,173.78H774.29v72.15H748.24V173.78H720.85V151.07h80.7Z" transform="translate(-53.09 -36.8)"/><path class="cls-1" d="M811,245.93V151.07h26.05v94.86Z" transform="translate(-53.09 -36.8)"/><path class="cls-1" d="M918.31,241.39a46.77,46.77,0,0,1-10.49,3.88,49.83,49.83,0,0,1-11.69,1.34,46.27,46.27,0,0,1-19.64-4.07,47.67,47.67,0,0,1-15.1-10.82,49.27,49.27,0,0,1-9.75-15.43,47.75,47.75,0,0,1-3.47-17.9,46.59,46.59,0,0,1,3.61-18,48.44,48.44,0,0,1,25.45-26,47.4,47.4,0,0,1,19.44-3.94,45,45,0,0,1,19.64,4.21,48.74,48.74,0,0,1,24.78,26.52,48.29,48.29,0,0,1,3.41,17.77,46.3,46.3,0,0,1-3.14,16.9,47.13,47.13,0,0,1-8.89,14.5l14.43,15.63H922.59Zm-21.91-17.9a19.51,19.51,0,0,0,4.95-.53l-15.63-17.1H910l5.21,5.75a27.12,27.12,0,0,0,2.14-6.41,34.6,34.6,0,0,0,.67-6.81,32.33,32.33,0,0,0-1.34-9.29,23.65,23.65,0,0,0-4.08-8,20.26,20.26,0,0,0-6.81-5.55,20.86,20.86,0,0,0-9.55-2.07,20.08,20.08,0,0,0-9.69,2.21,20.62,20.62,0,0,0-6.75,5.74,24.06,24.06,0,0,0-3.94,8,33.32,33.32,0,0,0-1.27,9.15,32.27,32.27,0,0,0,1.34,9.29,24.22,24.22,0,0,0,4,7.95,19.52,19.52,0,0,0,6.75,5.55A21.11,21.11,0,0,0,896.4,223.48Z" transform="translate(-53.09 -36.8)"/><polygon class="cls-2" points="141.14 0 281.17 80.85 281.17 242.55 141.14 161.7 141.14 0"/><polygon class="cls-3" points="1.1 242.55 141.14 161.7 281.17 242.55 141.14 323.4 1.1 242.55"/><polygon class="cls-1" points="1.1 80.85 141.14 0 141.14 161.7 1.1 242.55 1.1 80.85"/><circle class="cls-4" cx="141.15" cy="161.7" r="88.33"/><circle class="cls-5" cx="141.15" cy="161.7" r="69.17"/><rect class="cls-6" x="56.8" y="114.87" width="4.45" height="11.13" transform="translate(-127.88 74.53) rotate(-60)"/><path class="cls-6" d="M166.24,184.9l-17.25-10,2.23-3.86,17.25,10ZM131.74,165l-17.25-10,2.23-3.86,17.25,10Zm-34.5-19.92L80,135.11l2.23-3.86,17.25,10Z" transform="translate(-53.09 -36.8)"/><path class="cls-6" d="M196.47,209.63H192v-9.85l-8.53-4.92,2.23-3.86,9.64,5.57a2.23,2.23,0,0,1,1.11,1.93Z" transform="translate(-53.09 -36.8)"/><path class="cls-6" d="M196.47,329.15H192V309.23h4.45Zm0-39.84H192V269.39h4.45Zm0-39.84H192V229.55h4.45Z" transform="translate(-53.09 -36.8)"/><rect class="cls-6" x="138.92" y="312.27" width="4.45" height="11.13"/><rect class="cls-6" x="323.89" y="118.21" width="11.13" height="4.45" transform="translate(-69.18 144.03) rotate(-29.99)"/><path class="cls-6" d="M222.25,184.9,220,181l17.25-10,2.23,3.86ZM256.75,165l-2.23-3.86,17.25-10L274,155Zm34.5-19.92L289,141.21l17.25-10,2.23,3.86Z" transform="translate(-53.09 -36.8)"/><path class="cls-6" d="M194.24,200.73a2.22,2.22,0,0,1-1.11-.3l-9.64-5.57,2.23-3.86,8.53,4.92,8.53-4.92,2.23,3.86-9.64,5.57A2.22,2.22,0,0,1,194.24,200.73Z" transform="translate(-53.09 -36.8)"/><path class="cls-6" d="M166.24,184.9l-17.25-10,2.23-3.86,17.25,10ZM131.73,165l-17.25-10,2.23-3.86,17.25,10Zm-34.5-19.92L80,135.11l2.23-3.86,17.25,10Z" transform="translate(-53.09 -36.8)"/><rect class="cls-6" x="56.8" y="114.87" width="4.45" height="11.13" transform="translate(-127.88 74.53) rotate(-60)"/><rect class="cls-6" x="138.92" y="312.27" width="4.45" height="11.13"/><path class="cls-6" d="M196.47,329.15H192V309.23h4.45Zm0-39.84H192V269.39h4.45Zm0-39.84H192V229.55h4.45Z" transform="translate(-53.09 -36.8)"/><path class="cls-6" d="M196.47,209.63H192V198.5a2.23,2.23,0,0,1,1.11-1.93l9.64-5.57,2.23,3.86-8.53,4.92Z" transform="translate(-53.09 -36.8)"/><path class="cls-6" d="M222.25,184.9,220,181l17.25-10,2.23,3.86ZM256.75,165l-2.23-3.86,17.25-10L274,155Zm34.5-19.92L289,141.21l17.25-10,2.23,3.86Z" transform="translate(-53.09 -36.8)"/><rect class="cls-6" x="323.89" y="118.21" width="11.13" height="4.45" transform="translate(-69.18 144.03) rotate(-29.99)"/></svg>