<?xml version="1.0" encoding="utf-8"?>
<!-- Generator: Adobe Illustrator 21.0.2, SVG Export Plug-In . SVG Version: 6.00 Build 0)  -->
<svg version="1.1" id="Layer_1" xmlns="http://www.w3.org/2000/svg" xmlns:xlink="http://www.w3.org/1999/xlink" x="0px" y="0px"
	 viewBox="0 0 289.2 278.7" style="enable-background:new 0 0 289.2 278.7;" xml:space="preserve">
<style type="text/css">
	.st0{fill:#4CAE4E;}
	.st1{fill:#E0E0E0;}
	.st2{fill:#616161;}
	.st3{fill:#9E9E9E;}
	.st4{fill:#2196F3;}
	.st5{fill:#64B5F6;}
	.st6{fill:#757575;}
	.st7{fill:#BDBDBD;}
	.st8{fill:#F5F5F5;}
</style>
<title>100Asset 4</title>
<ellipse class="st0" cx="145.7" cy="263.2" rx="143.5" ry="15.5"/>
<polygon class="st1" points="44.5,256.5 47,173.2 51.2,173.2 51.2,256.5 "/>
<path class="st2" d="M44.2,256.5h14.1c1.7,0,3.2,1.4,3.2,3.2H41C41,257.9,42.4,256.5,44.2,256.5C44.2,256.5,44.2,256.5,44.2,256.5z"
	/>
<polygon class="st3" points="51.2,173.2 55.4,173.2 57.9,256.5 51.2,256.5 "/>
<rect x="70.2" y="133" transform="matrix(0.9855 -0.1695 0.1695 0.9855 -23.3241 15.9468)" class="st4" width="23.1" height="23.1"/>
<path class="st5" d="M90.3,132.4l3.6,20.8l-20.8,3.6L69.5,136L90.3,132.4 M91.2,131.2l-22.8,3.9l3.9,22.8l22.8-3.9L91.2,131.2
	L91.2,131.2z"/>
<rect x="47.4" y="136.9" transform="matrix(0.9855 -0.1695 0.1695 0.9855 -24.3189 12.1412)" class="st4" width="23.1" height="23.1"/>
<path class="st5" d="M67.6,136.3l3.6,20.8l-20.8,3.6l-3.6-20.8L67.6,136.3 M68.4,135.1L45.6,139l3.9,22.8l22.8-3.9L68.4,135.1
	L68.4,135.1z"/>
<rect x="24.6" y="140.8" transform="matrix(0.9855 -0.1695 0.1695 0.9855 -25.3123 8.3334)" class="st4" width="23.1" height="23.1"/>
<path class="st5" d="M44.8,140.2l3.6,20.8l-20.8,3.6l-3.6-20.8L44.8,140.2 M45.6,139l-22.8,4l3.9,22.8l22.8-3.9L45.6,139L45.6,139z"
	/>
<rect x="1.8" y="144.8" transform="matrix(0.9855 -0.1695 0.1695 0.9855 -26.3072 4.5277)" class="st4" width="23.1" height="23.1"/>
<path class="st5" d="M22,144.1l3.6,20.8l-20.8,3.6l-3.6-20.8L22,144.1 M22.8,143L0,146.9l3.9,22.8l22.8-3.9L22.8,143L22.8,143z"/>
<rect x="74.1" y="155.8" transform="matrix(0.9855 -0.1695 0.1695 0.9855 -27.1297 16.9417)" class="st4" width="23.1" height="23.1"/>
<rect x="78" y="178.6" transform="matrix(0.9855 -0.1695 0.1695 0.9855 -30.9356 17.9351)" class="st4" width="23.1" height="23.1"/>
<path class="st5" d="M94.3,155.1l3.6,20.9L77,179.6l-3.6-20.8L94.3,155.1 M95.1,154l-22.8,3.9l3.9,22.8l22.8-3.9L95.1,154L95.1,154z
	"/>
<rect x="51.3" y="159.7" transform="matrix(0.9855 -0.1695 0.1695 0.9855 -28.1246 13.136)" class="st4" width="23.1" height="23.1"/>
<path class="st5" d="M71.5,159.1l3.6,20.8l-20.8,3.6l-3.6-20.8L71.5,159.1 M72.3,157.9l-22.8,3.9l3.9,22.8l22.8-3.9L72.3,157.9
	L72.3,157.9z"/>
<rect x="28.5" y="163.6" transform="matrix(0.9855 -0.1695 0.1695 0.9855 -29.1196 9.3287)" class="st4" width="23.1" height="23.1"/>
<path class="st5" d="M48.7,163l3.6,20.8l-20.8,3.6l-3.6-20.8L48.7,163 M49.5,161.8l-22.8,3.9l3.9,22.8l22.8-3.9L49.5,161.8z"/>
<rect x="5.7" y="167.6" transform="matrix(0.9855 -0.1695 0.1695 0.9855 -30.1145 5.523)" class="st4" width="23.1" height="23.1"/>
<path class="st5" d="M25.9,166.9l3.6,20.8l-20.8,3.6l-3.6-20.8L25.9,166.9 M26.7,165.8l-22.8,3.9l3.9,22.8l22.8-3.9L26.7,165.8
	L26.7,165.8z"/>
<path class="st5" d="M98.2,177.9l3.6,20.8l-20.8,3.6l-3.6-20.8L98.2,177.9 M99,176.8l-22.8,3.9l3.9,22.8l22.8-3.9L99,176.8L99,176.8
	z"/>
<rect x="55.2" y="182.5" transform="matrix(0.9855 -0.1695 0.1695 0.9855 -31.9304 14.1292)" class="st4" width="23.1" height="23.1"/>
<path class="st5" d="M75.4,181.9l3.6,20.8l-20.8,3.6l-3.6-20.8L75.4,181.9 M76.2,180.7l-22.8,3.9l3.9,22.8l22.8-3.9L76.2,180.7
	L76.2,180.7z"/>
<rect x="32.4" y="186.4" transform="matrix(0.9855 -0.1695 0.1695 0.9855 -32.9253 10.3235)" class="st4" width="23.1" height="23.1"/>
<path class="st5" d="M52.6,185.8l3.6,20.8l-20.8,3.6l-3.6-20.8L52.6,185.8 M53.4,184.6l-22.8,3.9l3.9,22.8l22.8-3.9L53.4,184.6
	L53.4,184.6z"/>
<rect x="9.7" y="190.3" transform="matrix(0.9855 -0.1695 0.1695 0.9855 -33.9201 6.5179)" class="st4" width="23.1" height="23.1"/>
<path class="st5" d="M29.8,189.7l3.6,20.8l-20.8,3.6L9,193.3L29.8,189.7 M30.6,188.5l-22.8,3.9l3.9,22.8l22.8-3.9L30.6,188.5
	L30.6,188.5z"/>
<polygon class="st1" points="230.6,256.5 233,173.2 237.2,173.2 237.2,256.5 "/>
<path class="st2" d="M230.2,256.5h14.1c1.7,0,3.2,1.4,3.2,3.2H227C227,257.9,228.4,256.5,230.2,256.5
	C230.2,256.5,230.2,256.5,230.2,256.5z"/>
<polygon class="st3" points="237.2,173.2 241.4,173.2 243.9,256.5 237.2,256.5 "/>
<rect x="256.2" y="133" transform="matrix(0.9855 -0.1695 0.1695 0.9855 -20.6305 47.478)" class="st4" width="23.1" height="23.1"/>
<path class="st5" d="M276.3,132.4l3.6,20.8l-20.8,3.6l-3.6-20.8L276.3,132.4 M277.2,131.2l-22.8,3.9l3.9,22.8l22.8-3.9L277.2,131.2
	L277.2,131.2z"/>
<rect x="233.4" y="136.9" transform="matrix(0.9855 -0.1695 0.1695 0.9855 -21.6255 43.6707)" class="st4" width="23.1" height="23.1"/>
<path class="st5" d="M253.6,136.3l3.6,20.8l-20.8,3.6l-3.6-20.8L253.6,136.3 M254.4,135.1l-22.8,3.9l3.9,22.8l22.8-3.9L254.4,135.1
	L254.4,135.1z"/>
<rect x="210.6" y="140.8" transform="matrix(0.9855 -0.1695 0.1695 0.9855 -22.6187 39.8646)" class="st4" width="23.1" height="23.1"/>
<path class="st5" d="M230.8,140.2l3.6,20.8l-20.8,3.6l-3.6-20.8L230.8,140.2 M231.6,139l-22.8,4l3.9,22.8l22.8-3.9L231.6,139
	L231.6,139z"/>
<rect x="187.8" y="144.8" transform="matrix(0.9855 -0.1695 0.1695 0.9855 -23.6135 36.0589)" class="st4" width="23.1" height="23.1"/>
<path class="st5" d="M208,144.1l3.6,20.8l-20.8,3.6l-3.6-20.8L208,144.1 M208.8,143l-22.8,3.9l3.9,22.8l22.8-3.9L208.8,143
	L208.8,143z"/>
<rect x="260.1" y="155.8" transform="matrix(0.9855 -0.1695 0.1695 0.9855 -24.438 48.4713)" class="st4" width="23.1" height="23.1"/>
<rect x="264" y="178.6" transform="matrix(0.9855 -0.1695 0.1695 0.9855 -28.2436 49.4661)" class="st4" width="23.1" height="23.1"/>
<path class="st5" d="M280.3,155.1l3.6,20.9l-20.8,3.6l-3.6-20.8L280.3,155.1 M281.1,154l-22.8,3.9l3.9,22.8l22.8-3.9L281.1,154
	L281.1,154z"/>
<rect x="237.3" y="159.7" transform="matrix(0.9855 -0.1695 0.1695 0.9855 -25.4311 44.6655)" class="st4" width="23.1" height="23.1"/>
<path class="st5" d="M257.5,159.1l3.6,20.8l-20.8,3.6l-3.6-20.8L257.5,159.1 M258.3,157.9l-22.8,3.9l3.9,22.8l22.8-3.9L258.3,157.9
	L258.3,157.9z"/>
<rect x="214.5" y="163.6" transform="matrix(0.9855 -0.1695 0.1695 0.9855 -26.426 40.8599)" class="st4" width="23.1" height="23.1"/>
<path class="st5" d="M234.7,163l3.6,20.8l-20.8,3.6l-3.6-20.8L234.7,163 M235.5,161.8l-22.8,3.9l3.9,22.8l22.8-3.9L235.5,161.8
	L235.5,161.8z"/>
<rect x="191.7" y="167.6" transform="matrix(0.9855 -0.1695 0.1695 0.9855 -27.4208 37.0542)" class="st4" width="23.1" height="23.1"/>
<path class="st5" d="M211.9,166.9l3.6,20.8l-20.8,3.6l-3.6-20.8L211.9,166.9 M212.7,165.8l-22.8,3.9l3.9,22.8l22.8-3.9L212.7,165.8
	L212.7,165.8z"/>
<path class="st5" d="M284.2,177.9l3.6,20.8l-20.8,3.6l-3.6-20.8L284.2,177.9 M285,176.8l-22.8,3.9l3.9,22.8l22.8-3.9L285,176.8
	L285,176.8z"/>
<rect x="241.2" y="182.5" transform="matrix(0.9855 -0.1695 0.1695 0.9855 -29.2385 45.6605)" class="st4" width="23.1" height="23.1"/>
<path class="st5" d="M261.4,181.9l3.6,20.8l-20.8,3.6l-3.6-20.8L261.4,181.9 M262.2,180.7l-22.8,3.9l3.9,22.8l22.8-3.9L262.2,180.7
	L262.2,180.7z"/>
<rect x="218.4" y="186.4" transform="matrix(0.9855 -0.1695 0.1695 0.9855 -30.2316 41.8547)" class="st4" width="23.1" height="23.1"/>
<path class="st5" d="M238.6,185.8l3.6,20.8l-20.8,3.6l-3.6-20.8L238.6,185.8 M239.4,184.6l-22.8,3.9l3.9,22.8l22.8-3.9L239.4,184.6
	L239.4,184.6z"/>
<rect x="195.7" y="190.3" transform="matrix(0.9855 -0.1695 0.1695 0.9855 -31.2265 38.0491)" class="st4" width="23.1" height="23.1"/>
<path class="st5" d="M215.8,189.7l3.6,20.8l-20.8,3.6l-3.6-20.8L215.8,189.7 M216.6,188.5l-22.8,3.9l3.9,22.8l22.8-3.9L216.6,188.5
	L216.6,188.5z"/>
<polygon class="st1" points="128.2,258.9 133.5,79 142.6,79 142.6,258.9 "/>
<path class="st6" d="M127.4,258.9h30.4c3.8,0,6.8,3.1,6.8,6.8h-44C120.7,262,123.7,259,127.4,258.9z"/>
<polygon class="st7" points="142.6,79 151.8,79 157,258.9 142.6,258.9 "/>
<path class="st1" d="M113.8,85.8h39.5V67.6h-29.6c-5.4,0.2-9.7,4.5-9.9,9.9V85.8z"/>
<ellipse class="st8" cx="153.3" cy="38.3" rx="6.8" ry="38.3"/>
<ellipse transform="matrix(0.574 -0.8189 0.8189 0.574 -1.5921 193.9561)" class="st8" cx="185.6" cy="98.5" rx="6.8" ry="38.3"/>
<ellipse transform="matrix(0.8189 -0.574 0.574 0.8189 -34.4772 87.7801)" class="st8" cx="121.8" cy="98.5" rx="38.3" ry="6.8"/>
<circle class="st3" cx="153.6" cy="76.3" r="9.5"/>
</svg>
